<mxfile host="65bd71144e" modified="2021-02-18T22:19:28.331Z" agent="5.0 (X11; Linux x86_64) AppleWebKit/537.36 (KHTML, like Gecko) VSCodium/1.53.1 Chrome/87.0.4280.141 Electron/11.2.1 Safari/537.36" etag="6tUOWoCg2YBVkuTNCHPd" version="13.10.0" type="embed">
    <diagram id="nFptLS4veBWgR2ZiGq-L" name="Page-1">
        <mxGraphModel dx="847" dy="477" grid="1" gridSize="10" guides="1" tooltips="1" connect="1" arrows="1" fold="1" page="1" pageScale="1" pageWidth="850" pageHeight="1100" background="#FFFFFF" math="0" shadow="0">
            <root>
                <mxCell id="0"/>
                <mxCell id="1" parent="0"/>
                <mxCell id="17" value="" style="group;fontColor=#000000;" parent="1" vertex="1" connectable="0">
                    <mxGeometry x="180" y="210" width="120" height="90" as="geometry"/>
                </mxCell>
                <mxCell id="11" value="" style="verticalLabelPosition=bottom;html=1;verticalAlign=top;align=center;strokeColor=none;fillColor=#00BEF2;shape=mxgraph.azure.git_repository;fontColor=#000000;" parent="17" vertex="1">
                    <mxGeometry x="-25" y="-40" width="60" height="60" as="geometry"/>
                </mxCell>
                <mxCell id="13" value="SAS Code&lt;br&gt;Repository" style="text;html=1;strokeColor=none;fillColor=none;align=center;verticalAlign=middle;whiteSpace=wrap;rounded=0;fontSize=16;fontColor=#000000;" parent="17" vertex="1">
                    <mxGeometry x="-50" y="30" width="110" height="20" as="geometry"/>
                </mxCell>
                <mxCell id="22" value="" style="shape=image;verticalLabelPosition=bottom;labelBackgroundColor=#ffffff;verticalAlign=top;aspect=fixed;imageAspect=0;image=data:image/png,iVBORw0KGgoAAAANSUhEUgAAAdoAAABqCAMAAAAsh2BcAAAAwFBMVEX///8Su7cAuLT4/f0dv7sAJkQAI0IAHD4ALUkAKUYAGj0ALkkAIEBrf43Cy9EAHj8YOlIXP1gAEzn2+PkAFzvt8fMADTcAM0/x+/tFX3LQ19zn+PjZ3+Px9Pbj5+oAEjmNnKd2h5RfdYXE7Ou5w8rQ8O+eq7SvusJXy8i76eiY3txWa3s0S2Clsbm/x82F2NZs0c7c9PSq4+KM2deHl6IAADJKYnU/xcJizstoeIY7VWlab38wSF0AACeHmaUABDWKFJgeAAAS4klEQVR4nO1da2Oiuha1aiABFBUUH4hgfdSqbW2dOlXvmf//r25QQB4JhFjbzjmsL51RBHRlv/cOpVKBAgUKFChQoECBAgUKFEhBZXP/+Payw3h4fnudDr77fgp8DgaPD9WyizuM8z92L/eV776tAlei+/rgkRoBful5+t33VuAKdJ/vkrQG7O4W331/BTgxeCbIa4Tdgty/E690ib2Q+1C4VH8dBg9RYssXRF6+e/zuOy2QD/dhkcVsPrwtpptBd7CZvr7s7sL0lh8KZ/lvwmM5xOvucRplb7B4CTFfrha+8t+D5/KF2Acicd3Haojc16++wQKc+H1hlkysi0rIzSo/f+XtFeBGILPl6n3acZWXC7eFTv4bENjZ8ks349B7XyuXCz/5L8AiYJaBru6uXFD7t2AQMJuqjAOclXJ5c+PbKnA9dj61bMy6lhmjcJF/PnxDyyizLqaPj0W28edj8NMiVa1u15a9Xm9Zs+vaDc5vTbbjd/f8zqwff2s2v8EFvw1eOFN+4T9FZTC9v7+fbrK8awZok3ddUgRwgiLpywkLu9pT/anNdH5rfWyJ3umBqgtOmF17ZplOnO6S9VSvM979kP3QL8DGU8dV3rRw9/Wh6nVi3O3ervStZk0JQUECjdVq1RAkASKpuWb42C/915bh9G0HqggpOjyuVkdDVAEUxF5ARr0+mf0zdOIfMv+n/7LYbt/+NVqxHfkV8IWWMwGxeYkWDsoPV9Rzzb0EgXTc1tvuOtOsp63LtL7P/GGbUIZGtnjPZQEqyvusf5JwzZrXoAhRy/E++U9pXbetSeJqe6TYbF9ghaTzQrSc8beLb9dj9jffxwmVe/7SwbyFYKdmRl7rL1sQiZP0Dz61YBOKmdLttCAQ7Iji1uZNFSrNM5uY2plTmieoXauwmX337s22vAWmNRXQSWj2L8abRy2XIh3siJV7zvTyXJKFY3KtzxtA1tNpewdGX4VZqnAsyuIhqQBsVUaN03qqP02G63ZCIZfasiwxyWANCOdPmyNZVlgsxA1RqV7hQw2qlJ4MrnpuX5WVJUmptvcA/knTyX0V/6JLoKb//LYu6zbpjboMleP5kPXQcszkEWMAaqnn9m4UytJZVF1qReLFvg7TKyxttxoxshGTu8vPrYHAO/kdbaWnamRH0K1SXQfjtIP6uizZ5LdMsenxaU6IDnm/JcsMjvpaRUfvn8uObjC6XreCp493PJ+9VIvK1d3vl+dwK0Y59xmxXmzSfr42QZJC7yK0LLmu1J+0+KeH6NT3hxk3t2Kw5K67pc78f0/WtwjJ82B3JoIn09+9mFa/I6O7CLqr8tpbrSmLnOkCW5Empz9CinXD6h6xRb7kS8B95kFWS5ay1sjXwaOHy4l69XT5LvLhS82PPW3poq4j3ojQQIb7pw1Qgy4pWyGN+CxYI1lN1RznS4AD/yU+G9Mr9PHZAbuLW9WuL7jVXGdzBGWWfRQJE91Tlg6Q6HIPYSuTmxT0kGBnHKI1YFaQ9pU4Sx6Xf+zVeJPCWfHrubly0iukc8aBPWCcNW1fQlSt2ZZkyHf6MyYibGQdIkGqs/ANOHtCXKbWE06CbPr1hly6oAEBnynst4LAZI8k2vLoSwzGMgWaAVtP6YeM0TUq/9Nx5qfMkRvcpLRavOZPgwyZEoUkjMHI17RrkeoE1yVEiawYUQPpsRU29bL0zeFOBDvuqNbvgCTGr9XcGpmbWguAZfAfFSoU0b+aWhwWw1S1YitXXuGT4XFALKtv3p7p0uwp3fIb8d1ztJwnL601ZMC15m0llM7YUn2xaxUy1vYZoe2RKfT9OqRQu3DzS1RyvFTHHbnXYpPf8T5CLjeqAs6RzxmmQHN2rCvdqFJpJtKdNIy+KOs/yIlKo7abrlM9oaVQ72czcpTmHcAV/KxV1Q799x3R4h8gXxX8YFuqQinlDI4AknWF7wSd2vSI9zUj9VzNTe2EL2WxRxHH+kmnGTwHXOu/HpBAJ08TZPHzinjacKiFnRgLo+R+T9YgYvD6TE9GpdcNzu7X3QPt1NXcLnLbgCkJBxpCkc8Z2OKRRasuQT5jHgDHrQb1zbnInUyLwbQP+6ZhNFfv22CtmLOZaWFz0Gdy1AaPu6BWQ8wJplX77j3eaW6WVyq8K+/YGx+3CjRyR7YHEItkbZVWfsPyvSS/wwpZblHLhu+xRow6NC4i/m4YdokCy2iGPO+2fRwpgqKKoiIAYdS0Pdnt90tWrV+y/8m+y83vSAmOZFG9Flaii0VPV5wR9KzfYU+MVXQbEDVzZtdNNe7atEVa6qM/ksXrrOFWoYa2liIrEZ1Q14XLEpu30JFW5JyJwof/76GjK0CVjh/b2Wz7cWwJSDXOiwlTa0627bWddY/dl9iYO6lK06W/l5auOOE1Ush9YZPcvgLBKp+r4wiJQu4H1R2btWSxdo0TawqyQNErdpz1uhjSHloTUtNkexg0cEwMBUn7WbBErK0BPCtVx9Q+PY1LWVK7iG9YQXZ0vX44QqfjS1q6InyAd/o7tmzXkwgRyhMbajBp/XAAS+tj2ragcLzG1wnXY6NoQD2qqyPUujWhjxIR/RY8esvN7kC1GT1L+4BDKvelvlmy6qVZKePXeYkR6zaqkUia0rL8frqCXpFNrB22+kO/oUB9z149mYmETsM9oiZ71yKCrQN/DLRO6H8PT9jDiv6EUWpNSaaYiZDjXv+jJ4XSUSBitVLdXURZYqnc7XZVYpTiucGJ+OcxK0XcfXnY3UV7WHdscVBNRUhqzhm/TBMJSacX//5UP9LqSfj8yzpnyzWOcMhV23EisopSW+pR5F1rwFHwFWYkJw1rCsagLcRsubx7u99U6F9zQY5/Kmla/HKhzf3b7sIua7NU/6Bj+2LUWBoInyREcGuGBlTogjlZ6Zjc45ZPdGvk4HioJLIZMWonlDwn/goZbrupwJQGgxAqAbPYu8l0XcnaNCtdEcL0JdQsxZi/6H+oIgCt5jbTKi7JNbyMforJvqUgodObcUS5daxYCS+vkznIGLUlA3ZIq+kAMruGlogecoVxYZbFbX0kJoppepqIQWDZy9T8RhzD9fsI//qY3VTZMkdky2fpML390LKbLYBUfb/O3cnUgBLBFVhBNU5QnFocOBEir3ZHRlkiuRaZ0miXXWaYfFZieWeaka6IYxHo5ByNcJa9VxWkiGnDXDVAKbUsqY5sgL7TlAASYS2nw5wIck4nk5LJlji1pgCN5EKaURMsoU9KqJd9Y1M/+1RlTCOQopysdEUCA75GONOGIkLikaaw2hBSVvxEZJjj0Oo1RUFAfM9FriXISoIhByRDmzi12JEiqN4evS3kcqMKPGYdE0r/sabtN8n4h/BSFgLXLV8jHOZo2QE4GiJ/+5lKnbEyYIuFsPbs2IJoNM6T3iRoBNfLTVwuQe2EULiw9NQ6oQfI0HIVbDPDXpB5SNhVX5DzjNJ2/TWVuwfLOogQ6URbA6BKc4SwnqNkCOJ4OopQQBlNT2HMxYSrO5EIlYEEtZVm8n63gshQyGyiTGqDlvAc9ZhE/OMP9uVrIPctATl+TkX9KMg6wSDNU8IGC7G3Kc0ggiw/sIchhEpMRHuIkNpMUEtw3LUmUzGKgVp/Ji+X6MTjn8x0BRmP+dV4gLEoS0nvsod0ekyQTCHQYTWB3GHPgCXqvpZEWkdJas1RPCuKj6G3pGta20MzWyHf5QlafMTqP/5gX+5p3B2ftT1hK8qtuC/cTzVT/Q5jnO9C62HdzpzCMDuyHHmB3O6WpNb1maKavwaIEas53y5XBhI7Z4zkTGr9Gmu+eY1Y/JMjXREFtSGdBWMAYcwv/UiP9fckf5QGLBc5SrlHFA1tj1Ai2GoCtRMx6gFogFDa72+bonqq2OqSeka2G/XMNwMSrf/kSldEsOOx0R6GoqxGxRYHIaliOc8epA5h0pJTcpMxzJSIke+3iL88gVq3tBd2xufJXMRkLwlAEWHPmc2f+h4amdTm7w0+IZKhoBaDsvF4xXSRq/Si6ncryMdaCsZIztMg2WPerCJRdR+TO6YI1LqttOGr4ItG11N7OUKC9L6OrbJMN2rAEbScEBbU3OmKxPXJLc9ZMLGnE4k+ZVlGQgoAlDOa/SNYqwxpAR8HEApt3b0QSAJPotbUw6rEimeZLASQ5CQ9skxqF7xSE4p/Mrsr0lC9wti6XcphjwNHl0YjHZA6SECAiR015oPr4SoOoTJwPohAbekdqRdVYivRNr92AwFio0CmrfUa+vPbutBuF8+8ku/C27OTb0u596hbdETqpFRJwSltZDOffoigzrwQtKZ8SXbR/DUitRM9pLz3KDoJcwBoT6JQE7Ko5f9l/Xi466cr+LaFOxtbyiRJFsYg7EfV9Wz9+STliX8MWWev4G6FgDasYwXiVYjUVgyo+p5+vxUtBfV1ytS+JdI3gjjjPH7Fow99Rh/TehyzseBVGy6i1I5BZmnnlNhjjn9catnLt2YnqOI4tKYnIrX48OBr4KA2on1rgDKbXc8c233gN3V+/ONpZua6axT3/FPaJ4V8CSYtJaMgewIOUhiKYWcMAdRz1G57/t1oBhTJOTEytWZgmTUDRatTODIiL66ZckNq/Qzw3TWO0FXU4pAwFMs4QsqExuUzYuqMTgSmJEs5bmeueqFtvUUrH5KpxUu0dSZwIkYVD75byrjZAWVRy6+Qg/iHO11xwjUK2RSgFHy9NmSbzKqx7ePlYq1mtShF0EZy58TQgVr0p1A78dMUYxBtcRyOKEOimpzpIV/joEY6xnl3Tb7GjbIVdEmkz1Q2TdsXmeMfrGFzzcaOwSn5YCnUoWAKtcPG2S9ud2JrCVNLTp+txcwcMnfw46J6oZZ7b90X7r0VSpoKQyFGk5i0JWAFs72tE+qjnHPbWBG7MmYrVGGnUIuNySmanSmxHitNITbUuQkLI8tD5k5ZuHgLxJb/MSHVIPNBxDYleeQIod0QJlT7FsdcusRI2p7OsraCeVJXLo6n/XKOUKc54TRqrc6pTrQH8e9wJHsGs9b7mDHRWOZKN4TGs3g3Kt+kX3+rq8StN13MpfDOquz5Xtf58mRD2wu0DRrdDn1ZzNm5aivYk+tTXR86taV3IFjYU058B/LotSXq9Q9AaJiLgLM8cIa/KQn/LvYZ5QFbl4UVOaE/F6Bw0XumKhNGBsjYCn4pVVsqsjQm/0KOKOt5B/JNFRqVtGlsKrVzl1VbSYgodtKFhNi2j1KtVBOyhlM5i3pnBL2Q3PvPZxX17BFEok0w5HYrMpxJTRIQYI0uP9dSlAWD0EzRPkiymFMdl067v61RyiA8lVoNIqPUAEl32FFhI7ZmraOCdTH+xhlrma8U72N3VbqCOmQSwlxEsmrMYpI1OWJKmqHZYpBnQ75DaJcuZwSTs2LaDAJZZ14r4buVoZyyqQ2V2lOaEqlJhxzbDBiZU6zMFMXdeBcr/6xvfFVc+srv37rw+2TTyoHmHtsuFToTy5NdzZyt8EvSIUR3onKbiroU2hZmYigyko52318o7frWUOU8ZYQQAJTllIiJTq2FLwkVgl8x3KtQ2s/M01vDvt0Upb17q2tRyZoM4Wp783EaFuIXWv/a6ZZ+bkgIAgkc3z9qtXGvIaoQqSjihCJhlCcCbSqdUG11i08IBQmuljWndtgb7gNJWpQ25yw4OhBSxiPrHYmWL3lHMpl2bTsSkKo29r3eypBEtXW2T/U/naxkOE+z6gWV592Or2pTytGsOl8qOkAIuQ/hwX/UVixmMce1XIPt81ot7OkM7b0ugvPp3T+ScuB9rodZq9VSnC+T/u5clVXKcrKcxkhSFLczqrXyn39h1WqZDZccLeafg+D5XwwKo/207TXx2lUVYzVef/6mh9a8tm8I+PxCY+9M+De/5od52cY+Cc2cbB3HmSWfSJOKbu7BkM/BwE9msZp5rd02rfbtNgTX2hY+/3ftzWYr7I1YzLiMc33lsw43wThX8ZhqF3sk3UBZXIYwv+7RiEFtoXiU8Qn9jCeb8OLy1Afm7ZyuwyZ0xS+54I9HDZCmr69HN7zhwe314/R3aMMD3pLRvwsaDr9uc+bQY5fK5erbYtNNawy8At3N4rmaf5uSfz3mKkuLCBdimwuV76q3wV30aV08T2L7V+IAqGPB1yO5JdjNcaoKbB6fFxvsSv2nH0XeZhqE58Yi+WDS2xJ7dy5JVBal6UOl+0UO3M+ErTB2fnCiS3jq7O2ILT8Hj2UrTV8Xi8V/OLzVmojzmTfMGLzEt1G8FbF3lw2quq+l6fTtcfMfpnZOLQh9Is5bXd+SX/f0D68hw1qZljYYg/+ura00r3v8GzO6i+eHajZFfKhWH97uv7oO8dNRE26TiSLjRmFtEesQsBWvff5BgR+G4cTSSu2nnir/pEdlFvgE1P8HjAaSEPrD+fDlAj8V9i8FCIIkvX+JC1XgC2HNt7WaMy/MbIECBQoUKFCgwE/A/wHxQ33oAuMqkgAAAABJRU5ErkJggg==;fontColor=#000000;" parent="1" vertex="1">
                    <mxGeometry x="425" y="170" width="250.98" height="56.13" as="geometry"/>
                </mxCell>
                <mxCell id="23" value="" style="shape=image;verticalLabelPosition=bottom;labelBackgroundColor=#ffffff;verticalAlign=top;aspect=fixed;imageAspect=0;image=data:image/jpeg,/9j/4AAQSkZJRgABAQAASABIAAD/4QCKRXhpZgAATU0AKgAAAAgAAwESAAMAAAABAAEAAAExAAIAAAAmAAAAModpAAQAAAABAAAAWAAAAABBZG9iZSBJbGx1c3RyYXRvciBDQyAyMDE1IChNYWNpbnRvc2gpAAADoAEAAwAAAAEAAQAAoAIABAAAAAEAAAGEoAMABAAAAAEAAAChAAAAAP/hC+JodHRwOi8vbnMuYWRvYmUuY29tL3hhcC8xLjAvADw/eHBhY2tldCBiZWdpbj0i77u/IiBpZD0iVzVNME1wQ2VoaUh6cmVTek5UY3prYzlkIj8+IDx4OnhtcG1ldGEgeG1sbnM6eD0iYWRvYmU6bnM6bWV0YS8iIHg6eG1wdGs9IlhNUCBDb3JlIDUuNC4wIj4gPHJkZjpSREYgeG1sbnM6cmRmPSJodHRwOi8vd3d3LnczLm9yZy8xOTk5LzAyLzIyLXJkZi1zeW50YXgtbnMjIj4gPHJkZjpEZXNjcmlwdGlvbiByZGY6YWJvdXQ9IiIgeG1sbnM6eG1wPSJodHRwOi8vbnMuYWRvYmUuY29tL3hhcC8xLjAvIiB4bWxuczp4bXBNTT0iaHR0cDovL25zLmFkb2JlLmNvbS94YXAvMS4wL21tLyIgeG1sbnM6c3RSZWY9Imh0dHA6Ly9ucy5hZG9iZS5jb20veGFwLzEuMC9zVHlwZS9SZXNvdXJjZVJlZiMiIHhtbG5zOmRjPSJodHRwOi8vcHVybC5vcmcvZGMvZWxlbWVudHMvMS4xLyIgeG1wOkNyZWF0b3JUb29sPSJBZG9iZSBJbGx1c3RyYXRvciBDQyAyMDE1IChNYWNpbnRvc2gpIiB4bXBNTTpEb2N1bWVudElEPSJ4bXAuZGlkOkVEQzEzNDQwMDU3NjExRTZBOTY2OTY3NTBDMzkwMTJBIiB4bXBNTTpJbnN0YW5jZUlEPSJ4bXAuaWlkOkVEQzEzNDNGMDU3NjExRTZBOTY2OTY3NTBDMzkwMTJBIiB4bXBNTTpPcmlnaW5hbERvY3VtZW50SUQ9InV1aWQ6MzY4OTgwYzctYjU1ZS00NDEyLTllOWItYjRiZTYzYmExYjNkIj4gPHhtcE1NOkRlcml2ZWRGcm9tIHN0UmVmOmluc3RhbmNlSUQ9InhtcC5paWQ6ODY4OWZhMWUtMjM2MS00NmQwLWIyNmMtNzZiZTMzMjFmNGYwIiBzdFJlZjpkb2N1bWVudElEPSJ4bXAuZGlkOjg2ODlmYTFlLTIzNjEtNDZkMC1iMjZjLTc2YmUzMzIxZjRmMCIvPiA8ZGM6dGl0bGU+IDxyZGY6QWx0PiA8cmRmOmxpIHhtbDpsYW5nPSJ4LWRlZmF1bHQiPlMyODVfc2FzMTAwS19oaXJlczwvcmRmOmxpPiA8L3JkZjpBbHQ+IDwvZGM6dGl0bGU+IDwvcmRmOkRlc2NyaXB0aW9uPiA8L3JkZjpSREY+IDwveDp4bXBtZXRhPiAgICAgICAgICAgICAgICAgICAgICAgICAgICAgICAgICAgICAgICAgICAgICAgICAgICAgICAgICAgICAgICAgICAgICAgICAgICAgICAgICAgICAgICAgICAgICAgICAgICAgICAgICAgICAgICAgICAgICAgICAgICAgICAgICAgICAgICAgICAgICAgICAgICAgICAgICAgICAgICAgICAgICAgICAgICAgICAgICAgICAgICAgICAgICAgICAgICAgICAgICAgICAgICAgICAgICAgICAgICAgICAgICAgICAgICAgICAgICAgICAgICAgICAgICAgICAgICAgICAgICAgICAgICAgICAgICAgICAgICAgICAgICAgICAgICAgICAgICAgICAgICAgICAgICAgICAgICAgICAgICAgICAgICAgICAgICAgICAgICAgICAgICAgICAgICAgICAgICAgICAgICAgICAgICAgICAgICAgICAgICAgICAgICAgICAgICAgICAgICAgICAgICAgICAgICAgICAgICAgICAgICAgICAgICAgICAgICAgICAgICAgICAgICAgICAgICAgICAgICAgICAgICAgICAgICAgICAgICAgICAgICAgICAgICAgICAgICAgICAgICAgICAgICAgICAgICAgICAgICAgICAgICAgICAgICAgICAgICAgICAgICAgICAgICAgICAgICAgICAgICAgICAgICAgICAgICAgICAgICAgICAgICAgICAgICAgICAgICAgICAgICAgICAgICAgICAgICAgICAgICAgICAgICAgICAgICAgICAgICAgICAgICAgICAgICAgICAgICAgICAgICAgICAgICAgICAgICAgICAgICAgICAgICAgICAgICAgICAgICAgICAgICAgICAgICAgICAgICAgICAgICAgICAgICAgICAgICAgICAgICAgICAgICAgICAgICAgICAgICAgICAgICAgICAgICAgICAgICAgICAgICAgICAgICAgICAgICAgICAgICAgICAgICAgICAgICAgICAgICAgICAgICAgICAgICAgICAgICAgICAgICAgICAgICAgICAgICAgICAgICAgICAgICAgICAgICAgICAgICAgICAgICAgICAgICAgICAgICAgICAgICAgICAgICAgICAgICAgICAgICAgICAgICAgICAgICAgICAgICAgICAgICAgICAgICAgICAgICAgICAgICAgICAgICAgICAgICAgICAgICAgICAgICAgICAgICAgICAgICAgICAgICAgICAgICAgICAgICAgICAgICAgICAgICAgICAgICAgICAgICAgICAgICAgICAgICAgICAgICAgICAgICAgICAgICAgICAgICAgICAgICAgICAgICAgICAgICAgICAgICAgICAgICAgICAgICAgICAgICAgICAgICAgICAgICAgICAgICAgICAgICAgICAgICAgICAgICAgICAgICAgICAgICAgICAgICAgICAgICAgICAgICAgICAgICAgICAgICAgICAgICAgICAgICAgICAgICAgICAgICAgICAgICAgICAgICAgICAgICAgICAgICAgICAgICAgICAgICAgICAgICAgICAgICAgICAgICAgICAgICAgICAgICAgICAgICAgICAgICAgICAgICAgICAgICAgICAgICAgICAgICAgICAgICAgICAgICAgICAgICAgICAgICAgICAgICAgICAgICAgICAgICAgICAgICAgICAgICAgICAgICAgICAgICAgICAgICAgICAgICAgICAgICAgICAgICAgICAgICAgICAgICAgICAgICAgICAgICAgICAgICAgICAgICAgICAgICAgICAgICAgICAgICAgICAgICAgICAgICAgICAgICAgICAgICAgICAgICAgICAgICAgICAgICAgICAgICAgICAgICAgICAgICAgICAgICAgICAgICAgICAgICAgICAgICAgICAgICAgICAgICAgICAgICAgICAgICAgICAgICAgICAgICAgICAgICAgICAgICAgICAgICAgICAgICAgICAgICAgICAgICAgICAgICAgICAgICAgICAgICAgICAgICAgICAgICAgICAgICAgICAgICAgICAgICAgICAgICAgICAgICAgICAgICAgICAgICAgICAgICAgICAgICAgICAgICAgICAgICAgICAgICAgICAgICAgICAgICAgICAgICAgICAgICAgICAgICAgICAgICAgICAgICAgICAgICAgICAgICAgICAgICAgICAgICAgICAgICAgICAgICAgICAgICAgICAgICAgICAgICAgICAgICAgICAgICAgICAgICAgICAgICAgICAgICAgICAgICAgICAgICAgICAgICAgICAgICAgICAgICAgICAgICAgICAgICAgICAgICAgICAgICAgICAgICAgICAgICAgICAgICAgICAgICAgICAgICAgICAgICAgICAgICAgICAgICAgICAgICAgICAgICAgICAgICAgICAgICAgICAgICAgICAgICAgICAgICAgICAgICAgICAgICAgICAgICAgICAgICAgICAgICAgICAgICAgICAgICAgICAgICAgICAgIDw/eHBhY2tldCBlbmQ9InciPz4A/+0AXlBob3Rvc2hvcCAzLjAAOEJJTQQEAAAAAAAmHAFaAAMbJUccAgAAAgACHAIFABJTMjg1X3NhczEwMEtfaGlyZXM4QklNBCUAAAAAABCakz+z5AtjgGvMguyc+1If/8AAEQgAoQGEAwERAAIRAQMRAf/EAB8AAAEFAQEBAQEBAAAAAAAAAAABAgMEBQYHCAkKC//EALUQAAIBAwMCBAMFBQQEAAABfQECAwAEEQUSITFBBhNRYQcicRQygZGhCCNCscEVUtHwJDNicoIJChYXGBkaJSYnKCkqNDU2Nzg5OkNERUZHSElKU1RVVldYWVpjZGVmZ2hpanN0dXZ3eHl6g4SFhoeIiYqSk5SVlpeYmZqio6Slpqeoqaqys7S1tre4ubrCw8TFxsfIycrS09TV1tfY2drh4uPk5ebn6Onq8fLz9PX29/j5+v/EAB8BAAMBAQEBAQEBAQEAAAAAAAABAgMEBQYHCAkKC//EALURAAIBAgQEAwQHBQQEAAECdwABAgMRBAUhMQYSQVEHYXETIjKBCBRCkaGxwQkjM1LwFWJy0QoWJDThJfEXGBkaJicoKSo1Njc4OTpDREVGR0hJSlNUVVZXWFlaY2RlZmdoaWpzdHV2d3h5eoKDhIWGh4iJipKTlJWWl5iZmqKjpKWmp6ipqrKztLW2t7i5usLDxMXGx8jJytLT1NXW19jZ2uLj5OXm5+jp6vLz9PX29/j5+v/bAEMAAQEBAQEBAQEBAQEBAQEBAQEBAQEBAQEBAQEBAQEBAQEBAQEBAQEBAQEBAQEBAQEBAQEBAQEBAQEBAQEBAQEBAf/bAEMBAQEBAQEBAQEBAQEBAQEBAQEBAQEBAQEBAQEBAQEBAQEBAQEBAQEBAQEBAQEBAQEBAQEBAQEBAQEBAQEBAQEBAf/dAAQAMf/aAAwDAQACEQMRAD8A/v4oAKACgDjPH/xG8A/CrwvqHjX4l+M/DHgLwlpYX7f4j8W63p+g6Rbu4Yw25vdSuLeGS7uSjR2llE0l3eTYhtYJpmVG9LKcmzbPsdRyzJctx2a5hXf7rB5fhq2LxE0vin7KjCclThdOpUly06cbyqTjFNnk53n2S8N5dWzfiDNsuyXLMPb22PzTF0MFhYN35Ye2xFSnCVWo040qUW6tWXuU4Tm1E/Gf44f8F7/2S/h3d3mkfCnw549+O2qWplRNT0q0i8DeCJpoWaMxJr/iiNvEUgMi/LdWngq8sJYSJra6nRkDf0hwx9FHxAzinTxGfY3KeFqE+VuhXqPNMzjGSvzPC4FrBrR6wqZlTqxl7k6cWmz+UeMPpqeGWRVKuF4awGdcZ4mm5pYjDU45NlEpxfK4rG5hTeOknJaVKWUVaMo+/TqzTR+cPjr/AIOH/wBovVJrlfhx8Dvg54NspdyQDxbd+MvH+p2kbRSpvS90zW/h/YTXUcrRTQyzaM9sPLaOaynSQFf2XKvogcHUIwec8UcR5lVjZz/s+nl2U0KjUouzpV8Nm1WMGlKMoxxPP7141ItI/BM5+nRx3iJ1FkPB/CuVUpXUP7Tq5rnWIpRcZK6q4fFZJQlUjJxlGU8K6futTpTUvd8Kv/8Agu/+3peXBmt9Q+EmlxlVX7JYfDlXt1K9XDanrep3W9+rA3RQY+REBIr6ml9Fbwppw5Z0eIK8rt+0q5xaevS1DDUKdl0/dp927Jnxtb6ZvjRVm5wr8MYaNkvZUch5oJrdp4jFYipd9b1LdkteX0Xwx/wcG/tgaZcr/wAJP8OfgH4psDKryxxeHPG+gamI90W6G2v7X4gXdjEpRZdrz6NdyLNKJC7xR/Z28bHfRH8O68H9SzjizA1eVqLljMsxdC/vWlOlPKKdWTu43UcTTTjGySlLnPey76cHilh6i/tHIeCsyoOScoxwOcYLEct43hTrU85rUYpxUrOeFqyU5KTbjHkl95fCD/g4c+DevT2en/G34HeOPh080iQTa/4H1zTPiHosJYgG9vNPv7fwdrdnaLyZINPh8Q3iKP3SXLEKv5VxF9EHiPCxqVeGOKMrzhRTlHCZpha2UYmVtqVOrSnmOGq1HspVZYOm/tSgkfs/C305+FMbOlQ4v4PzjIXOShPG5PjMPnuEhf8A5fVaFejlOLpUlvKFCGOqr7Kqv4f2k+A/7Vf7O/7TWkf2v8Dvi14R8eiO2W7vtF0+/Nl4s0eBvLAk1zwdqyWHinRo98qRLNqWk28EkuUhllKtt/mvirgPjDgnEfV+KMgzDKuabp0sTVpe1wGIkr+7hcxw7q4HEytFycaOInKMdZRjdH9acGeJPAviFhfrXB/E2V51y01VrYShW9lmeFg7LmxmVYlUMxwkbyUVPEYSEJSuoyla59B18ifcBQAUAFABQAUAFABQAUAFABQAUAFABQAUAFABQAUAFABQAUAFABQAUAFABQAUAFABQAUAFABQAUAFABQAUAFABQAUAf/Q/v4oAKAPxs/4KH/8Fd/hn+yO2rfC34Uw6T8Vf2g4ka3v9La4lm8EfDWdhgN43vtPuIJtQ15DzH4L0m8t9QhVTLr+o6EjWUGqf0d4QfR7zrxAWHz3PpYjIeEZNTpV1BRzPOorpllKtCcKOEfXMsRTlRk7RwtHFWqzofyn46fSh4f8MHieHOGoYbiTjiKcK2Hc5Syjh+b65vWoyjKvjU9Y5RhqsK0UnLG4jAp0YYr+RD4+/tMfHL9p7xhN42+N/wARdf8AHOreZMdNs765+z+HfDltMU3WHhbwzZCDQvDtiQkfmw6VY27Xcqm7v5by9lmuX/0J4T4J4X4Hy6OWcMZPhMrw9o+3qUoc+Mxk43tVx2Oqc2KxlXV8sq9Wapxfs6ShTjCEf8veNfEHjHxEzSWb8YZ7jc4xPNL6vSrVPZ4DAU52vQy7L6XJg8DRtFc0MNRpurJe1rOdaU5y8Jr6k+NCgAoAKACgDf8AC/ivxR4I1/TPFXgzxHrvhLxPotyt5o/iLw1q1/oet6XdJkLc6fqumz219ZzAEr5lvOj7WK5wxDcmOwGBzTCV8BmWDwuYYHEwdPE4PG4elisLXpveFbD1ozpVI3SfLOMldX6Xj25dmWY5PjcPmWU4/GZZmOEqKrhcdl+JrYPGYaotqlDE4epSrUppNrmhNOza2Z/SL+wT/wAF0tYtr/RfhZ+2pJHqWl3UkGm6R8etK06G2v8AS3YxQ2y/ErQNMiit9Q0/G5ZvFnh+zh1G12xPq+iap519rdr/ABl4rfRbw86WJz3w0To14RlWxHCmIrSnSrpc0pvJcXXk50q3WOAxdSVGd5LD4mhy0cNV/vnwW+mPiqdbCcOeLclXw9SUKGF40w1CNOvhm+WNNZ/gsPTVOvQ3U8zwNGNelaLxOExPPXxkP6g9H1jSPEOk6Zr2garp2uaFrVhaaro+taPfW2p6Tq2l38Ed1Y6lpmo2Us9nf2F7bSxXFpeWs0tvcwSRzQyPG6s38O4jD4jB4ivhMXQrYXFYarUoYnDYilOhiMPXozdOrRr0akY1KVWlUjKFSnOMZwnFxlFNNR/0TwuKwuOw2HxuCxNDGYPF0aWJwuLwtaniMNicPXhGpRr4evSlOlWo1qco1KVWnOUKkJRnFuLiaNYm4UAFABQAUAFABQAUAFABQAUAFABQAUAFABQAUAFABQAUAFABQAUAFABQAUAFABQAUAFABQAUAFABQAUAFABQB//R/v4oA/CP/grv/wAFPrj9mnTbj9nT4D6vCvx28TaQk/jDxbaSJNJ8IvDerW+6zWxKkxxfEDxBZyfa9L83dL4a0aS319rcXeqeH7hP6o+j34Hw41rQ4x4qw8nwrgsQ4ZdgKicY8QY3DztUdW9m8pwdSPs6/K+XG4lTwnO6dHFwP4z+lB9Iip4f4efAfBmKiuM8wwqnmuZ0pKUuF8vxML0lRspRjneOpS9rhuaSll+ElDGumquJwVSP8dd1dXV9dXN9fXNxeXt5cTXV3eXU0lxdXV1cSNNcXNzcTM8s9xPK7yzTSu8ksjs7szMTX+itOnClCFKlCFOnThGnTp04qEKcIJRhCEIpRjCMUoxjFJRSSSSVj/K6pUqVqlStWqTq1as5VKtWpKU6lSpOTlOpUnJuU5zk3KUpNylJttttsr1ZAUAFAH0V8C/2Sf2lP2lrloPgd8GvGvxAtorlbO513T9Pj07wjYXbfdtdT8a69NpXhHS7kjLiDUdbtpTGryBBGjuvx/FPiBwXwVBT4o4jyzKZyh7SGFrVnWzCrTW9ShlmFjXzCvBNW5qOGmuZxjdOUVL7vg7wx4/8QKjhwfwpm+d041FSqYyhQWHyujVe1PEZtjZ4bK8PUa1UK+MpSsnJJpSZ+pXgH/g39/bD8SW1te+NfGnwW+HMcwQzaZd+IvEPifxBaEsu9Zbbw74WufDshVC5H2fxTMHkQJlEYyL+FZt9LXw6wU50sty3iXOZRvy16eDweBwdTR2cZ4vHQxiu7X58BG0XfVpRl/RuS/Qj8U8fTp1s3zbhLIYztz4erj8fmOOpXaupQwGAngZNRv8ABmMk5JK6UuaPuUf/AAbnfEY2Bkm/ag8Ex6p5MrCzj+G+uy2BuBv8iI6k3iaG4EMhEfmzjSS8O5yltPsQS/Ly+mNkyq8seB8zdDmivayzrCxq8jtzS9gsDODlH3uWH1hKVlecLvl+xj9A/PvY80/ETKFiOSTVKOQ4yVHnV+SPt3mUaihL3eaf1e8bu1OdrHkPjb/g3x/az0SGW58FfEv4I+OEiBIsZ9W8W+FdYuD5cRVbaC+8I32jEmU3EZ+06/aAIkEgZjPLHa/Q5Z9LngDEyjDMsl4nyuUv+XsKGX47DQ1ldzlSx9LEfCoP3MLO7ck7csZT+Xzf6D3iZhIyqZTxBwhnEY/8uZ4nNMtxU/di0qcK2XVsLfm54v2mOgkowlrzyhD80fjp+wb+15+zhDeX/wAW/gT430Lw/Y+a1x4x0mzt/F/gqGGPewuLvxb4QuNb0HTUmijaeKHVb6wu/KWQyW8bxTIn7Xwt4q+HvGcqdLh/irLMVi6nKoZdiKk8vzOUpWThTy/MIYXF1nGTUZSoUqtPma5ZtSi5/wA/cZeDHihwFGrW4n4MzfB4GjzOpmuGpQzTKIQjdqdXM8rni8Fh1KKc4xxNehV5b3ppxmo/f/8AwSb/AOCnmsfsw+LdL+BXxr8QXepfs6+LtTgs9K1XV764nHwT1u+nl/4m+mGXzfJ8C6te3IfxZoybLXS53bxZpn2a5HiC18Q/kvj94IYfjjL6/FPDOEp0eMcvozqYihh6UIf6zYWnCP8As9fl5ebNcPSp2y/FPmnXgv7Pr88PqlTCftv0Z/pD4rw8zPD8G8XY6riOBM0xFOlhsTiq05/6o4utOX+1Yfn5+TJsTVqJ5nhI8tPDTvmeH5JrG08b/Z3FLFPFHPBJHNDNGksM0TrJFLFIoeOSORCUkjdCGR1JVlIZSQc1/m3KMoSlGcXGUW4yjJNSjJOzjJOzTTVmmrp6O1j/AFhjKM4xnCUZwnFSjOLUoyjJXjKMldOLTumnZrVXuiSkUFABQAUAfEX7T3/BST9hP9jRpbX9pP8Aaf8Ahb8NtdhiS4k8Fvq1z4s+I4tpCVju1+GfgWz8T/EGSzkZWWO7Tw01s7o6rKWRxQUoSlqk3+X+X9a7H4xfEj/g7J/4JqeELq7sPBfgv9qD4syROUtNW8N/Drwd4b8N3apPCjytc+PfiL4Z8S26SW7zTWofwk8jyQiC5jsxKsyhoqMnu0v67Wd/m18zyT/iL6/Yl/6Nn/an/wC/Pwk/+eLQP2Ev519x7L8PP+DsP/gmV4uuLW08W+F/2oPhTJJ9mS71HxX8MvCWu6HbSTcTvDP8PfiP4x125tbQ5LyHw5b3Mqcw2TufKUE6M+6f3/5K33v8D9df2aP+CpX/AAT4/a/vLHR/2ff2rvhR4z8U6o6Rab4E1PVrvwD8RtRld44/L074d/EWx8J+NtS2yzRQtJp+hXUIlkiQSZlj3Bm4SW8WvxX4af15M++6CQoAKACgAoAZLLFBFJNNIkMMKPLLLK6xxRRRqXkkkkYhURFBZ3YhVUEkgAmgD8s/2jP+C13/AATA/ZdvNQ0X4l/tcfDnVfFWmvJb3Xg74VnVvjH4it7+Jisul6lD8MtO8Uaf4f1GIo3n23ifUdEMBCrO0byRK4Wqc5bJ+r0/rtoflx42/wCDtz/gnPoFzNZ+EfhR+1l49eGfYmp2vgb4Z+HNCubcSTxtNbza78WYdeEhEcM0MN14btd8FwvmywXEUluoWqMnu0vx/C1vx+WlzgP+Ivr9iX/o2f8Aan/78/CT/wCeLQP2Ev519x6v4A/4OzP+Caniq4tbPxd4F/an+GMsmBdal4g+HPgbxB4ftiftBBjuPBXxO8Q+ILlFSKESN/wi8Tia5RI45Yo5rhAToyWzT/rtZW+TfyP1i/Zm/wCCuX/BOL9ru903RPgd+1j8MdY8Xas0UOn+AvF93qXwu8fX99Jw+naT4P8AibpvhLXPEN5DJuSQeG7PWLeQJ9otria0aK4cIcJR1adl13Xr/X6H6OUEBQAUAFABQB8dftOf8FBf2Kv2NIC37TP7Snwt+FOp/ZlvIfCWq69/bHxCvLJ0WRb3Tfhr4Xh1z4gapZlXjP2rT/DVzbgywgyhpollClGUtk3+X37ff+jPxY+J/wDwdff8Ey/BNzPZeCPD37S3xkkTcLbVPCHw08O+G/D0xWRATNcfErx14M8RW6PGXeIp4VuHLKqSxw7y6BoqMnu0v67Wd/m18zxb/iL6/Yl/6Nn/AGp/+/Pwk/8Ani0D9hL+dfcet+Af+Dsr/gmj4pmtrTxZ4J/an+GMr+Ut1qHiL4beB9e0O3eRLl3aG48EfE/xJrtzBAYYo5Hbw5BM8l3B5Vs8SXMtuCdGfdP7/wDJW+9/gfrP+zZ/wVo/4Jy/ta3em6P8D/2tfhRrnirV3hg03wJ4p1W7+GXxA1G9mBzYaT4I+Jdj4T8S65dxMrLKuhabqUXyiWOV4HimcIcJR3T9d1/lr/Wx+idBAUAFABQAUAFAH//S/tN/bW/ae0L9kL9nD4hfGzVktb3VdGsF0jwNoN05VPEvj/XN9n4X0dlSWGZ7Nbvfqutm2kW5g8PaZrF5AGktgjfeeGnA+K8Q+Mso4Zw7qUqGJqvEZpiqaTeCynC2qY7EpuMoqo6dqGG54uEsZXw1OVlO5+beLfiJg/C7gLPOLsSqdbE4SisLk+CqtqOYZ3jOall2Fai4zlSVW+Jxns37SGBw+KqwvKFpf57fjjxr4p+JHjHxP4/8b6zd+IvF/jLXdT8SeJNbvmVrrU9Y1e7lvb67kCKkUQknmbyreCOK2toRHb20UUEUcaf67ZZluBybLsDlOWYang8vy7C0MFgsLST9nQw2HpxpUqcb3k7Qirzm5TnK85ylNuUv8Os4zfMc/wA1zHO83xdXHZpmuMxGYZhjKzTqYjF4qrKtWqysoxjzTk+WEIxp042p04RhGEI8tXceaFAGnoui6v4j1fS/D/h/S9Q1zXdc1Cz0nRtG0mzuNQ1TVdU1C4jtLDTtOsLSOW6vb69upYre1tbeJ5p5pEiiRnZQ2OJxOHweHr4vF16OFwuFo1MRicTiKkKNDD0KMHUq1q1Wo1ClSp04ynUqTajCMXJtJNnRhMJisfisNgcDhq+MxuMr0sNhMJhqU6+JxOJrzjSo0KFGnGdSrWq1Jxp06cISnOclGKbaP6ov+Cff/BDzwz4bstC+Lf7Z2nweKPFNxFa6povwJS4Enhfw0xxcQP8AEa8spVHirWUIhMvheyuR4WtNs9prUniqO6eysP4R8XPpP43G1cVw/wCG9aeBwEJToYnilwtjsbvCayalUX+wYZrm5cdUj9eqXjUwywMoRnV/0g8EPofZfl9HB8T+LFCGY5lONPEYTg1VObLsvb9+Dz6rRnbMsXF8nNl1KX9m0rTp4t5jGpKnS/ov0TRNF8NaTp+geHNI0vQNC0m1isdK0XRNPtNK0nTLKBdsNnp+nWMNvZ2VrCvyxW9tBFEi8IigYr+OsTisTjcRWxeMxFfF4rEVJVa+JxNapXxFerLWVStWqylUqVJPWU5ylJ9Xp7394YTB4TL8NQwWAwuHwWDwtONHDYTCUKWGw2HowVoUqFCjCnSpU4rSMKcIxitElpzalYHQFABQA10SVHjkRZI5FZJI3UOkiOCro6sCrKykqysCCCQQQcU03FqUW000007NNappqzTT1TT+6wpRUk4ySlGScZRkk1JNWaaejTWjT0a0Z+P/AO2r/wAEcP2c/wBpiw1bxV8MNL0r4DfGeUT3kHiDwtpqW3gbxRft+88jxp4NsVjsYzeS+YZvEfhqDTdbS5uX1DVE8RiFNNl/ofw0+kbxjwTVw+AzyviOK+G4uFOeEx9dzzTA0VpzZZmVXmqv2cbKGCxsq2F5IKjQeD5pVo/y34t/RU4D8QaOJzLh3DYbgviySnVhjstw6p5PmNd+9yZtlNHkoxdWXNz4/L44fGKpUlXxKx/IsOP/AOCU/wAVPi34X0Txz+wv+0zY3Wj/ABy/Zjt9Pfwu9/P9pTxr8D9Rm/s/w1rfh/UQNmv6J4Wvki0KDWYCsSaLqfhXS7iNNXsdWiiXjzkXD+OxWV+KPBNWGI4X43nWWOVKPI8t4oox9tjcLi6O+ExWOpN4qeGneTxNDH14OWHq4ecn9GziTifLsJnHg34hUamE4x8PIUHl0q0/aLN+D68/YZfjMDXtbG4PLayhg4YuD5VhMTluHnGGJo4mEf1/r+eD+pAoA4D4p/FP4d/BH4d+MPi18WvGGh+APhv4A0O78R+MPGHiO7Wy0jRNIslHm3FxLh5Zp5pXitNP0+ziuNR1XUbi00zTLW71G7traUGk27Ldn+er/wAFR/8Ag5h/aO/aZ17xJ8K/2KNY8Tfs0/s8xSTaWPHOmSppHx6+JlsBLFPqd34ksZZbj4W6Hdlon03Q/Bd9B4qWKDz9Z8YPDqdx4b00OmFJKzl7z/Bf5/N29LH8vd/f32qX15qep3l3qOpajd3F/qGoX9xNd319fXcz3F3eXl3cPJcXV3dTyST3FxO7zTTO8kjs7M1BsVKACgAoAcrMjK6MyOjBkdSVZWU5VlYYKspAIIOQeRjigD+jH/gl/wD8HGH7Vn7Fuu+HPh3+0Rrvij9p/wDZjEtppt9o3irVG1n4ufDrSVKQfb/ht431u6F5qttplsF8jwJ4y1G60Ge1tYdL0LVPBolkv6DKdJS2tGX4P1te3ra/e5/o0/Af47fCj9pr4ReBPjt8EPGWmePfhd8R9Fj13wp4n0ppBDd23nzWd7ZXlrOkV7pWtaLqdre6Lr+ialBa6roet2F/pOp2trf2dzboHK04tp7o9coEFAH50f8ABSP/AIKcfs5/8Eyfg7H8SfjTqM+ueMPE39o2Hwo+Dvhy6tR43+Jeu2NsJZo7NJ/Nj0LwrpTzWg8T+NNRt5NL0KO8s7eODVNd1HRtD1QLhCU9tur7f1/W5/nB/wDBQX/gtD+3F/wUP1jXNN+IvxI1D4d/BK+uZBpP7Pnwvv77w58PLbTANkFv4sktpYdZ+JOoFAJ7q+8bXup2SX73E2haP4fspI9NgDqjTjHbV93v+lv633PyaoLCgAoAKACgD+iz/glV/wAHDv7T37EXiXwx8NP2hfEXiz9pH9lOS5s9L1DQPFGrSa58UPhbpTtFa/2v8MPF+tSzalf6folqsckXw18S6lL4ZurOzGl+G7zwTcXc+qqGU6Skrx0lv5Pyfb+r9D/SN+FfxS+H/wAbfhx4J+Lnwq8U6V42+HPxE8OaZ4r8HeKtFn8/TtZ0PVrdbm0uY9wSa3nQMbe+sLuKC/02+hudP1C2tr61uLdA5WmnZ7o7+gRzPjTxp4S+HPhHxL4+8e+I9H8IeCvBuh6n4l8V+KfEN/b6Xofh/QNGtJb7VNX1XULp47ezsbG0glnuJ5XVURCeSQKBpNuy3Z/n8/8ABVz/AIOavjV8dNb8U/BL9gTWta+B3wOtLy+0W++N9iJ9K+M/xTtLeZoP7R8L30sUN/8ACTwpfsgutNOlrafEa8tBaz6jrfhlbrU/Cqh0wopay959ui/z+Z/KLrGsav4h1TUNc1/VdS1zWtVu5r/VNY1i+udS1TUr64cyXF5qGoXss93eXc8jGSa4uJpZpXYs7sxJoNjNoAKACgAoA/fj/gmP/wAHBf7Xv7B+u+HfA/xO8Q+If2lv2YUubWx1X4beOtcm1Lxr4J0YkQy3vwk8dau93qWkS6bDsmtPBWuXV94IvoreTTbK18K3moyeJLQM50oy20fdfqv+G79Gpf6Q37Mv7THwZ/a++Cfgf9oH4CeL7Txp8NfHunfbdK1GJfs+oabfQObfV/DfiPS3JudE8TeH9QSbTNc0e7HnWd5A3ltNay29xOHI04uz3/r+v+GPeqBBQAUAFAH/0/0+/wCDhr473erfEj4Mfs4aZesNG8H+Grn4reKrWGQmC68TeKru/wDDvhmG9jLEC88P6Bo2sXVrtjXFp4zlLSS+YqQf3t9ELhWnh8m4k4zr019ZzHGwyHATkvep4HAU6WMxsqbsv3eLxeIw1OprL95lqso2bn/mp9ObjOric/4T4Cw9V/VMqy+pxLmVOErwqZhmVWtgcvhVj0q4HBYTFVKdl/DzaV27pR/nBr+yj+CgoAKAP6/v+CMn/BOPTPg94H0L9qz4w6Elz8X/AB/pCah8NtD1e0jdvhn4H1a3zaa0kE8Za28Z+MtNmFzLcnbd6H4au4NJT7Leal4gtq/zx+kj4yV+IszxXAXDuKcOHspxDo51isPUaWd5nh5/vMM5Rk1PLcurRcIw/h4rG05Yh+0p0MHM/wBSPon+A2H4WyfB+JXFOCjU4ozvCqvkGDxNKMnw/k+Kh+6xahO7p5tmuHn7SVS3tcHl9WGFXsquIx0D9+q/k0/tgKACgAoAKACgAoA8o8Z/CTw94r8efDf4pQx2+lfEL4ZX+oRaP4kjtElub7wf4ltH0zxj4I1YpJbz3mg6xaSQ6tZW7XIj0rxfonhzxAIrmPTrvTdS9/LeIMZgMqznIpOVfKM7pUZYnBSqNQpZjgqir5dmeHupxp4vDVFLD1ZqDdfLsVjMJzQdWFah81m3DGBzPOsg4jhGGGzzh6tXjhcwjSUqlbK8wpSw+a5PirSpzq4LF05RxVGDqcuGzTCYDHKFWNGrh6/q9eAfShQB/n1f8HTf/BSLxB8VPj7bf8E/fht4gurP4T/An+xPEHxoj0+4mgg8dfGbV9Ni1rS9C1NoiI9S0D4aeHNT0uS2tTIbc+ONZ13+0bN7/wAKaJdW4dNGFlzPd7eS/wCD+nmfyOUG59Qfsn/sYftNftv/ABHHwr/Zg+EviP4peK4ILe+1t9MFpp/hzwlpNxcC1j1rxl4s1i507w34W0p5t0UFzrOqWjX06NaabFe3pS2YFKSirtn9RnwM/wCDPn4xa5pVnqf7Rv7YPgD4c6nLAJrnwn8JPhxrfxSaF5oXMdpceLfE/iT4YWttdWcjQm8+x+G9as5XjuLWzvJImh1JgxddfZjfzbt/n/Xa9j6+b/gz1/ZvKsE/bF+NyuVOxm8B+A3VWx8pZRdIWUHBKh0JHAZcg0E+3l/IvvPhv9of/g0I/aJ8JaXf6z+zL+1B8NvjPPawS3UXg/4l+EdX+Dev3nlo7DTdI1vTtb+JPhvUdRnZUS3m1ufwdprNIRdXlmkQllClXT3i16O/9fj+bj/LP+0H+zd8dv2U/iXq/wAHv2ivhd4s+EvxH0RVmu/DfiuxWBruxlklhttZ0LVLWW70TxP4evZLe4TT/EfhvUtV0HUTBMbHUZxE+0Nk1JXTuv6+48RoGf1Zf8Gtv/BRbW/gb+05cfsOePtdnl+Df7TV3e3/AMPba+uP9B8E/HrStINxaTWO/AtrX4n+HtHPhTUoE3teeJ9M8CfZ1gB1J7oMa0LrmW639P8AgH+iNQcp5t8Y/i14F+Avwn+I/wAa/ibrCaB8PvhV4L8R+PfGGrOEd7XQfDGl3OragLSB5Ize6lcQ2xtdL06J/tOp6lPa6faK9zcxIwNJtpLdux/kR/8ABQH9uD4rf8FCf2ofiD+0j8Vr65STxBePo/gDwf8Aa5LjSfhp8MtKu7s+D/AWhRnbBFbaVa3M17q93bwW/wDb/inUtf8AE93CNR1u8dg7YxUVZfP1/D8vuPiygo/XD9gX/giV+3r/AMFD9Os/Gnwn+H2meAvg1eSzRw/G/wCMeoXvg/wBqZtbl7W7TwpDZ6XrXi3xs0M8N3aveeFfDWp6Fa6hZz6dqut6ZdDZQRKpGPW77L9drfn2vsf0S/Db/gzq8Px2NrcfF/8Abl1m81KRN17pPw2+CdlptjaSGEjyrXxD4n+Ieqz6iiT7X+0S+GNMaSFTF9lhdhMoZOv2h97PTb7/AIM8/wBnuS0nTTf2zPjNaXzIRbXN98OPBGoWkMmRh57K31bS5rlAMgxx6hasSQfNGMUC9vL+RfefnT+1F/waS/tdfDHQtV8S/syfHD4cftNR6ZbSXa+Cdc0O4+CHxE1YAKfsHh2HV/EnjPwDqN5GS4367498JQ3EcXmQgXEqWNBarxejTXnv/Xyv+sf5afiP8NviB8H/ABz4m+GXxU8GeJfh78QvBmpy6N4q8GeL9HvdB8RaDqUSRym11LS9QihurdpIJobq2kZDDd2dxbXtrJNazwzOGyaautmcTQB/dD/waOftr61r2h/HP9gjxhqkt7aeCNPk+P3wXjuZ2kfSvD+qa5pvh34r+GbXzW2w6ZD4n13wj4r0ywtgP+Jp4l8Z6hKpM7Ooc9eO0u+n9f1+Z/avQc5/CD/wdZf8FIvEWs/ETRP+Cb3ww1+fTvBng3TvDPxD/aSOnXBik8UeM9btrXxJ8OPh5qbRFZG0Pwr4duNJ8f6hp8ry2Wr654k8LXU1vHeeD7OVg6aMNOd762/J/wBX+6zP4xaDc+hv2ZP2Uf2hv2yPihp3wc/Zq+FniX4rePtQi+1y6ZoUVtBp2h6Us0NvNr3ivxHqlzYeHfCXh62nuIIJ9d8Sarpelpc3Ftafamu7q3t5QTkoq7dv66d/kf1KfAP/AIM//jr4j0uy1X9pT9rP4c/Cu9ngFxN4S+FPgTW/i5fW5lRDFYX/AIk8Qa78L9Lsb63Lt9ufTNN8S2CzQG3sry8hnXUIgxddfZi35t2/z/rtex9oL/wZ6/s3hVD/ALYvxuZwo3svgPwGis2PmKqbpyqk5IUu5A4LNgmgn28v5F958bftAf8ABn/8bPDul3+rfsz/ALWfgD4oXsEBuLbwb8WvAmr/AAqvpzCiGSwsvFnh3XfiTpV9fXJWVrJ9R0Xwzp6zSQ2l5eW0Ky6koUq6+1FrzTv/AJf13tY/lm/ac/ZO/aI/Y2+J2ofB/wDaW+FXib4U+O7FGuYNP12C3n0zXdM854E1zwn4l0u4v/Dfi7QJpopIYtb8N6rqmmNcRTWpuVuoJ4Ig2UlJXTv/AF17fM+d6Bn9K3/Bs/8A8FF9d/ZX/bH0f9lvxnrsp+An7XOvWHhJdNvbwrp/hH463UUWnfDnxZpcM8v2e3ufGd1FZ/DTX4bZIZtYOqeEry7nmXwlY2rBlVjeN+sfy6/1p38pf6UVByBQAUAFAH//1Oq/4K+eKJvFX/BRD9oq4edZrfRdU8GeF7JIzujtofDvw58I6ZcwKSA246nDqE84Odt1POqExqgX/Vf6POBjgPB/g6Ci4zxNDMsdUb0c5YzOcxrwk+lvYSpRhteEYt+825f4vfSjzGWZeOnHc3NShhMTlOXUlF3jTjgMhyzD1ILRO/1iFec072qTmovlSPzVr9pPwAKAPv3/AIJkfs02X7U/7Yvwx8AeILNb7wL4dlu/iT8Q7SQbob3wl4Ma2ujpFymx99n4j8QXOgeGb8ZiZbHWriSKVZkSvybxu41q8CeHWd5thKjpZpjI08lyeotJU8wzJTp/WIO65auCwkMXjqLtJOrhoKUZRcuX9s+j14f0fEjxU4eyTHUlWybAyq5/ntKWsK2WZS6dX6rUjZ81LH42eCy+srwao4ucoyUoxUv7+lVVUKoCqoCqqgBVUDAAAwAAMAADAHAxX+TDd9Xq3q2+p/tokkkkrJaJLZLsttvT7haAP5+/+Cgn/BbXTPgD43174K/s0eHPDPxG8feGLm50nxr4/wDFEt/eeBfCuv2sz22oeGtH0jR77SrzxTrukyrJDqt82s2GjaNqkP8AZzQa7PFqVvYf1t4R/Rlr8WZZheJeNcZjsmynHQhiMtynAxpU80x+EqRU6WNxGIxNPEU8Dha6alQpfVquJxNCXtlLCQdGdX+IvG/6XeH4JzfG8JeH2Ay/Ps7y6pUw2b53mM61XJstxtOTp18vwuFws8PVzLGYaSlHE1njKGEwmJh7Bxxs1iIUPzk+E/8AwX5/az8NeLrC8+LHhn4bfEzwRJNBHreiaboMvg3xDFZiT99ceHtd06+nsrbUAhyE1nRtYsplTyRFZu/2tP2PP/om8AY3L6tPIMbnWSZmoylhsVWxccywcqlvdhi8LVpRqzo364fE4epFvmbqKKpy/BuGvpseJmX5pQq8S5fkHEOTynCOLwdDBTynHRpc3vzwONoValKnXtssVhMVRmlyctJy9pH+r74CfHT4dftJ/Cfwf8Zfhbq/9r+EPGOnLeW4mWOLVNH1CI+Rq3h3XrOOWdbDXtB1BJ9N1S1WaeEXEBmsrm8sJrW9uP4I4r4WzjgvP8x4bz3D/V8xy6s6c+VuVDE0Ze9h8ZhKjjB1cJiqTjWoVHGMuSXLUhSqxqU4/wClvBXGWRcf8M5XxXw5ivrWV5rQVWnzqMcRha8XyYnAY2lFyVHG4KvGdDEU1KcOeHPSqVaEqVar7DXzp9SFABQAUAFABQB/iz/tCfFjVfjz8efjT8btcmubjVvi78VfiB8Sr+S7cvcCfxt4q1XxEYX5IRbcaiLeOFMRQRRJDEqxIiqHelZJdlY8foGf63v/AASB/Yq8AfsOfsHfAr4deF9Cs7Pxx408DeFvih8avEv2JbfWvFvxQ8baDY65rjatcsq3M9n4VW9i8HeGreYRCy8P6JZBrdL6e/lnDinJyk+ydl5L8Py+4/TuggKACgD8xP8Agq7/AME2fhj/AMFKf2XfF/wx17R9IsfjJ4a0jVvEPwB+Jb21pDrPg74g2tjNNpek3OsNBJdjwN4uu47fRfGuj72tbjT5o9YhhXXdE0W9tAuE3GSfTrr3/wAv66H+Szr+g614V17W/C/iPTLzRfEPhvV9S0HXtG1GF7bUNJ1rR7ybT9U0y+t3AeC8sL63ntbqFwHimieNgCpFB2nR/C/4heIfhH8S/h38VvCNy1n4s+GPjrwl8QvDF2sjxNa+IfBev6f4k0W5WWMiSNoNS022lEkZDoV3IQwBoBq6a76H+0j4A8Z6R8RvAngr4heH5PN0Hx54S8OeM9El3K/m6R4o0ey1vTZN6/K++yvoG3L8rZyOCKDz3pp2/rz/AD+8/mh/4OwP2kNQ+FX7APgX4FaDqMljqv7Tfxi0vSdfhjcxtf8Aw2+Ftn/wnPiG2VlIkGfHB+GKzKCI5bN7u3m3JMUYNqKvJvsvx/ry+7U/zkqDqP3C/wCCBv8AwTd0T/gop+2na2HxQ02fUf2efgHo9p8UvjFp4W4jtfGMh1JLDwL8L7m/tyrWMHjXW4rq91oI0VzfeC/C/i6x0660/U57PUrQM6s+WOm70Xl5/wBfof6kuj6PpHh7SNL8P6BpenaHoOh6dY6PomiaPY22maRo+kaZbRWWm6Xpem2UUNnp+nafZwQ2ljY2kMVtaW0UUEESRRoihxmjQAUAFAH8of8AwdP/APBP/wAD/FT9k9f26PCXh3TtL+Mv7Ouq+F9K8f67YWUEOoeO/g14w1+w8IR6brckKpcarfeBfF2u+H9Y8P3lw0x0jw9e+MrYo1vdQyWAbUZNS5Xs9vX/AIJ/nh0HUfvV/wAG0PjDVPDX/BYT9nPRbB2W0+IXhP49eD9bAZFEml2XwN8f+PokYNFIXUa14H0iTbG8DhkVzKUR4Jwzq/A/Jr87fr5/jeP+odQcZ/jeft7fFzUvjx+21+1l8X9Tvft0nj39oX4s65p8qypPDb+Hn8a6xbeFtMtZo/lmsdG8NW2k6RYS5d3srKBpJZZC8rh3RVoxXkv66/n958lUFH+q7/wQd/Yn8Afsd/8ABOz4Daho/h/Tofin+0L8PfBvx0+MHjA2NvH4h1zVPiDosXizwt4Y1G+CtdHSvh54Y1+x8M6ZpYuGsLfUItd1m3givvEGqS3AcdSXNN9k7L5ff/wfLVH7N0GYUAFAH5//APBST/gnn8G/+Ckf7Nnij4IfE7S9PtPFVrZ6lrHwb+Jv2RZNf+FfxFNkU0vX9OuowLqbQr+eG1sPGnhwSCz8SaD5kDiDVLTRtT0sKhJwaa26ruj/ACOPiJ4C8U/Cv4geOfhh440yTRfGvw38Y+JvAXjDR5WV5dJ8U+D9avfD3iDTJHXKtJYatp13auynazREjIIoO5O6T76mLoGvax4V17RPE/h3ULnSPEHhzV9N17Q9Vs3Ed3pmsaPeQ6hpmoWrkEJc2V7bwXMDkELLEpIOMUAf7P37OvxWtvjv+z78CvjhZxLBafGX4OfDH4rWsCo0aw23xD8E6H4ugiWNnkaNY4tYVAjO7KF2l2ILUHA1Ztdm19x7HQIKACgD/9Xa/wCCtfhyXwx/wUO/aVspIZIUv/EnhjxHAXZnWeLxR8PvCXiAzRSFVDxtNqMyFU3LBKktruLwPX+rv0f8ZHHeEHBVVSUnSwWOwcrJJxlgc3zDCcsld2fLRi7uzlFqdrSR/ix9JzASy7xz8QKMoSgq+YZdj4XbanHMckyzG88ZWScXOvJWV1CUZU2+aDPzlr9jPwYKAP6Tf+Dczwna3nj79qXxy8cRvfDvhD4X+E7eUsROlr401rxjrF5HGvlFTFJL4CsWmYzxlXigAimDs8H8YfTHzCpTyngXK05eyxmY55mE4/ZdTLcNl2Hptu9+ZRzaqo+67qUruNkpf359A7LKdXOvEfOWo+2wGV8O5ZCTb51TzbF5riqqiuVpxlLJaLk3OLTjBKM+ZuH9Vdfwcf6SHjH7R/ifxJ4J/Z4+PPjPwasz+MPCPwY+KPifwolsN1w/iTQfA+u6roSwLskzM2qWlqIhsfLlRsbO2vpODcDgsz4w4Uy3MnFZdmHEmRYHHuekFgsXmmFoYpzeloqhUnza7X2Pk+Pcxx+UcC8aZtlSm80yvhPiPMctVP8AiPH4LJ8ZicGoaS994ilS5fdlr0ex/m5zzz3U81zczS3FxcSyT3FxPI80888zmSWaaWQtJLLLIzPJI7M7uxZiWJNf7NRjGEYwhGMIQiowhFKMYxirRjGKsoxikkklZLRW0P8AA2c51JzqVJyqVJylOc5ycpznJtynOUm5SlJtuUm2222273Iqok/UL/gmH/wUL1z9iL4qNpfiifUNW/Z++ImoWcHxH8PQeddy+HL7EdnafEXw5ZLub+2NHt9kWt2Nqhk8S6DCLCSOXUdO0Cew/DvHDwhwvidkKr4GFHD8W5PSqTybGS5accZS1qVMmxtV2X1fESvLC1ajtgsXL2qlGjWxcKv9FfR48csZ4QcSPD5jOvieCM9r0oZ/gYc9SWArWVKln2ApJTf1rCwtHGUaUObMMFD2LUq9DBTof3PeHvEGh+LNB0XxR4Y1bT9f8OeI9K0/XNA1zSbqG+0vWNG1W1ivtM1PTr23eSC7sb6znhubW4hdo5oZUkRirA1/lxjMJisvxeJwGOw9bCY3BYithcXhcRTlSr4fE4epKlXoVqU7Sp1aVSEoVISXNGUWnZo/2MwOOweZ4LCZjl+KoY3AY/DUMZgsZhqkK2GxWExNKNbD4ihWg3CrRrUpwqU6kHyzhJSVk0bFc51BQAUAFABQB/iQ+JPD+p+E/EWv+Fdbga11nw1rWq+H9XtmSWNrfU9Gvp9Ov4GjnjhnRobq2ljKTRRSqVxJGjhkoPQWuvf+vL8vuMWgD/W5/wCCPv7bPgD9uf8AYO+BvxF8L61bXPjnwR4J8MfCz41+GXu1m1rwp8UPBGg2Gia0dTtyzzx6f4tjs4fGnhi6d5xeeH9dskmuP7UtdUtbUOKpFxk10bunto/v223++5+n9BAUAFABQB/G1+2B/wAGqPiP9pL9qX9oD9oLwf8Atd+EvhzoHxr+K/jT4pW3gi9+DOp67ceHLvxzrV14j1iwbVrL4haJa3qDWdQ1CaB4tLtAkEsULLI8bzOHRGslFJxbsrXufOH/ABBzfEn/AKPw8D/+GC17/wCevQP28f5H95/aN+zP8KNT+A37OH7P3wN1vxMvjTWfgx8EfhT8KNX8YrZy6cvizU/h14E0Hwhf+Jl0+e7v57BdeutHl1QWc19ey2ouvIku7l0aZw527tva7bt2ufyw/wDB0D+xb+2r+2X8Sf2RLH9mr9n7x/8AGXwd8MfA/wAWLvW9R8H21ldW2i+JfHeveCoZ7K8F5f2RjnudL8EaXPGYxJvjTDbNi7w2oyjFO7Sba/D/AIdn8sX/AA5G/wCCsH/RjHxv/wDBXov/AMvaDb2kP5kf2g/8Gxn7Cnxx/Yz/AGcv2ktT/aO+EXiP4OfFL4pfGzRLCDQfFsVtb63qfgD4f+BdMuPDeriG0a6i/spvEXjzxvZ2Up1CV3u7TU0NnaLEk96GFaSk1Z3SX9fkj+migxCgAoAKAPzC/wCC0mo+HdL/AOCVP7dlz4olgh02X9n7xbp1s9xMIIz4i1drLSfCESuZYQ08/i290SG1h3k3FzJFAIpzL5EoXT+OPqf5IlB2n7ff8G4f/KZz9jb/ALuG/wDWVPjlQZ1f4cvl/wClI/1OqDjP8W79o/whf/D39of48+AdVSWPVPA/xn+KPhDUo50jjnS/8NeONc0W8SZIZbiFJVuLKRZEinnjVwRHLIgDsHfHZei/I8YoGf6rf/BBz9tr4f8A7Yv/AATt+BOnaNr+ny/FT9nj4f8Ag34E/GLwg15E3iDQ9V+H2hweFvCvii+siUuG0j4h+F9DsPEumavHB/Zs+pyeINDguJdR8O6vBahx1I8sn2eq+f3f8Dz3P2doMwoAKACgD+Q39v3/AINe9f8A2xP2w/jv+054L/au8J/CvQfjP4stPGK+BNQ+EGr+JrzRtYufDuiWnieafXLb4iaNBfNrfiez1jX1ZNMtfITVFtSrtC0sobxrKMUnFu3W/wDw39d9z49/4g5viT/0fh4H/wDDBa9/89egr28f5H95/Yl+xP8As+61+yl+yb8AP2bfEHjGz+IGq/BP4aeHvh1N4x0/RH8OWevQeG4GsbC7g0WS+1OSwVNPS1t2jl1C8ld4GmluJHlZqDCT5pN7Xf8AXb+u+59RUEhQAUAf/9b9B/8Ag4P+DNz4Z/aF+FfxusrOVdF+KXw8fwtql0kTPB/wl3w71GQSNcXC5SGW98L+IvD0NnbyhGnTRb6WBphDcLb/AOhP0ReJIY3hDPeGKlSLxORZwsdQg5JS/s7OKK5VCG8lSx2Dxkqk43UXiaUZKHNB1f8AL36cXClTL+OeG+L6VKSwnEeRPLsRUUbw/tTIq8lJzmtIyq5dj8BClCVnNYStKDmoTVL+fiv63P4hCgD+hf8A4N4PiPaaJ8e/jp8Lrq6FvJ8QfhjonijT4nldEvb/AOHXiKS1NtEnmrFNdppvjvUryNWgkmW0tL6SKWGNLhLj+Q/pf5NUxXCnC2eQg5xyjPMTga0lFN0qWc4NT55O3NGm62VUaTakoupUpKSk3Bx/uX6C+fUsHxrxlw7Uqcks84ewmY0Iyk0q1fIcdKn7OMeZRlVWHznEVYpwlJUqVZxlCKmp/wBcNf59n+nZDc21veW89pdwQ3VpdQy211a3MST29zbzo0U0E8MqtFNDNG7RyxSKySIzI6lSQ1QnOnOFSnOVOpTlGcJwk4zhOD5ozhKNpRlGSTjJO6aurWIqU4VYTpVYQqU6kJU6lOpFThUhNOM4ThJOMoSi3GUZJqSbTTTsfwz/APBU3/gnfrP7FvxSfxZ4Ls7vUP2ePiVq97P4F1TEtwfBWsz+ff3Xw2125KkrNp8CXE/hS9uZHl1vw7btvuLrVdH1x1/1E8CvF/DeJWRLAZlUp0eMMlw9OOa0LqH9pYaPLSp51hYbONaThDH0oK2Fxk1aNOhiMKpf47fSO8C8X4S8RvM8ppVa/AvEGKqzybE+9P8AsjFz569TIMZN3anQgpzy2tOXNjMDDWdTE4XGM/KWv3o/msKAP6Bv+CNf/BSs/BnxBpH7Knxy18RfCPxbqptvhh4s1SVRbfDXxdrF0z/2Dqt7LIotPA/irUZiI7mQNbeGvEV39uumtNE1PV9R03+SfpHeCv8ArJhMRx5wvhHLiHAUOfPMvoRvPOsvw8FH63QpxX7zNMBRjrBWnjsHT9lT58VQw9LEf279FL6QH+qeOwvhtxjjVHhfM8S4cO5niZpU+H80xVS/1LE1pu1LJ8yrztGpL93l+Pq+2qcmDxGKxGH/AK8q/wA9T/UMKACgAoAKAP8ALK/4ODP2INb/AGNf+Ci/xX1ez0mWD4TftM6vrX7QHwt1aG2mj0tp/GWrT33xJ8JRSZltINQ8H+PrvVkGkW85ex8K6x4Ov3trK31mztkDspS5oLutH/Xofh5QaH1P+yJ+2p+0v+wt8Urf4v8A7MXxP1j4c+K2gi0/XbSCO21Twt400JJ1uJPDvjbwpqkV1ofiXR5HDPDHf2b3mlXLDU9CvdK1eC21CAJlFSVmr/p/X4/I/sj/AGRP+Duz4U6/Z6Z4d/bc/Z88S/D3xBthtrv4mfASWPxl4Hvbh3cy6hqXw98U6npvi/wlp8EQjVo9H8S/Eq+uZt0kdrbxERRBhKg/su/k9/y1/wDJe/ZH9C/wA/4K3/8ABNn9pz7FB8If2xvgvqOs6j5a2fhPxj4kPws8a3U0mAbaz8G/FG18HeJdQnjY7ZF07TLtP4lZo2R2DNwmt4v8/wAtP69T9FIpYp4o5oZEmhmRJYpYnWSKWKRQ8ckcikq6OpDI6kqykEEgg0ED6ACgAoAKACgAoAKACgAoAZLLFBFJNNIkMMKPLLLK6xxRRRqXkkkkYhURFBZ3YhVUEkgAmgD4C/aG/wCCqP8AwTw/ZasNRufjN+138FdF1TTFk+0eDfDfi+x+IfxEMiJuSFfh78PW8T+MkaY4jimuNFhtPMYCW5RFd0ClCT2T9bW/r+u5/DP/AMFvf+C+1z/wUV8Nw/s0fs5+GPFHw6/ZcsPENl4g8Xav4ve2svHXxp1nw/c/afDqavouk319p/hzwFouppFr+meHrjUtW1LWNbs9C1/WP7GvNGs9HtQ6KdLl95u8vy/LX+tdz+Z+g2P2+/4Nw/8AlM5+xt/3cN/6yp8cqDOr/Dl8v/Skf6nVBxn+ZP8A8HLP7Eeufsv/APBQvxf8ZtJ0a7j+EX7Xf2j4ueGdaSBzp1v8SCLW2+MPhea8EUUTawviiWLx08AB2aR480pBLPNBdOgddKV4pdY6fLo/0P536DU+iv2X/wBrH9oT9jP4q6V8Zv2bPid4h+GHjzTFW2nvNHmjm0nxFpH2iG6uPDni/wAO30V1ofizw1eTW8Et1oevaff2Dzw293HFFe2ttc24KUVJWav+np/X6n9jn7Hv/B3b4Pv7PS/DH7c37PWseH9XRLe2ufiv+z1LDreg30xSOJ7zWPhb4x1Ww1fQII2R7q9utB8c+LJZzMY7Hw5bCBI7gMJUOsZfJr9df67Xuf0R/s+f8Fi/+CZf7TdvZf8ACr/2xfg9BrF95McXhL4k66/wc8ZPeybA+nWnhn4rW3g7U9Zu4ZZDCz+H4dYsp2RprK7u7UpOwZOnNbp/LX+rn6UWt1bX1tb3tlcQXdndwQ3Vpd2s0dxbXVtcRrLBcW88TNFNBNE6SwzRs0ckbK6MVILBBPQAUAFABQAUAFABQB//1/66P+Cof7Ksn7Wf7JHjnwjoWni9+I/gYr8TPhkscW+7u/E3hizvftnh2224keTxZ4dutZ8P2tuZEtjrF5pF7c5FjGyfsHgbx4uAPEHK8wxdb2WTZpfJM7blanTwWOqU/Z4yfRLL8ZTw2LqTs5/VqeIpws6rUvwv6RXhtLxN8MM4yvBUPbZ9k7XEPDyjG9WrmGXUqvtcBTtaUpZngauKwNKDlGn9arYWtU5lQij+BhlZWKsCrKSrKwIZWBwQQcEEHIIIyDwcV/rAnfVap6prqf4qNNNpppp2ae6fZ7ar0+4SgR9CfsqfH/Xf2Xf2hPhb8dNAilu5fAfiWC81fSonEb674V1GGbR/F2gq7ukSS6x4a1DVLC1nl3R2l5NbXpRmtlFfI8ecJ4XjnhHPeFsW4045rgp08PXkrrC4+jKOJy/FtJSk44bG0aFWcI2dSnGdO6U24/ceG3G2N8OuOOHOMsFGVWeS5hCrisNF8rxmW14TwuaYJNtRUsVl9fE0ac580aVWdOtytwSP9EX4f+PPCnxR8EeFPiL4F1i18QeD/Gug6b4k8O6xZuHhvtK1W2juraQgEtDcIsnk3dpMEubK7jntLqKK5gljT/H7N8qx+RZpj8nzTDVMJmOWYutgsZh6itKlXoTcJrtKDa5qdSLcKlOUakJShKMpf7qZJnWWcR5PlufZNiqeNyrN8Fh8fgMVSd4VsNiaaqU5W3hNKXLVpStUpVYzpVEpwnGPX15x6h5b8avg18Pf2gfhh4v+EHxS0OLxB4J8a6W+m6rZMVjuraRXS40/V9JumjlbT9b0XUIbXVdG1GNHksdRtLa4COEZH93hriTN+Ec8y/iHIsVLCZnlldVqFRXcJxacK2HxFNOPtsLiaUp0MTRk0qtGpODceZSPnOLeFMj444dzThbiPBxx2UZvh3h8TSdo1Kck1UoYrDVWpOhjMJXhTxOErxTlRr04TSlZxP4GP22f2OfiJ+xT8adW+F/jOOfU/D155+r/AA48dpaG30vx14Sa4MdvqEAVporTWdPYpY+JNEM8lxpOohWBn0y+0rUL/wD1g8M/EbJ/EvhrD55lsoUMZS5MPnOVOpz18rzDkUp0Z3UZVMNVV6uCxSioYijdPlr0sRRof4qeLvhVnvhHxbieHc2jPEYGrz4rIc5VL2eHznLHPlhXhaU40sXQdqOPwbnKeGr2ac8PWw9ev8gV+hn5aFAH9cH/AARm/wCCljfFnR9K/ZM+OuvmX4oeGtN8j4R+MdWuy9z8RPDGlWrvJ4R1a5uHMlx4z8L6fbmbTbx5JJvEvh23m+0quraFcXmvf5+fSQ8Ff7AxOI4/4WwijkeNrc3EGXYenaGT46vUSWYUIQ0jluOrTUa1NRjHBYyUeRvD4qFPCf6d/RQ+kA+JsLhvDPjLHOXEWX4fk4YzXFVLzz3LsNTblleJqTalPNsuoU3OhVcpzzDAQn7RLE4KdXG/0MV/IR/coUAFABQB8Ef8FGf+CeHwR/4KVfs8at8CPjDHPomoWt2fEXwy+J2jWNpd+Kvhd43gt5ILXX9IjumhTUtKvYHbTfFXhie7s7PxJo0slv8AbNL1a20bXNKCoycHdfNdz/MV/wCCgv8AwS2/a3/4Ju+Pbjw38ePAd3d+Ab/UpbTwL8cfCVrf6r8KPHduTM9qlh4hNsg0LxG9vBJNeeDPEq6Z4lsxFLcx2N5pLWeq3QdkZxmtN+q6r/P+vM/OigoKACgD6f8AgP8Atrftd/swTwS/s+ftK/Gr4R2sEvnHRPBXxE8TaT4Vu33+YV1TwgmoP4W1iIyfvDBqujXkBk/eNGXw1AnGMt0n8v1/r8z9yv2b/wDg6s/4KN/CWXT9P+Nmm/CX9qHw5A8K303izwrb/Dbx9LaRNGPI0/xX8M4NF8M207Qq8ZvtZ+HviO4eRxcTmeQOJQzdGL2bj6ar+vn95/TP+xL/AMHMn/BPn9qq/wBG8GfFTUda/ZD+JuqsltHp3xivdNufhbe6jI6hLTSfjNpq2mh2cXltuN98Q9F+HVs8yPbW7TzPbC4DGVKS295eW/3f5X7+Uf6HrC/sdUsbPU9MvLXUdN1G1t7/AE/ULC4hu7G+sbuFLi0vLO7t3kt7q1uoJI57e4gd4ZoXSSN2RlagyLVABQBh+JfE/hvwXoGr+K/GPiHQ/CfhbQLGfU9e8S+JdWsNC0DRNNtl33OoavrGqXFrp2m2Nunzz3d5cwW8S8ySKBlQD+fj9q//AIOcP+Can7Od9qfhn4d+I/Gn7VfjPT5JrR4fghpFm3w/tdRgmlRo734oeLr7QdA1TTnSLzIdZ+Htt8QLCfz7URM6NcSWoaxpTe/urz3+7/O3fyl+Bvxz/wCDvL9rjxX9vsf2fv2bvgh8HNOufNit9U8eap4t+Mfiyxh48m5sbm0m+GfheK+yu511LwrrdkqO0P2eR0S4oNFQit5N/K39fh+al+TXxW/4L1/8FbPi+bqPXf2zfiB4VsbhfLjsPhTo3gj4RCyg84zLFa6r8OPC/hrxEWR2K/a7vWrrUHhxBLeSQIsdBoqcP5V89b/f/wAN9yPzm+Jn7Rn7QnxpaeT4x/Hf4y/Fl7qRZbl/iZ8UPG/jxriVJvtKSTt4p1zVjNItwBOryEssw80EON1BSSWyS9EeNUDCgAoA/b7/AINw/wDlM5+xt/3cN/6yp8cqDOr/AA5fL/0pH+p1QcZ8b/t2/sM/A3/goV+z14o/Z5+O2kSzaPqrLq/hLxdpSwR+Lfht43sYLiLRPG/hG9nR0g1PTjcz295ZTq+na7o91qGhatBPp2oXCUFRk4O6+a7n+Yr/AMFHf+CRf7XH/BNXxrqVp8VvCF54x+DFxqZtvA/7RHgzS7y6+G/imzuZmTS4Nblja8l+H/i+dR5V34N8Uzw3f22K6Ph7UPE+ipa69eh1wqRnto+z3/W/9XtdI/LmgsKACgD6M+CH7X37VP7NVzBc/AD9ov40/B5bed7j+zvh98SPFfhrQrqSWTzZl1Lw7p2qQ6Dq0E8oEtxa6ppt5bXEirJNE7KCoJxjLdJ/L9f6/M/cH9nD/g6Z/wCClvwcey0/4t3Pwr/ag8NwbYrhfiH4NtPBvjRbRAoji07xd8L18K2Iul2BW1DxJ4U8VXM6PK1yZrhkuIgzdGD2vH0/r/K34S/pb/Yv/wCDoT9gP9pG60Twj8c4vEf7H/xF1WS3tM/Ee7tvEvwfm1CeNMw23xe0ay0+LR7WOUTiXVfiF4U8B6NBEkLSamZZjCgYyoyW3vLy3+7/ACd9elj+j3Rdb0bxJo+l+IfDuraZr+ga5p9pq2i65ot/a6ro+saXqEEd1Yalpep2Ms9lqGn3ttLFcWl5aTS21zBJHNDI8bKzBkadABQAUAFAH//Q/v4oA/jR/wCC1P7Btz8Avi7P+0Z8OdFkX4N/GjWri68Q29hbKlj4A+KV75t5qumvHCgS10XxpsuvEWhv/qYdVHiDSFjs7W10aK6/0f8Ao0+KsOLOHocHZziU+I+GsNCng5VZt1c2yKly0qFZOTvUxOW3hg8UvilQ+p4hurOeJnS/yj+lt4MVOCeKJ8eZDhJLhTi3F1KmOhRppUck4jq81XE4dxirU8Jm1qmPwb92EMT9ewqUKdPCRn+Gtf1Cfx2FAH7xf8EdP+ClKfs8+JrH9mj4162sHwO8bazIfBfifUpSLb4VeNNYuC7x3lw7lbTwN4s1CU/2rI6/ZPD2vXCeIZms9NvfEt6n8rfSL8F3xfgqvGvDOGc+KMswy/tLA0Y3nn2W4eFk6cFd1M0y+kv9nS/eYzCQeDj7StSwVM/s76K3j+uBswo+H3F2LUOD83xcv7JzCvK1PhvNsVO7jVm7qnk+Z15f7TJp0sDjaix0/ZYetj6p/YqrKyhlIZWAZWUgqykZBBGQQRggg4I5Ga/zoato9GtGn0P9Uk00mndPVNbNd1vv6/eLQB8gfttfsc/Dv9tf4Lat8L/GccGmeIbPz9X+HHjtLMXOqeBfFqwGO31CAK8Mt3o2oqEsfEmiGeO31bTirgw6nY6VqFh+ieGXiNnHhnxLh88y1zr4Ory4fOcqdTkoZpl7ledKd1KNPE0W3VwWJUXOhWTT5qFXEUa/5b4u+FWReLnCWJ4dzaMMPjqXPishzlUlUxOTZnycsK8LShOrhK6So4/B88YYqhZ3hiKOGr0P4G/jZ8F/iH+z38UPF/wg+KWhy6B408F6pJp2pWxErWd7AQJtP1rRrqSKD+0dB1uxkt9U0bUkiRL3T7qCby4nZ4l/1e4Z4lyji/I8v4iyLFRxeW5lQjWoz91VKUtY1sNiacXL2OLwtVSoYmi23TrQlG8klI/xV4u4TzzgfiLNOFuI8HLBZtlOJlh8RTfM6VaHxUMXhKkoQ9vgsZRlDEYSuopVqFSE7RblCPlVe8fNmroWuaz4Y1rSPEnh3U77RNf0DU7HWdE1jTLmWz1HStV0y5jvNP1CxuoWSW2u7O6hiuLeeJ1eKWNXUggVhisLhsbhsRg8ZQpYnCYujVw2Jw9aEalGvh68HTrUatOV4zp1KcpQnGStKMmnfU6cHjMXl2LwuPwOIrYTG4LEUcXhMVh6kqVfDYnD1I1aFejUi1KnVpVIRnCcXeMopq+h/c3/AMEt/wDgoHpv7bPwibSvGFzYWPx/+GlnY2XxH0m3jSzi8S6fITa6X8RNFs0IhFnrTReT4gsrICDQ/EXmwrbWOl6poKXX+XXjn4SVvDPiFV8uhVq8JZ3Uq1cmxE3KpLBVl79fJ8VUd5e1wylzYSpUbnisHaTqVa9DFuH+xf0c/G+h4u8LvDZpUo0eNuH6VGjn2GhFUo5hQf7vDZ7hKStFUsW48mOo0VyYPH3ioUcNicFGf6kV+Fn9GBQAUAFAHOeLvB/hH4geGta8F+PPC3hzxt4O8SWMumeIvCfi7RNM8SeGte02baZtP1rQtZtbzS9UsZSqmW0vrWeB9qlo2wKATtqtH5H86/7XH/Brt/wTv/aEutS8TfBoeNv2SfG18zzFfhncw+JvhfNeSlfMuLz4Y+LZpzYRKihbfTPA3izwNpMJ3ObGVmZqDWNaS39710a/rzX3H88v7Qf/AAab/wDBQH4bvf3/AMCfH/wT/aR0OHf/AGfp9vrl38I/iDfbRuHneH/HQk8CWXmcLH/xdS5+fcJPKQB2DVVovdOP4/Pv+Hpc/FD47f8ABM7/AIKA/s0Le3Pxs/ZB+PHg3RtOUtfeLI/AOseKPAdsFDE+Z8QPB0PiHwRuCoz7Rr+7y1MmNgL0GinF7SX32/4PX+rnw3QUFABQB+8n/BIH/guZ8dv+CcXjLQPhz8QtV8R/F39jrV9Vgg8VfDDUL6TVNe+G1pdMYrnxV8F7rU7pY9DurF5P7S1LwK1zbeE/FYS7hKaDrt+nim0DKpTUldaS9N/J/wCZ/pvfDb4j+BvjB8P/AAZ8VPhl4m0zxn8PfiF4b0fxf4M8VaNK8um694d16yi1DS9StTKkU8a3FrPG0ltdQ295aTeZa3ttb3cM0EQcrTTs90fN37dv7cfwP/4J7fs8eKf2ifjrqs8OiaRJHo3hPwnpPky+KviP451C3uptB8DeE7Sd0jm1XUxZ3VzdXlw0en6Ho1lqevarNDp2m3Mig4xc3Zff2Xc/zAv+Ci//AAVi/a1/4KU+Or3VvjD4yvPDfwnstTe78B/s/eD9SvrL4Y+DraL5LG4u7ANA/jTxXHFue68Z+KIrvVftF1ew6LFoGiSwaJah1xhGO2/fq/8ALf8AqzPzLoLOo8G+B/GnxF8QWXhP4feEPFHjrxVqbMuneGfBvh/VvE/iDUGXG5bLRtEtL7UbtlyNwgtpCNwz1G0C6W/+X9f13P1W+En/AAQU/wCCtnxltbPUPD/7GXxA8KabdxGc3fxb1nwR8G7q0ixx9s8O/E3xP4W8WRSszJGLRdAe7Utve3WGKeWIIdWC639P6/r5o/RX4b/8GlP/AAUV8UPb3Hj/AOJ37L/wv09pEW6t7jxp478Y+JIUMyq8kGm+HPh23h+4224lmRH8XWzSSeRC3lCSWa1CHWitk3+H43v+Hz1sfpD8Fv8Agzy+HFhcaffftD/tneNPFVv5kUmp+Gvg38MtE8CuqKR5traeM/GniD4g+f5mCFu5fA1myA4+yMwDUEuv2j97/wCG/P7j7V/bf/4JLfsHf8E//wDglH+3NrH7PHwR0qz+IcnwB1jT734v+OLy58d/FO7tptX0ZbqG08Ua6ZV8L2moKI11LTPBFh4Z0jUfJgN9YTvDG6BMZylON3pfbp/wfmf5u1B1H7ff8G4f/KZz9jb/ALuG/wDWVPjlQZ1f4cvl/wClI/1OqDjCgDK1zQtE8T6Nqfh3xLo2leIfD+t2Nzpms6Frmn2mraNq+m3kTQXen6npl/FPZX9jdQu8NzaXcMtvPEzRyxshZaAP57P2uv8Ag2P/AOCb37SN1qnib4Y6D4s/ZN8dag0tybr4LXtpL8ObjUJGl/e3/wAKfE0Wo6Dp1giyIqaR8Pb/AOH1mpt4WUIWuRdBrGrNb+8vPf7/APO/bzj/ADr/ALQv/Bpb+3Z8O5bu++AHxU+C/wC0bocMky2ljd3l/wDBnx9dorfuJG0DxTNrvge282PmRG+KDmGX92vnR/v1DVV4vdNfj/X3fdY/FD48f8Es/wDgon+zOLqf4zfsdfHXw1pFk0iXninSPBd7498D2rRsV23Hj34dnxZ4MhaXa724k11DdxJJNbCWGN3oNFOL2kvy/wCD/Wu58EMrIzI6sjoxV0YFWVlOGVlOCrKQQQRkHg45oKG0AFAH7Rf8En/+C1X7Rn/BM3xtpvh1tS1j4r/sra1qsLePPgTrOpNPBo0N1eRNqXi/4SXl/KyeDfGkEDXM0lhBLb+FPGDv9m8U2LXsWkeIdADOdNT8pdH/AJ9z/UE+CXxo+Gf7RXwl8AfHH4OeKtP8bfDH4neGrDxV4P8AEumlxDf6XfoQ0NzbTLHd6Zq+mXcdzpWu6JqMFtquha3Y6ho2rWlnqVjdW0QcjTTae6dj1KgQUAFAH//R/v4oA89+K/ws8DfGz4deLfhV8StCtvEngnxtpFxouvaVc5XzLeba8N1aXC/vbHU9Ou44NQ0rUbcpdadqNra31s6TwI1evkGe5pwznGX59kuKng8zyzEQxOExENeWcbqVOpB+7VoVqcp0a9Gd4VqNSdOacJOMvD4l4cyfi7Isz4bz/B08flGb4WeExuGqac0J2cKlKa96jiKFSMK+Gr03GpQr06danJThFx/gl/bz/Ym8efsP/GrUPh/r4u9a8B66brWfhV4/eBUtfF/hYTKPJumhRLe18U+H2mh03xRpQWJoLvyNTtIW0TV9Iu7r/Vzwq8TMq8T+GqObYT2eGzXC+zw2fZSpN1Mvx/Lfmp8zcqmBxajKtga95KVPnoVJLE4bEQh/iz40eEWdeD/FtfJMb7XF5LjPaYvhvO3BKnmmW86XLUcUoU8ywLnHD5jhvdcKvJiKUHg8VhKk/iOv00/IQoA/q4/4Iwf8FLv+E10/Q/2Pvjz4g3eMdItVsPgf421m8y/irRLOAeT8NtYu7l9z+I9Et4mHhC7klY65o0a+HykWqaTpx8Q/wV9JLwV/s2rivEThTCWy7EVHW4oyzD09MBias/ezrDQgv9zxU5f8KNNRj9VxL+t+/h69b6p/pT9E36QP9rUMH4WcaY6+a4WmqPB+b4qrrmWEpQ9zIMVVqPXH4OnFrK6spv65hIrAtRxOFw/1/wDpAr+ND+9woA/KL/gqn/wT20n9sz4SzeLfBOnW1t+0P8MtKu7vwJqCbLd/GuiwGa+v/htq8zARSR6i7z3XhW7uSg0jxG6Rm6s9K1nXHf8Ae/Afxdr+G+fxy/M6058H53iKdPNaLvNZbipctKjnWHj8SdFKNPH04f7xg03yVa+Gw0YfzV9JHwOw3ivwzLM8ow9Onx1w9hqtXJq6tB5thIc1avkGKm7RaxDc6mW1ammFx7SdWlhsVi3L+Gq5trizuJ7S7gmtbu1mltrq1uYnguLa4gdopoJ4ZVWWGaGRGjlikVXjdWR1DAhf9Q4ThUhCpTnGpTnGM4ThJShOEknGcJRbjKMk04yTaaaabvc/x3qU50pzpVYTp1Kc5U6lOpFwnTnBuM4ThJKUZxknGUZJOLTTSasQ1RB9E/sqftI+N/2Tvjr4F+N3gWaV7zwxqKxa/oX2hrey8X+D7944PE3hLUztkj+y6xp29Le4lguDpWqw6brdrF9v0y0kT4/jzgzLOPuFs14YzSMVTx1FywmK5Oepl2Y0k5YLMKGsZe0w1aznCM4e3w8q2FqN0a9SMvuvDbj7N/DPjLJuL8mnJ1curqONwftHTo5pldZqGYZZiNJx9niqF1TnKFT6tiYYfGU4+3w9KUP9DP4XfEnwn8Yvh14J+KfgTUP7T8IeP/DWk+KvD94wRJ207WLOK7igvYY5JhaalZmRrLU7FpHksNQgurOUmWB9v+QmeZLmHDucZnkWa0fYZjlONxGAxdNXcVWw9R05SpSai6lGpZVKFVJRq0ZwqR92UT/c3h3P8s4qyHKOI8mr/WcrzvL8LmWBqtKM3QxVKNWMKsIymqWIpOTpYii5SlRrwqUpe9CSj3leUeyFABQAUAFABQAUAfEH7R//AATY/YO/a2t9RX9oD9lb4PeO9W1RJ47rxknhW18K/EYfaf8AWvb/ABK8GHw74+tZC2Jd1v4jT96okOXG6gpTktm1+P4baef6M/li/b+/4NMbW00jXfiJ/wAE7/ibqt7qdol5qR/Z5+NOqWEx1NAslwNL+HvxXhttOjs7tAqWWkaJ8Q9NngvHlE2rfEewELG4DaNbpJf9vL/I/iw8e+AfG3wt8Z+Jvh18SPCmv+BvHngzWL3w/wCK/CHinS7zRfEPh7WtOlMN7pmraXfxQ3dndQSLho5Yl3KUkj3RujsHQmmrrZnJUAf35/8ABpD+2DrfxA+Bfx2/Y18X6rPfy/AfXNI+JfwqF5c+dLbfD/4lXep2/i3w3YQn5oNK8M+OdNTX13F9178SLmNSkUMcahzV42al30fqv+B5/cfhZ/wcr/twa1+1H/wUI8XfBjR9bnn+EH7IT3vwi8MaPFP/AMS+f4lr9kl+M3ia4tlkkQawPFVtH4CkcvhdL8Baa6wW1xc3yyhpSjaKfWWvy6L9T+d+g1P6Mf8Aghl/wQ2v/wDgpLqOrfHf476nr/gf9krwLr7+HsaCTp3i/wCM/jGwS0u9R8MeFtSurWWDR/CWhwXUKeLvGEMd1dG+nj8M+HYhqq61q/hYMqlTk0Su357H+iH+zn+yf+zb+yP4Ktvh7+zZ8FvAHwe8LQQQQXFv4Q0OC11bW2twRFeeK/FF0bvxT4x1UBtr6z4r1nWNWlUKJb1wqKocrk5O7bf9dO3yPoSgQUAFAH5Y/wDBbj/lFB+3R/2Q/Vf/AE8aNQXT+OPqf5KtB2n7ff8ABuH/AMpnP2Nv+7hv/WVPjlQZ1f4cvl/6Uj/U6oOMKACgAoAKACgD44/aN/4J7fsRftb290n7RX7L/wAHfibqV3v8zxZqfhGx0n4gwiQfvVsfiT4aGi+P9NSYhGuI9P8AEtslw8UEkyu9vAyBSnJbNr8fw208/wBGfy7/ALef/Bpd4MvtD1vx3/wT2+KGsaF4ns4J76H4DfGnVYtW8Oa6Yo5ZTpfgz4ox29tq3hy+kWNLbS7Hx1Z+ItPv7+4U6r408OWEb3ChtGt0kvmv+H/y9HY/iV+Kfws+InwR+InjD4S/FrwfrngD4keANcu/DnjDwf4jtGstX0TV7Jh5tvcRZeKaCaJ4rvT9Qs5bjTtV064tNT0y6u9Ou7a5lDoTTV1szgKAP7mv+DRL9sTXda0r9of9hbxRqdzqGneDtPg/aH+EltPKZjomjalrWl+Dfixo9uZWL22kHxFrPgDXdPsLYLaxaxr/AIq1B0W61WWScOevHaXy/r/hvusf2vUHOFABQB//0v7+KACgD5Y/bD/ZL+HH7ZfwW174RfEGFLO4l3ar4J8YwWiXWr+BPGNvbzRaZ4i01DLbm5iUTSWesaU1zBBrOkXF3YSTW0kkF5b/AHfh1x/nPhvxLheIMok6kI2oZnl06jp4fNcunNSr4Ou1GfJJ8qqYbEckpYbERp1VGcVOnP8AOPFPwyyHxX4SxvC+eQVKcr4nKM1hTVTFZNmtOE44fH4dOVP2kUpypYrDOrCGLws6tFyhKUKkP4E/j98BviP+zT8V/Fnwc+KmjnSPFvhO+MEjxefJpWt6bNmTS/Efh69nt7ZtS0DW7Tbeabe+RC5Rmtru3tb+3urS3/1i4T4qybjXIMBxHkOJ+sZfj6XNFS5ViMLXjpXweMpxlNUcXhql6danzSV7TpynSnCcv8UeNuC8/wDD/iXM+FOJMI8LmeWVuSTjzyw2Mw8tcNj8DVnCm6+CxlK1XD1eVSs3Tqxp1oVKcPGq+jPlC5p2o6ho+oWGraTf3ml6rpd5a6jpmp6ddT2OoadqFlPHc2V/YXttJFc2l5Z3MUVxa3VvLHPbzxxyxSI6qy51qNHE0auHxFKnXoV6dSjXoVqcatGtRqxcKtKrSmnCpTqQlKFSnNOM4txkmm0a0K9fC16OKwtarhsThqtOvh8RQqTo16FejNVKVajVpuNSlVpVIxnTqQlGcJxUotSSZ/bp/wAEpP8Ago5YftkfDs/Dv4kajaWn7R3w50iB/EsJW3s0+I/hm3eCxh+IOj2kPlxJfJPLbWnjPTbOCK10/Vrq11GyhttN1u1sNN/zI8evBut4c5x/bGTUalTg3OcRJYKXv1Hk2Nmp1ZZRiKkrydJxjOpltepKVSth4VKNWUq2GnVr/wCvX0a/Hqh4rZF/YWf16VLj3IcLB5hFqnSWfZfTcKMc8wtKKjFVlOVOlm2HpRVOhialKvSjDD4ynRw/68V/PR/UIUAfxF/8Fs/2bNO+BH7Yeo+MfDNitj4Q/aA0ZvidBbwIqWln41fULjTviDZwKFU773V47bxdc8uiz+LXiiKRRJBF/px9GbjStxV4dUcuxtV1cx4SxKyOc5NupVy1UYVsoqSd2rUsO55fDZuGXqUrylzS/wAhfpdcAUODPFOvmuX0VRyvjfCviGEIJRpUs2dedDPKMFverio08zqbxU8zcItRiox/Huv6IP5ZCgD+sT/g30/aVu/FHw6+J37LviK/a4u/hndRfET4dxzzmSVfBvim/e08XaTaw7QIbDQfF0thq4Yu7S3nju6UbEgRW/gb6XHBdPA5xknHODpKFPO6byfOHCNovMsBSVTL8RUld81XFZdGrh7WSjTyqm9XKR/pf9CDxAq5jkXEPh1j67nU4fqRz3IozneSyrMq7p5phacfsUMFmkqOKveTlVzmovdUIqX9Glfxwf3ifBf/AAU5/a58W/sI/sN/HP8Aau8DeBtK+JPib4SwfD26sfBut3Op2Wk6pbeLfiv4F8A6xcX13o8U2oW8Gi6L4p1DXTNChjQ6YDdMloJ3UKhHmkot2vfX5H8hH/EYV+0j/wBGd/BD/wALzx7/APIlBv7CP87+4/SP/gk9/wAHGfxS/wCChX7aXgb9lf4h/AD4Y/DDTPHXhf4garpXiLwv4q8Uatq82t+CvCmo+L49Lis9YihtHiudK0bV553UvNHHaFkTbvdAidJQi2m38j+sigxCgAoAKACgD+GD/g7w/ZK8GeH9Z/Zu/bR8K6NY6R4r8falrvwR+Ll7aQRQSeLLzQtBtfEHwu1q+EKxm61jTNB0zxh4dvdTuvtF1c6HYeE9LEsVnoVrDQdFBvWPTf8Ar/h/vufxTUHQf1A/8Gl3iHUtK/4KW/ELRrWX/iXeKP2SviVY6pbSPP5Tf2b8R/g9rNleRwxzRwG+tp7FraG4uIrjybK/1KGJEe6MqBlWXuejX9f1f9Y/ze/Ffx9qfxX+KXxK+KWtNI+sfEnx/wCMfH2rPKcytqfjHxFqPiK/aQ7nzI11qMpc73y2TubOaDVaJLt/Xn+f3nAUAf7Ev/BOb4EaB+zR+wn+yh8FfD2mrpcXg/4HeAH1uH7M9pLd+NfEeh2virx/rF1bSxQTQ3mueN9b8QaxdxTxJNFPevFIoZCFDhm7yk/P+u35fcfadBIUAFABQB+HX/Bxd8cdA+Cv/BJv9oyz1OaD+3fjO/gv4JeCrCeRUGpa14t8VabqmtqmT5nmaX4A8O+MteiEccu+40qGGTyYpnuIg0pK815a/d939d9Ef5ZlB2H7ff8ABuH/AMpnP2Nv+7hv/WVPjlQZ1f4cvl/6Uj/R1/4KBftIeK/2Qf2Nf2gP2mPBPhbQfG3iX4NeCf8AhMrHwt4mvtS03RNYgtNZ0m21S3vL3SILjUIGj0i6v7m0MMWx72G2juZIbZ5p4g5Yrmkltd/12/rvsfxs/wDEYV+0j/0Z38EP/C88e/8AyJQb+wj/ADv7j7t/4Jnf8HLXxe/bk/bg+BX7Kvj/APZ0+FHw28LfF2+8cabeeMtA8WeMNU1jS77w98MfGvjLQLaysdRtVsp5Nb8Q+HNL0GTz2VYodTkmUh4lNBM6KjFtSbt0tb+v67n9f1BgFABQAUAFAH8Xv/B3d+yR4Ml+GP7Pf7bmg6NFY+P9O+IMP7PPxC1HT7TEnibwr4j8M+K/G3gXUNfkiiK7vB2p+D/EWj2GozPFJJH4zttLnkuI7bSIrUN6EtXHpa6/r/geeh/CTQdJ/RL/AMGuXiG50X/grJ4F02BbwxeLfgx8avD14bVVaBba28NweKlbUSeUszd+GbVY2XLHUGsUPyuxUMq3wfNH+mnQcgUAFAH/0/7+KACgAoA/Mb/gpv8A8E+PD/7b/wAJze+HIbDR/j/8PbC7uvhl4mmMVrDrdvue6vPh54mumXDaDrknmPpV7M6nw14gli1SKRdOudfsdV/bvBHxdxfhjn/ssZKrieEs3q04Z3go805YWekKecYGmr2xeGjZV6cV/tuEjKhKLrU8JVofzz9IXwOwPi/wz7XAQo4XjbI6NWpw9mE+WnHGQu6lXIswqu18FjJXeGqzl/wn46UcTFqhPG0cR/C74n8M+IfBfiLXPCPizR9Q8PeJ/DOq32h6/oWq20lnqWkavplzJaX+n31tKA8Nza3MUkUqN0ZSQSCC3+pGBxuEzLB4XMMBiaOMwONoUsVhMVh5xqUMRh68FUpVqU4txlCpCUZRaez6H+OOY5fjspx+MyvM8JXwOY5fia2DxuDxNOVLEYXFYepKlWoVqckpQqU6kZRkmt1pdGFXUcZ6Z8Hfi/8AED4DfErwj8Wvhfr9z4c8beC9Vh1XR9QgLNDLszHd6ZqdruSPUdF1ezefTdZ0u4JttR026ubScGOZq8TiPh7KeK8lzDh/PMJDGZZmVCVDEUZWUo3s6dehOzdHE4eoo18NXhadGtCFSD5oo+h4V4pzvgviDLOJuHcbUwGb5TiYYnC14XcJW0q4fEU7qOIwmKpOeHxeGqXp4jD1KlKa5ZM/0Zfg78Q7b4u/CL4WfFeyspNNs/if8OPA/wAQ7TTpX8yWwtvGvhnTPEkFlLJhfMktYtSSB32ruZC2BnFf458R5PPh7iHPcgq1VWqZHnOaZPUrRVo1Z5bja+CnVitbKpKg5pX0TtrY/wB4eFc9p8UcL8N8TUaMsPS4iyHJ89pUJO8qFPN8vw2PhRk9LypxxCg3bVxvpc9Hrxj3j+bn/g4x0Oxn+HH7MPiV0/4mel+NviJodtIAv/HjruheG7+9Rjjec3HhzT2QBtoxISCSDX9m/Q5xVWOc8cYJP9xXyzJ8VNa/xcJisZSpNdPgxlZPS+21j+Bvp4YOjPIPDzMGv9ow2b57g6ctP4ONwWArVk9L/HgKDWtt9Nbn8ptf3mf5sBQB+nH/AAR7+J1z8Mv+CgPwRK3Qt9K+IE3iP4Y67E03kLe23izw/frotqXPysV8ZWXhi8jhdX+0S2scCbJnili/EfpE5JDO/CXie8HOvlMcHneFko8zpzy/GUniZ2s2r5dVx1NyTjyRqObcoxlA/oX6LPENTh7xu4QtU5MNnc8fw9jIufIq1PM8DWWEp32bWa0cuqxg1LnlTUFyzlGcP7wK/wArT/Zs+IP+ClfwMu/2k/2Av2vfgnpdl/aOv+N/gL8QYvCVh9nF0bzxvoWiXHijwNbJDtdjJN4v0TRUjkiR54HKz2ytPGgoKg7Si/P+u/8AXbc/x5qDuPqD9ir9prxD+xt+1f8AAT9p3wzBPfX3wc+I2h+KdQ0i2mW2n8Q+FWeTSvHHhZLl8pbf8JX4M1HX/DbXDAiBNUaUhtmKBSXNFrv/AF5/l95/sEfBT4y/Df8AaH+E3w/+N3wh8TWPjH4a/E7wzpvizwh4h098xXul6lFu8m5hJ86w1XTblLjS9b0i7WLUNG1iyv8ASdRgt7+yuIIg4Wmm0907HqFAgoAKACgD+Ir/AIO//wBpTwpdaf8Asp/sjaPqdrf+MNN1jxN8fPHmnQtFJP4d0qXS5fAvw6F267nin8Qte/EC5FmxiljtNIs7yaJob+xlYOigvifTb+v+G+6x/D5QdB/W1/waI/B+fxX+1v8AtU/Fq6spbjQPAf7Ndt8M7u7jZ4GsNZ+MfxB0DVtNe1v7fy77TdTuNE+Eviu3tL3T7q1uo7V9RWOT59yBjXdoped/u/Pc/k11bS7/AEPVdT0TVbdrTVNH1C80vUrRnjka1v8AT7mS0vLdpIXkhdobiGSIvFJJGxXMbshDMGxn0Af7Fn/BO/49eH/2nP2G/wBlb43+HNTi1SDxt8EfAT63JFN57WHjbQdDtfDPxA0K5l2oXvPD3jjRvEOh3j7VElzp8siAxuhYOGatKS83/wADv08/vPsygkKACgDO1jWNI8PaRqniDX9U07Q9B0PTr7WNb1vWL620zSNH0jTLaW91LVNU1K9lhs9P07T7OCa7vr67mitrS2ilnnlSKN3UA/zHv+Dgj/gq3pf/AAUW/aP0bwD8GtTlu/2XP2dZdc0b4fasv2q2T4o+NdWe1t/F3xRlsplt2j0WaLTbPQfANve27X0GgWt/rztZTeMb3RtNDrpQ5Vd/E9/Ly/z/AOAfz80Gp+2X/BulqFnpn/BZX9jO5vp1t4ZLz466ekjK7BrzVv2ZPjRpWnQAIrNuudQvba2ViNiNMGkZI1d6DOr/AA5fL8Gj/S3/AGxPgy/7RX7J37S3wGgXN78YfgT8VvhzpTiUQtb634t8Ea1ouh3iSuGjSSy1i7sbyMzLJBvgUXEUsJeNg5Iu0k+zR/jP3lnd6dd3Wn6ha3Njf2NzPZ3tjeQS2t3Z3drK8Nza3VtOkc1vc28yPFPBMiSxSo8ciK6stB3nsH7OPxx8V/szfH34N/tCeBwkniv4MfEnwf8AEfRrOeeW3tNVuPCmt2erS6HqMsKtINK161t59G1ZER/N02/uoijByrAmrprurH+wz+zL+0b8Lf2tvgT8NP2iPgzr0HiD4ffFDwzYeItImSWB77SrmaPy9X8Ma/Bbyyrp3ibwtq0d5oHiPS2dpNP1jT7y1ZnCK7hwtOLs9/6/r/hj3agQUAFABQB/HR/wd6/tK+FNK+AH7Nv7I9hq0E/j7xr8V2+PPiHSbO8ia80fwJ4B8K+LPBOiPrtmlwJ4LHxf4m8d302gvNbPDe3Xw/1lo5Y5NOKuG9COrl8vn/w3n163P4HqDpP6iP8Ag0z+Fup+L/8Agoz4/wDiQILpNA+EX7NvjW7utQiTdaf8JF438VeCvCuhaPdP/A+oaPL4u1S2A5c+H5R0BoMaz9xLu/6/rT8LS/0cKDlCgAoA/9T+/igAoAKACgD+fT/gsp/wTSPxj0PV/wBq34F6AZfi14X0oXHxU8I6Tbqbn4k+FNGs1RfEmmWkSb7zxx4W0y3WKe1j33fibw7aRWVmk2s6Pplhq/8AXH0cPGr/AFcxWH4C4pxfLkGOr8mRZjiJ+5kuPxFRt4KvUk7U8rx1ad4VHangcZUlVqNYbE4iph/4f+lb9H7/AFqweK8SuDcC5cTZdhvacSZXhoL2mf5bhKSisww9ONnVzjLsPBRnTSlVzHAUo0aSlisLh6WK/kSr/Qg/y/PcP2df2fPiT+0/8W/Cfwd+FujXGqeIfE1/DHd33kXD6T4X0NJYxq3ivxJdQxSDT9B0S2c3N3cSYeeTyNOsY7nU72ys7j5jjDi7JeB+H8w4iz3EwoYPBUpShS54LEY7FOL+r4DB05NOti8VNclOC0iuatVcKNKpUh9hwJwPn/iJxPlnCvDmEnicdmFaEatbkm8Ll2DUo/Wcyx9SEWqGCwlOXtKtSTTnLkoUY1cRWo0p/wCij8M/Amk/C34b/D/4ZaA8smhfDnwR4U8CaK84AnfSfCGg2Hh/TnmCkqJWs9PhMgUkbycEgZr/AB5zvNcRnuc5vneLUVis4zPH5riVHWKxGYYqri6yi3ZuKqVpJXW3Y/3Z4eybDcOZBkfD2CcpYPIcoy3JsJKdud4bK8FRwNBztpzOlQg5W0vsdvXmHrn8tP8AwcW/E6zufEP7Nfwas7mNr7SNH8cfEvxBaiUtIlt4gvNI8MeE5mhWQCMM/hzxku+aJmk+UQPEqXCz/wB0/Q7ySpDB8acSVIP2WIxOV5LhKnLo54SniMdj4qTV3ZYzLnaMkl9pSbg4/wCcn07uIaVTHcAcKUqidbC4XOOIMdS5ryVPHVcLl2WTcVKyu8BmqvKDctoOKjPn/mdr+1z/AD6CgD6l/YbuJ7X9tP8AZGlt5pIJG/aZ+BduzxsUZoLz4neGLS6hJGCY7i2nmglXo8Ujo2VYivhfFCEZ+GviDGcVJLgnimaUldKVPJMdUhLrrCcYzi+kopq1kz9H8Hqk6fi14YSpylCT8QeDabcXZuFXiHLqVSPT3Z05yhJdYyad7tH+inX+PJ/uyFAH+VJ/wXY/4J9av+wL+3f8QtP0XQZbD4EfHbU9a+MHwI1KC3ji0eLRde1AXni7wBZ/Zx9ntbn4Z+KNRuNBh0sub2HwlceDtYukRNfty4dlOXNFd1o/8/mvuPxioND9f/8AgmD/AMFpP2q/+CYerT6B4Hlsfit+z/ruqvq3iz4A+ONQvLbQG1KdY0vPEHgLxFbQ3t/8PPFV3FDHDeX9jYavoOrKkUniHwvrN1ZaZcWAROnGfk+/+fc/tN/Zv/4OgP8AgmD8atNsYfif4t+IH7MHi+aKCO70T4p+Btc8Q+HpNSdVNxDo/jf4Y2XjLTH0yFi/lar4ts/BLTJGTLYW0rxQuHO6M1t73p/X5X7+Uf0l8N/8FZf+CY3iqITaZ+33+yRaobaK6A8SfHj4d+DZfKm+4pg8X69oU63Iz+9s2iF3B1mhTGaCfZzX2Zfc3+X9fczz3xx/wWz/AOCUXw906fVNe/bp+BV/bW8U80kXgfXNS+JuosluVEgg0j4baR4t1a6lYsPIgtrOWe6G420cqqxUD2c/5Wfh7+2z/wAHafwH8JaDrvhT9hT4W+KPi147ntriz0v4rfFrSpvBHwt0SeWL/Rta03wd9rHxB8atbsXDaRrdv8NolmEUxvr6BZLWUNI0Xf3nZdlu/wDL7/usfwzfG342/FP9o34q+Nfjb8bPGeq/ED4ofEPWJNd8W+K9Y+zrd6lfPFFbQxxWtlDa6dpunafZW9tp2k6RpdpZ6VpGmWlppumWdrY2tvboHQkkklolseV0DP8AUb/4N5P2BdX/AGGv2BfD198RNEn0T43ftJ6rB8aviPpmoQtBq3hfRdR0q1svhn4D1CFikltd6D4TVde1fTby3g1LRfFnjDxPot8CdOiSIOOrLml5R0X6v7/61P4Mf+C0n7K+sfsif8FKP2oPh5dabLYeFfGXxB1n41fDGcxeXZX/AMO/i9qd94w0iLSzvdprPwxql7rfgSWaTbI2peE9QDA7d7h005c0E/l22+/+u17H5ZUFn7nf8EfP+C3/AMYP+CXWrar8Pta8OS/GT9lzxrrqa/4n+GL6p/ZniPwd4hmghsr/AMZ/DDWLlZ9PsdTv7O3s11/w3q8DaJ4lGmWKpd+HdR87W3DOdNT1vZ97fmf3DfAj/g4N/wCCT3x30mwvIP2otF+Eeu3Vs1xfeD/jvoet/DLVtFdYzK1rf6/qNpc/Dq8uQqkKPD3jjXIHkxDHcPMyxsHO6U10v5rr+T+9fdc+m9b/AOCs/wDwTF8P2MOoX/7ff7JU8E9jLqCR6J8dfh74mvlghhWZ45tM8Oa7quo298UcLFpk9pHqU8wa3gtJJ0eNQXs5/wAr/E/On9o//g53/wCCXfwS07UYfhz448d/tNeMLZJ4bbw/8JPAuuaXoY1FY91qmpeOviTZ+CvDx0qV2QXGq+FD4wktkMnl6dd3ETWzBSpTfl6/n1/rte5/HJ/wU1/4Lyftf/8ABSC01D4b3L2PwF/ZunuhKfgp8PNVv7qTxZDBcR3Wnt8VvG9xDp+o+O3sZ4o54NJtdN8NeDRcwWd/J4Um1extdTQN4U4w13fd9PTt+P6R/F3w14Z8ReMtd03wx4T0PVfEniLWJzbaXomiWNzqWp386xyTOltZ2kcs8vlQRTXEzKhSC3imuJisMTugaGHQB90f8Ezv2mPDX7Hf7en7L37SHjWC5m8E/DP4nafdeN3srWa/vrHwV4j0/UvB3i7V7DT7fM+o6honh3xDqWsWOnQ/vb+7sobSPDTA0EzXNFrq1/Xb+u+x/pw6n/wWS/4JbaX4b0XxQ/7c37P2p2fiD7Iul6R4Z8Yp4v8AG0st7JFFa2t18OfClvrPxA02+llnjj+wan4Zs71JCUkgR0cKHJ7Of8r0/r+rfofwXf8ABxN/wT31r9i39u3xj8SfDmiyxfAb9q3V9f8Ai98PNTtrV00zRPGeqXqX3xW+HksqRQ2tveaJ4q1GXxJo9hbxrbweDfFfhy0hknudP1LyA6KU+aNusdH6dH+n/Dn4D0Gp+qH/AATL/wCCu/7Uv/BL/wAY39x8J7/T/HXwd8Wanbaj8RfgL43nvG8F+JbmNILSXxBoF7aFtQ8DeOhpkK2Nv4o0dLi1u0g02LxVoHizTtJ07TbcInBTWuj7rf8AX+u25/bB+zT/AMHSX/BNP4yaTp0fxl1P4ifss+MpYlTUdI8eeENc8d+EVv8Ay1d4tF8cfDLSPEMt5p+4tHFqHiTwv4Od2jYzWNuGj80Od0Zra0vTT+vlf8Wo/p14Y/4K2/8ABMLxciPpX7fP7J9osltJdKPE/wAbvAnglxFFOluyunjPWdBkjuTI4aOzkVLuaAPdRQPbI8qhPs5r7L/F/l/X3M5Dxv8A8FpP+CVPw/srm/179uz9n6/gtHnjlj8EeLG+Jd67W8scMhttN+HFn4r1G9RnlVoJbO1njuYhJcWzywRSyxAezn/K/wCvX9T8VP20P+Ds79mbwH4e1Xw/+xF8NvFnx3+IdxFdW+l+Pfibo+o/Dn4QaJIyOtnq50O5mt/iX4zaKZd0/h2fSvh1HLbyRSL4oSZZbNA0jRb+J2XZb/lZeuvore9/DB+0f+0h8Z/2tPjH4z+PXx98b6n4/wDib461D7brGtaiUit7W2iXytN0LQdMgWOw0Hw1odmI9P0PQdLgt9O0yxijgt4R87sHQkoqy2/r+v8Ahjw6gZ/phf8ABtD+wDrH7H/7EFx8YfiRocuifGH9rzUNC+JGo6ZfQ+Tqnh34S6NYXcHwh0HUoXj8221DUrPWvEPj25t2lEtta+NdL0vULWz1XSL2BQ5K0uaVltHT59f8vl5n9G1BkFABQB//1f7+KACgAoAKACgD88fjB/wSq/YS+N3iu+8ceMfgZpuneKdWuZrzWNT8EeIPFPgSHWLu4dpLm91LRvCusaZoM+oXU7vc3mpjS01K+uZJJ727uZJHNfr/AA748eKnDOApZXl3FNetgcPCNPD0c0wmBzWWHpwXLClRxOOw9bFQo04JQp0PbujSglCnTgkkfhnFP0bfBri/Mq2cZrwbh6GZYmpOrisRk+OzHJYYqrUfNUrYjC5bisPgp16k26lXEfVliK1STnWqzk5H0z8Cv2ZfgJ+zP4fm8M/Ar4W+F/h1pl35X9ozaTb3F3rusmDd9nbX/FOs3GpeJ/ED24ZhbPresX7W4dxCYwzb/ieKeNuK+NsXHG8U57js4rU7+xjiJwp4XDc3xrCYDDxpYHCKdlzrDYekp2vK7SZ+g8G+HvBXh9gZZfwbw5l2Q4epy+3nhoTq4zF8l+R43MsVUxGY4507v2bxeLruF2oON2j3Wvlj7I53xd4t8N+AvC3iLxt4x1mx8O+E/CWi6l4i8Sa7qUvk2GkaLo9pLfalqF3IAzCG1tIJZXCK8j7dkSPIyI3Zl+X43Nsdg8sy7DVcZj8wxNHB4PC0Y81XEYnEVI0qNGmtFzTqSUVdpK924pNnDmmZ4DJctx+b5ri6OByzLMJiMfj8biJclHC4TC0pVsRXqy1ahTpwlJ2Tk7WipSaR/npftq/tK6n+1t+0t8TfjfeQ3VjpPiPVo9P8G6Ndyb5dC8DeH7aPR/C2nSRiSSGC8k0y1j1PWUtmNtLr2o6rdRf8fBLf68+GnBdDw/4KyThinKFXEYPDutmWJpq0cVmmLm8Rj6ybSlKmq9SVDDOfvrCUaEHbktH/AA18W/EDEeJ3iBxDxhVjUo4bH4qNDKcJVd5YPJ8FTjhctoSipShCrLD0o4jFqm/ZyxtfE1I353I+Vq+7PzcKAP0P/wCCUnw8u/iR+3/+zjptvEzW/hrxfc/EPUpwheOztPh9omp+LIJZsEFFudV0vTtNifoLq/twQQcN+QePWcU8m8JeMq05JTxuXQyejC9pVKmb4qhgJxjo7uFCvWrSWn7ulOz0R+6fRqyKrn/jbwFh4Rbp5fmlTPcRNK8aVLI8HiMzhKfZVMTh6GHi9f3laCe7cf6Ef2n/APgrF8UPD/xo134Q/su/CXTPEmg+EPiX4p+B2p/F7xV8Nf2hvjdL49+O/wAP/CUXjX4m/Cz4OfAj9mbwV4i+Inii2+E+i3VnD8SviN4i1zwn4b0XWm1XSdGsfEjaBe3Mv+Tx/tgoJq7duvTRPq7uO/ReV9NFL6W/4J7/APBRZf2wLvVPh74/8G6F4G+K2n/DvRPjD4S1TwVq/iXWPhf8cfg1rHifXfANx8Svhv8A8J34U8C/Ejwxc+EviJ4a1jwH8TPhr8R/BujeK/h74nOl2Vxda7a6rb6goKUbap6bdLp9nZtead/uPS/+Cjn/AAT1+DP/AAUn/Zw174CfFlX0TU4pz4i+F/xM0ywtL3xL8L/HtrbSw6d4h0uO5MIv9Ku45H0zxX4ca7s4fEeg3FzZre6XqcWla1pYKMnB3XzXc/y8v2+v+Cb/AO1H/wAE5PipdfDn9oPwPd2+hX99fR/Dz4taDb3l98L/AIoaXauWXUPCfiRreOFNSjtmgn1fwnqwsPFXh8TwHVdJhtrqwu7oOyM1NXXzXVHwXQUFABQAUAFAGhpOk6rr2p6fomh6ZqGs6zq15badpWkaTZ3Oo6nqeoXkqwWljp9hZxTXV7eXU8iQ21rbQyzzyuscUbOyqwB/bj/wQ2/4N0vFnhrxd4J/bG/4KDeEV0G48MXlr4m+EH7LviKztrrU5NahUz6J43+NljK00OlLolwbfV/D/wAMpUbVm1iC0uPHq6VFpl34Q1kOepV+zH5v9Ef270HOfgt/wXg/4JFr/wAFLvgTpHi74TxaZp/7V/wMs9WuvhhPqFzbaXp/xG8L37R3uv8Awo17VZ0ENpLqFxbLqfgbVdRuIdM0XxO1xaahc6Zo3iXXNWsg0pz5Hqrp7+Xmj/Md8eeAfG/wt8ZeJPh38SfCPiPwH488H6rc6H4q8HeLtHv/AA/4k8PavZttudO1fR9Tgtr6wuo8qxiuIEZo3jkTdHIjsHYmmrrZnJUAFABQAUAex/AX9nz40/tQ/E/w98GvgB8N/FHxT+JXieUrpfhjwrp0l9cpaxvEl5rGrXR8vT9B8PaWs0c2s+I9bu9P0PR7ZvtWp6ha24MlAm1FXbsv6/r/AIY/0W/+CP8A/wAEBvhl+wh8O9f8ffH6fRfid+1h8UvAXiDwV4g1rTF+2+EPgz4U8ZaRfaN4h8I/DOW+toZb/XtX0m/fT/Fvjy7tLe5vrYz+HfD9tp/h6fWp/FYcs6jk9NIp6a726vf8vvP84740/Cfxb8B/i/8AFD4J+PbKTT/Gnwl8f+Lfh14otHTYI9b8H67faDqDw4eRJLWe4sXuLK4ilmgurSWG5t5poJY5WDqTuk+6ueZUDO4+GP8AyUn4e/8AY8eE/wD0/WFAns/Rn+v3+3X+w98EP+ChH7O/iz9nX46aTLNoetNFq/hXxZpaWyeK/hv4406G4TQfHPhC9uIpUttX0w3Nza3VtKrWOuaJfar4e1WKfStVvYXDijJwd193ddj/AC6/+CjH/BLb9qX/AIJo/E2fwh8bPC0us/DvWNQuI/hn8dfC1le3Hw0+IunLvlgS31B0dvDPi+3tlP8AbvgTX5YNc0yaKW5sDrfhufSPEmqh2RnGa036rqv8/wCvM/OCgoKACgAoAKAJ7W1ub65t7Kyt57u8u54bW0tLWGS4ubq5uJFigt7eCJWlmnmldIoYY1aSSRlRFLEBgD+xn/gi3/wbya9c3+h/tp/8FJvCrfDz4UeB7ZvHfgb9nrxzFJo/iDxI+hRjV4fGvxw0m88mfwl4C0OO2k1GPwDrS2uv+Jbi13+MNP0nwlA+leMQwqVVrGOrel+ny7v5elz9hPiH/wAFs/jc1/c+M/hr8GvAnw0+BD/CTw7+0B4F1n42fDD9rjx/rviv9nfxX4k8ZeFfBPx2+KOt/s3fCbxz4K/ZT+GXj69+H/im98GXXxDm8ZeIpvDNhB4m1jw1o+n3tqjhmqa73adnay1XRX3av5/gnH9nf2N/2stG/a4+G/iLxI3gvV/hZ8S/hl491v4SfG/4Ra9q2m+IdR+G/wAT/DtjpOq32lWPirRgmieOPCGt6Dr2geLPAfj7Q44tI8Y+Ede0nWLe2sLmW802yCJR5XvdNXTtb+n37fefW9BIUAf/1v7D/iv+07Z/sw/tH+FvDHxr1ePR/gV+0RYxw+APiXrV2IND+G/xj8M21lpesfD/AMS3kuyx0Lwd438OroviTw1q99PbRWHi2Dxqb95tL1F73w9+pZDwRU444Nx2N4Zw7xPFXB9WUs2yTDU3PFZzw5jZ1a+HzbBU43q4rMcsxjxOCxuHpwqSq5fLLPZKNeiqWL/G+JfEOl4d8e5bl3F2KWF4N47oxhknEGLqqGDyDirL6dHDYrJMwrSSo4LKs4wKwmYZfia0oRo5nDN3WnLDV5VcF90KysoZSGVgGVlIKspGQQRkEEYIIOCORmvy1q2j0a0afQ/ZE00mndPVNbNd1vv6/eLQAUAFABQAUAU9R1HT9H0+/wBW1a/s9L0rS7O61HU9T1G6gsdP07T7KCS5vb+/vbmSK2tLOztopbi6uriWOC3gjkllkRFZl0o0a2JrUsPh6VSvXr1KdGhQo05Va1atVkoUqVKlBOdSpUnKMKdOCcpyajFNtIyr16GFoVsViq1LDYbDUqlfEYivUhRoUKFGDqVa1atUcadKlSpxlOpUqSjCEIuUmops/j2/4K4f8FSLf9pK6vf2cvgFqs3/AAovQ9Vjl8aeM7Z5IP8AhbmuaVcLLZ22noQso8AaHfwreWTTBT4m1eC11jyY9P03SZbv/RL6PvgXPguFPjLizDx/1pxVCUcty2ajP/V/C14ONSpWfvJ5tiqUnTqclvqWHnUw3O6tbERh/ll9J36RkOP6lbgPgrEz/wBTcHiYyzbNqblD/WfGYaalSp0FaMlkmDrRVWi53/tDFQpYrkVGhhZ1fwcr+qj+MQoAKAP6g/8Ag3t/ZpvbZPiv+1d4i07ybXULX/hUXw1nuIvnuoo7yx1z4g6zapKny28d1Z+GNBsdStWbzZ4vFWmF0+zXMcv8O/S641pTeQ8A4OtzVKNT/WHOowlpTk6dXC5Rhqji9ZunUxuLq0Z25YywFZJ88HH/AET+g54f1qa4l8S8dQ5aden/AKr8PzqR1qRjVo4zPMXTjKOkI1KWXYKjiKcvenHMsO2uScDkv2iv2c9f+G/x21L4V/tJaL+0N4X/AGZz+0p+25+1P8J/2pv2XPAP7RHjzxHat+2l4Q8V3EvgXVW/Za8JeJPiB8P/AIq/Bj41eLtT1vRLnxlZN4A+Ivw+/sSwnvdQfS9Z8PXf8Qn+iad0nFq9opp8q+HtzXvddvwvY+qf+CUfwC+Mlx8TPh38ePHPwgT4F/C/9nj9i65/Yr+E2nXng/xV8Nde+PWr+KPi74d+LPxS/aIm+E3j3T9N+IHwt8OeKNT8DeGLjR9A8fWln4v1fxL4g8da1fW02lSaHqV6EzatZO95c3okrJXW/Xp9x+/NBmcB8T/hT8MvjX4K1r4b/F/4f+Dvid4B8RQfZ9b8HeO/DuleKPDmpRgHy2udJ1i1vLNp7dm820uhEtzZzhbi1lhnRJEBptarc/mV/as/4NOf2KPi3qGpeJP2afid8R/2WNbv5Z7j/hF5bdPjH8LLWRxvWPS9B8S6zoXjvTFknMhl3/ErU7C3ieOLT9JtYYFicNY1pLdJ/g/6+X33PxS+KH/BpH/wUE8L3N1N8Mvi9+zJ8VNHjU/ZEuPE3jzwD4qumVZnxLo2r+BNU8OWyuEhjjb/AITecmeYiRYoImuGDRVovdNfj+N7/h89LHzHqf8AwbF/8FdbC8ktrT4NfDfW4EWMrqOmfHL4ZRWcxdAzLGms6/o+oBomJjk82wiUupMTSx7HYH7aHmek+D/+DVH/AIKneJZ4Yda/4Zu+HsckUMj3XjD4valewW7yxSSPBMvgHwP44uWltnVYJjBbzQNLLGbeeeESTIB7aHn/AF6tfn95+lfwD/4M9WF7aah+1F+2Kr6bHKgv/CHwD8BGO9u4ODI1p8RviJdywafKMFEWb4Waoh3CUuuzyXCHX/lj97/4b8/uP6W/2Lf+CSX7A/7A5tdW/Z++A+g23xDgtpLef4xeO5pvH3xXuBOrx3LWXivxCbj/AIRSK9gZIL7TfAlh4V0e9jija706abfKwZSnKW707dP+D8z9I6CAoAKAPza/bz/4JN/sS/8ABRjS1b9oT4XRw/EOysU0/QPjZ8Pri38IfF3QrWBJ0tLI+J4bK7tfE2j2X2q5ey8OeONL8UeHrKeeW7stLtb1hcqFxnKOz07Pb9Pwd35H8qn7Qf8AwZ//ABp0q+v7/wDZZ/au+G3jXR3d5rDw38dfDniT4ea5ZWyrn7C/irwLZ/ETStevmKnybx/DHhK0keVIpobWON7pg2Vdfai15p3/AMv672sfnh4j/wCDXz/grXolyINM+Gnwk8YxGe7i+2eHPjb4LtrYR20iJDclfF1x4VvPI1BXMtootGuUjicX9vYylI3CvbQ8zrfA/wDwas/8FUfFc1qniCy/Z7+GcU+0zz+M/i/JqIsgZXRhNH8OvC3jx5ZFjUTBbYToySRr5qy+YkQHtoef9erX5/efrT+zN/waBeBtIvdN1z9rv9qvWvGUMTQy33w7+A/hSLwlp7yRfO8E3xL8aXOuapqGn3LkQzRWXw88NX8cEbtb6nFNco9oEOv/ACxt5t3/AMv672sf1SfsqfsT/ssfsR+CJPh9+y78FvCHwm0G8aCXW7rR4LvUfFXim5tldbe78X+Ntfu9W8YeK7m2Ekq2b6/rmoLYRyyQWCWtuRDQYOTl8Tv/AF/X9I+paBH82H/BY7/g3r8C/wDBRPxldftG/AfxvoPwS/afvNM0/TPFv/CTaddzfC74upo9oNP0fUfF8ugWV54j8M+L7HTorDSG8YaXpviSO+0PStN02+8Mz3NtDqcAa06rjo1dfivTa/3/AHH8t+qf8Gvn/BWvT9dGkWnw0+EmuaeZ/K/4SnS/jb4Li0IR+fJF9pNvrVxo/ibyBGi3O0eGzc+RNGotzciW3iDb20PM/QP9jj/g0u/aPk8f+E/Gn7XPx3+Gnw18HaBq+j+ILjwf8HJdW+IfxC1eTTbq2vv7FuNa1/QfDXgzwozyx+W+s2jfEBEMUkcekSpMlygTKsrNRTd++i/W/wA199/e/vcoOY434g/DrwB8WvB2vfDv4peCfCnxG8BeKLM6f4k8F+OPD+leKfC+u2RdJRbaroWt2t5pl9Ek0cc8a3NtJ5U8UU8W2aJHoBO2q0fkfzT/ALWX/BqX+wn8abrVfEf7OvjT4ifsm+Kb9jLFo2lbfiv8JYJ3O+aVPBfi3VNM8Y2jTSFtlvpXxP07R7JG8uy0eOGNIVDaNaS3Sl+D/r5fcfiD8U/+DRz9vbwzd3cvwr+Nn7NHxT0WKWVbMarrXj74c+KrqJYZJYpZdEvPBXiXw5atK8QtjEPHFx5c89uS7W32m4tQ0VaL3TX4/je/4fPSx8r6r/wbE/8ABXTT7s21p8HPhtrsIRHF/pXxy+GkNozOMtEE1vXdFvhJF0ctYrESf3cso5UH7aHmd94P/wCDVj/gql4llto9as/2d/h6s6W7yzeMPjBPexWTTMBJFcr4B8JeOJnktAS1wbKK7iZVP2WW5cqjAe2h5/1935/cfo98Bv8Agz08QS3dhqH7T37Y+j2VjG6nVPCXwG8AXuqXd5GQm9LD4ifEG+0eHTXU71WS4+F2qq4KOYoyCjBDr/yx+9/8P+f3n9KX7EX/AARx/YA/YCms9f8Agd8FrPVvidaRCM/Gn4p3a/EL4pb/AJ1afSdY1K2g0TwVLNE/kXY+Hnh7wfBfQqBfw3TZagylUlLd6dlov1/F/effnxh+HNh8YfhJ8UvhJqt9Ppml/FL4c+N/hzqWpWsQnudPsPG/hnU/DN5fW8LSwLNPaW+pyzxRGeESSRqhljzvUJWjT7P+u/5fefyIfGD4G+LL+xh8GftVfDP4/wDgj9oP4F/sg/se/ssfDXwZ4E+BH7W/xu/Z4/a11T9lb4xfGPxPqo1nVP2avBvjP4a+Ovgd+0n8OPG/hHw3q/gj4l6n4f8AHvw28V6xq0F94Z0mLS1n1wN09+W1nJtu6vG6/vcrumtGt/K7P6Ev+CePwq+K+mXH7Un7T/xv+Hlz8GviD+2V8btJ+Jem/Ba+1DSL/WvhX8JPh58KvAfwY+EHh3xofDt1e+HoPiJqfhTwKPFvjOx0e8uodFvvEdv4au55tT0G9mlDKTWkVqoq1+7vdu3RfP7j9I6CAoA//9f+1D9s79lvwr+2H+z342+CfiV4bC91SGPWvBHiSWLzX8JePdGSeTw34gQCKWX7Msk9xpWtRW6i4vPDmq6zp8EsMl4syfd+G3HWP8OuLss4mwSlVpUJPDZng4y5VmGU4lxWNwjd4x53GMK+GlN8lPGUMNVkpKm4y/N/Fjw5y3xU4HzfhHMHCjWxMI4vKMfKPM8szrCKcsBjkknL2alOphsXGnapVwGJxdCEoyq80f5Zf2cv+CnX7XH/AATp8a6x+zZ8fPDd98TPB3w21iTwrqXw+8YapNZ+MfA6WZiSD/hA/G8kOoNc+GZNNa21Dw7pepW+seGb/RJdNm8LXeiaberey/3Xxl4IeH3jDlmG404TxtLJMxzrDxx9HN8uoRqZdmjqKTl/auWKVFU8cq3PSxlejPD42liY1o46niq1Jwj/AJxcB/SH8T/AjNsVwBxrgK3EGVZBipZbiMjzXEzpZrk8aXKof2NnDpYh1MveH9nXwGHxEMVl9fBzoSy6rg8PWjWn/Qz8BP8AgrX+w38fLazitfi9p/ws8TXRjjk8IfGYW3gHUIZ5dixRQ6/e3tz4H1OSeZjDbwaV4rvLyR1AktYDLAsv8hcV/R/8UOFJ1JVOHq2e4KndrMeG+fNqUoq/NKWEp0oZpRUI2lOdfAUqSTvGpJRnKH9zcFfSb8HuNadKNPiihw5mFTljLK+LPZ5LXhOVlGMMbVqzyfESnJuFOGGzOrVbXvUk5QifozpWr6Vrthbaromp6frGl3kYltNS0q9ttQsLqJuVktry0lmt542HIeORlPYmvxyvh6+FqzoYmhWw9em+WpRr050atOS+zOnUUZxa7NJn7xhsThsZRp4nCYihisPVjzUsRhqtOvRqRe0qdWlOdOcX3jJp9NmaFYm5R1LU9N0axudU1fULHStNs4/NvNR1K7t7GxtYtyr5lzd3UkNvBHuZV3yyIu5lGQSN2tGhWxNWFDD0auIr1Hy06NGnOrVqStflhTgpTk7Ju0U3ZX6GOIxGHwlGpiMVXo4bD0o81WviKsKNGnG9uapVqSjCEbtK8pJXdtb2Pzk/aF/4Kz/sR/s92t/BdfFfT/ip4utAUh8FfBxrXxzfz3AQ5huvEVndw+CNIMEmyO9h1PxPb6jBucQ6fdTQzQr+ycIeAHidxdUpShkFbIcvqWcsz4jU8rpQhf4qeDqU5ZniOeN3TlQwM6M9HKrCMoTPwbjn6TXhDwPTrQqcS0OJM0pJqGUcKunnNadS3w1MfSqRyfCuErRqwxGYwrwu1GjUnCcT+XL9un/gqp8e/wBtE33g2Mj4VfA77X5lv8M/DOo3Mtx4jhgminsZ/iL4h/0aXxVNbTwpd2+lwWWl+GrS5jtbgaPc6nY2+qt/c3hb4D8J+G3ssyd8+4o9naed42jCMMHKcXCrHJsJ+8WAjOEnTnXlVr42pB1IPEwoVZ4eP+dHjJ9JLjXxZ9tlUWuG+D/a3hw/l9epKePhCcZ0Z59jrUpZlOE4KrDDQpYfL6VSNOosLPEUYYmX5e1+4n86hQAUAfRP7LH7NPxC/a0+NfhH4L/DmzdtQ166Fxr2vSwSy6T4N8J2ckTa74s1uSNSIrDS7aQCGJnjl1PVJ9P0WyL6hqVnE/x/HfGuT8AcNZhxLnNRKjhIcmFwsZJYjMcfUT+qZfhU9ZVa80+aSTjQoRrYmry0aM5x+68OPD/PPE3i7K+EshpN18bU9pjcbKEpYbKsspSi8bmeMlH4aOGpyXJFyhLE4idDCUeavXpQl/oPfBT4QeC/gF8KPAXwb+HtidP8IfD3w9Z+H9Ijk8s3V2Yd8+oaxqUkUUMc+sa9qs99res3SQxC71XULy58pPNKL/kZxNxDmXFmf5rxHm9X2uY5vjKmLxDV/Z0+a0aOHoqTk44fCUIUsLhoOUuShSpQu+VM/wBw+EeFsp4K4ayXhTI6PsMryPA0sDhYy5faVeS86+KxDioxnisbiZ1sZi6ijH2uJr1allzWPUa8I+jCgAoAKACgAoAKACgAoAKACgAoAKACgAoAKACgAoAKACgAoAKACgAoAKACgAoAKACgAoAKACgAoAKACgAoA//Q/v4oA/Jj/gp1/wAEy/Dv7bXha38ceApNI8JftFeD9Pa10HXr1Ba6P480SNjKvg7xnd21rPdRm2YzS+GNe8u4bSLme5sruGTTNQeWw/f/AAQ8bcZ4ZY6eV5qsRmHB+Y1lUxeEpPnxOVYprleY5bTnONOXOuWOOwjcFiIRhVpyVako1/5l+kN9HvA+LuXQzjJXhcs47yqg6eCxtZeywmdYOL5llWa1acJVIum+aWXY3lqPC1J1KNWEsPWc6H8UvxG+G/jz4R+M9e+HnxM8Kaz4K8a+Gb17DW/D2u2jWl9Zzryjry8F3Z3MZW4sNRspbjT9RtJIrywubi0mimf/AEuyfOcq4gy3CZxkuPw2ZZbjaaq4bGYWoqlKpF7p7Sp1IO8KtGrGFajUjKnVhGpGUT/JDPsgzrhfNsbkXEGW4vKM2y+q6OLwOMpunWpTWzX2KtKpG06NejKpQr0pRq0atSnKE5Zvhrxp4x8GXL3ng/xZ4l8KXcuzzLrw1ruqaFcyeW26PfPpd3ayPsYBk3MdrDK4PNbY3LcuzKCp5jgMFj6cb8tPG4WhioRurO0a8JxV1o7JXWmtzDL82zXKajq5XmeYZbVlbmqZfjMTg6kuV3jeeHq0pOz1V72eq2aPUv8AhqT9pv8A6OM+O/8A4d34g/8AzSV4X+ovBH/RHcK/+I9lP/zIfR/8RH8Q/wDovOM//Enzz/5uPNfFPj7x144nFz418aeLfGFwJZJxceKfEeseIJxPK8skswl1a9vJBLLJNM8kgbe7yyszMzua9rA5TleVx9nlmWZfl0OVR5MDg8PhIuMVFRjy0KVNcsVGKS2SjFJKyPn8xzrOc4n7TN83zPNanNKfPmOPxWOnzycpSnzYmtVlzSc5uUr3blJu/Mzkq9A8wKACgAoA9u/Z9/Z1+Lv7UHxJ0j4V/Bnwnd+KPE+pnzrqUf6NofhvSI3RL3xF4p1mRTaaJoVgJF867uC0tzcPBpul22oave2Gn3XzHF3GHD3A+S4jPuJMwp4HA0Pdpx+PFY3ENN08HgcMn7TE4qrZ8tOC5YQUq9edLD0qtWl9fwPwJxR4i5/heG+E8sq5jmOIfPUl/DweAwsWlVx2Y4uS9lg8HRT9+rN89Sbhh8NTr4qtRw9X+5/9gz9g/wCGX7DPwvXwx4aEPiT4keJYbK6+J3xLuLRYdR8UapbozRadpsb7pdI8I6NJNPHoeipIxHmS6jqMt1ql5c3Df5c+KvirnfijnjxuNcsHk2ClUhkmSQqOVHA0JuzrVmko4jMMTGMZYrEtdI0aMadCnCB/sZ4L+DHD3g7w6suy/kx+f5hCjV4i4gqUuSvmOJppuNDDxbnLDZXhJTnHB4RS+1KvXdXE1akz7rr8sP2UKACgAoAKACgAoAKACgAoAKACgAoAKACgAoAKACgAoAKACgAoAKACgAoAKACgAoAKACgAoAKACgAoAKACgAoA/9H+/igAoA+O/wBrn9hb9nv9tHwumjfFzwt5fibTbWWDwp8S/DZg0vx74UaTeyx2WrG3uItT0kyyPJP4e1611XQ5ZHe6jsYNRS3vrf8ARfD7xS4u8Ncc8Tw9jr4KvUjPH5LjeavlWPSsr1cPzQlQxHKlGOMwlSjilFKm6kqLnTPyvxP8G+BvFnLlhOKMt5cww9OUMt4gwDhhs6y1u7UaOK9nOOIwvNJyngMbDEYOUpOoqUcQoVYfyrftUf8ABFL9rP4DXeqa18MtH/4aI+HED3Fxaap4BtJP+E9srFC7RR658OHeXWLm/wBikbfBs3i23kASSR7N5fsqf3hwJ9JfgDiqnQw2d4j/AFPzmahCpQzapH+yalV2UpYXOUo4anSu1rmMcBNaxSmo+0l/m54kfRH8TeC6uJxfD2F/16yGDnOliMkpS/tqjRV3GOMyFyniqley2ymWZQkrSlKi5ezj+Qmq6Tqug6lfaNrmmaho2saZcy2epaVqtlc6dqWn3cLFJrW+sbuKG6tLmFgVlgnijljYEOikEV/QuHxFDF0aWJwtejicPXhGpRr4epCtRrU5q8alKrTcoVISWsZwbi1qj+XcThcTgsRWwmMw9fCYrD1JUq+GxNKpQxFCrB2lTrUasY1KdSLVpQnGMk9GtPdz62MAoAKAOg8L+EvFXjjW7Pw14L8M+IPF/iPUXMen6B4X0bUfEGt3zjqlnpWk211f3TgEZWCB2HfGc1yY7MMBlmGqY3MsbhMuwdFXrYvHYmjhMNSXepXrzp0oLzlNfI7suyzMs4xdLL8py/HZpj67tQwWXYSvjcXWfalhsNTq1qj8oQl+Pvftn+yV/wAEK/2h/i7dad4l/aJuf+FAfD1nSaXRZTZav8WNbtiu4R2WgxG70nwmkpDQy3Xiu7XV7CTbJ/wiWoQuHX+ZvED6UvCHD0K2C4Ph/rbm6TjHEx9ph8gw09r1MXLkr49x0kqeAg8PVXu/2hRmve/rrwy+hvx1xRUoZhx1U/1JyNtTlhJOliuJcXTtflo4KLqYbLFLWEqmZ1FiqMkpf2ZWg0z+qj9nT9mH4JfsqeBIfh78EfBGn+E9HZobjWdRGb3xL4q1KFGQav4r8QXAOo63qGJJRB9olFnpsMpstJs9PsFitE/g/jHjfibjzNZZvxPmdbMMSuaGGo/wsFgKMmn9XwGEg/Y4WjpHm5F7StKPtMRUq1nKpP8A0i4E8POEfDbJoZHwhlFDLMK3CeLr/wAbMMyxEItfWsyx0718ZX96XJ7SXsqEJOlhqVCgoUo++18mfbBQAUAFABQAUAFABQAUAFABQAUAFABQAUAFABQAUAFABQAUAFABQAUAFABQAUAFABQAUAFABQAUAFABQAUAFABQB//S/v4oAKACgAoA8k+KPwE+CPxts1sfi98Jfh38SoIoxHbP4z8IaHr95YqC5B03UNQsptQ0yRTJJtl0+6t5VEkoVgJHD/QZFxZxPwxUdXh7iDOMllJ801luY4rCU6r0/jUaNSNKunaPu1YTj7qbTcY8vzHEfBXCHF9JUeKOGMi4ghGPLTebZXg8dVorW31evXpSr4aS5pWlQqQkuaVmuaXN8HeMf+CMf/BPHxdLNcw/BS+8I3k5dpbjwd8Q/iDpsW52iIMOlX3iLVNCtRGI3RI7TS4Iis8pkjdxbvB+q5d9JHxfy+MYS4mpZhTgkowzHKMorSslJPmxFLB0MVUbck26laUrwjZpOUT8YzX6J/gZmkpVI8I1srqzbcp5Vnud4eN24u8cNWx1fB01FJpRpYaEbTldSag4ee/8OKf2Bf8AoX/ih/4crUf/AJBr1/8AiaXxY/6DMj/8M1H/AOWHh/8AEm3gp/0A8Rf+JBX/APlZ6z4J/wCCPP8AwTy8ESw3UXwCtvE9/AVIu/G3jTx94mikAjiUrNot74lXw1KGeJpmL6IW8yeVAVt/Khi8DM/pE+L+ZxlTlxZPA0pXvTyzLcqwUldyfu4qlgnjY2TUVbEWtGLs5805fTZR9FjwMyiUKkeCaeY1oWtVzfN86zCMrRirTwlXH/2fK7i5u+ET5pSXMockI/eXw8+Efwq+EemHRvhX8NfAfw40pkjSWw8DeEtB8LW1wIs7Guo9EsLIXUuSztNcmaZ5HeSR2kd2b8qzjiHPuIa6xOfZ1muc10241c0zDFY6cObdU3iqtV046JKEOWKSSSUVFH7PkXC/DfC+HeE4byDJcgwzUVKjk+WYLLac+XZ1I4SlS9rK7bc6nPKUm5OTk2eh1457oUAFABQAUAFABQAUAFABQAUAFABQAUAFABQAUAFABQAUAFABQAUAFABQAUAFABQAUAFABQAUAFABQAUAFABQAUAFABQB/9P+/igAoAKACgAoAKACgAoAKACgAoAKACgAoAKACgAoAKACgAoAKACgAoAKACgAoAKACgAoAKACgAoAKACgAoAKACgAoAKACgAoAKACgAoAKACgAoAKACgD/9k=;fontColor=#000000;" parent="1" vertex="1">
                    <mxGeometry x="530" y="270" width="145.98" height="60.57" as="geometry"/>
                </mxCell>
                <mxCell id="25" value="" style="group;fontColor=#000000;" parent="1" vertex="1" connectable="0">
                    <mxGeometry x="230" y="330.57" width="120" height="170" as="geometry"/>
                </mxCell>
                <mxCell id="18" value="" style="verticalLabelPosition=bottom;html=1;verticalAlign=top;align=center;strokeColor=none;fillColor=#00BEF2;shape=mxgraph.azure.computer;pointerEvents=1;fontSize=18;fontColor=#000000;" parent="25" vertex="1">
                    <mxGeometry width="120" height="130" as="geometry"/>
                </mxCell>
                <mxCell id="3" value="" style="shape=image;verticalLabelPosition=bottom;labelBackgroundColor=#ffffff;verticalAlign=top;aspect=fixed;imageAspect=0;image=data:image/png,iVBORw0KGgoAAAANSUhEUgAAAfQAAAH0CAYAAADL1t+KAAAABGdBTUEAALGPC/xhBQAAADhlWElmTU0AKgAAAAgAAYdpAAQAAAABAAAAGgAAAAAAAqACAAQAAAABAAAB9KADAAQAAAABAAAB9AAAAABUpuy6AABAAElEQVR4Ae3dBZgcRdrA8Xd8d2MQgiZYcIcEJ+jB4e4cdseh9+GWEBcSQoLe4YfDoQcHhx8Owd0hEAJECBDiuzv+dc2wySas9OxM91RX/ft59tnZmZ7uqt9bO+90dXdVSETyzg8LAggggAACCARYIBzgslN0BBBAAAEEEPhNgIROU0AAAQQQQMAAARK6AUGkCggggAACCJDQaQMIIIAAAggYIEBCNyCIVAEBBBBAAAESOm0AAQQQQAABAwRI6AYEkSoggAACCCBAQqcNIIAAAgggYIAACd2AIFIFBBBAAAEESOi0AQQQQAABBAwQIKEbEESqgAACCCCAAAmdNoAAAggggIABAiR0A4JIFRBAAAEEECCh0wYQQAABBBAwQICEbkAQqQICCCCAAAIkdNoAAggggAACBgiQ0A0IIlVAAAEEEECAhE4bQAABBBBAwAABEroBQaQKCCCAAAIIkNBpAwgggAACCBggQEI3IIhUAQEEEEAAARI6bQABBBBAAAEDBEjoBgSRKiCAAAIIIEBCpw0ggAACCCBggAAJ3YAgUgUEEEAAAQRI6LQBBBBAAAEEDBAgoRsQRKqAAAIIIIAACZ02gAACCCCAgAECJHQDgkgVEEAAAQQQIKHTBhBAAAEEEDBAgIRuQBCpAgIIIIAAAlEIEDBVoEf3kKywfFgifG2tWojzzp4/+zInmYx6xIIAAl4KkNC91GXbvgus1Tssp50Qk4P3jUmP7r7vnh02E/jgk5xcMCxJMm9mwkMEvBQgoXupy7Z9E4hEQjLsgriceXJMorRq39xb2tFPv+Rl2NiU3HFfRnI5jsxbMuI5BLwQ4KPPC1W26atA504hueemGvnDDhFf98vOFhdIpUSuuTktl1yVknnzSeSL6/AXAt4LhJxd8J/nvTN78EggHA7JA7fWyJ5/IJl7ROxqs489k5X+I5IyaXLO1frlrLRUt5BsvXlE1lgtLD2WCTmnVkLStYvInHkiv87Ky8xf8zJ1ek7eeCcn0370vjzl1IX3IlBJAY7QK6nJtnwXOOuUGMncd/VFO/zk85ycPywlL03ILHrSo0dbbBaRC8+Myx67RCTs8kLH737Iy4Q3s3LH/Rl5+TXvy+hR1dksAq4EOEJ3xcRKOgosv2xYPplQJ53qdCyd2WX65VeRkeOScsu/MpLNetvJt6xzFD68f0KOP7K8449HnszKwIv96UUwO/rUTlcBl99zdS0+5bJZ4KhDoiRznxtAxjnI/ftNadmo3wK56c60p8lcXeh46p/j8tErncpO5opp/z0j8v4LdTJ6UEK6dVXHMiwImCXAEbpZ8bSqNi8+Widb9uE7qV9Bf+LZ4nnyryd5f156+20icvnIhGywrjfxVT0MI5wehlt96GHwKz7sBwESOm0gsALff9SZe819iN7nX6n7yVPy3Mven4PuuWLYOYKOy6H7l9e97pbl0y9ycuHwlDz/ivd1c1sm1kOgowIk9I7K8b6qC9RP6Vz1MphcgF9ni4wan/K8a10ZxuMhOf3EmAw4Ky51tf6rqt6HAc5V+hN96H3wv3bs0RYBErotkTawniR0b4KazYrccHtaLr48JbNme3vBm6rB7rtEZfzwhKyxuvo4qt6irg+47ta0jLkyJbPneF/v6tWUPZsqQEI3NbIW1IuEXvkg/+/FbGG41i+/9v48+eqrhuXSYQnZeze9xhBo6pn4511phq2tfBNjix4KkNA9xGXT3gqQ0Cvn+9U3eedcclKeft77c8l1tSE5//S4nO2MIRCPV64Old7SFxPzhcFynnnBe5NKl53t2SlAQrcz7kbUmoRefhhnzxEZfUVKrr/Nn6PRg/aJyiVDEtJrpep2r5ci98wLxav7v5jofa9FKeViXQSWFCChLynC34ERIKF3PFQ5Jzf9865MYXCYmc5wqV4v660dLtyGtuN2enWvu623uq7gxjuK1xWo4WVZENBRgISuY1QokysBErorpt+t9Pwr6jx5ypmn3MlSHi9du4Rk4DlxOe0vMYkEM5cvJtTUo6EuGkynSeyL4fBH1QVI6FUPAQXoqAAJvTS5b77Ny4CRSXnsGe/PCYdCIfmTM5LfqIFxWa5HcLrX3YpOnORYOre5PfGs95Zuy8R6CJDQaQOBFSChuwvdXGcWMnUr1rW3+HNU2WdjZ5S3UQkrRvFTvR1qYJpPv/C+t8NdtFnLZgESus3RD3jdSehtB1CdJ7/tnowMvzQpP8/0vnt4maWLk6j8+aioOAfo1izKWU1Soyar8cPZGlgqWrIACb1kMt6giwAJvfVIvDTBOU/uHDl+/Jn3R45qEpW/Hh2VoRckZKlurZfJ9FeaekLU4DSplPdfoEz3pH6lC5DQSzfjHZoIkNB/H4hvv8vLRaOS8siT/pzb3XbLiFzhdK9vtL43k6j8vob6PzNpcjEGjz7lTwz0F6GEfgmQ0P2SZj8VFyChLyKdN1/k0r+nClOb+nF0uMJyxUlUjjjIn0lUFtU0OI9UL8l5Qzm/HpyIBb+kJPTgx9DaGpDQRfJOz+4d92Vk2NiUzPjZ+4FPolE1R3lMBp0bly7MjdPu/546v64G7fFrXPx2C8QKRguQ0I0Or9mVsz2hT3gzJ+cPTcoHn3h/nly1pH5bR+TKixOy/jp0r5f6nzVzljhfuorzr+dynF8v1Y/13QmQ0N05sZaGArYm9O+nFM/RPvSYP+doV1y+2L1++IF0r5f7b/DRZzk5d3BSJrzpz5ewcsvL+4MlQEIPVrwobTMB2xL6gnqR8f9IyVU3pqWx0fujPNW9rkZ4U93rnTs1g+dh2QIPPJKRgRenZMo070+TlF1YNhAYARJ6YEJFQZcUsCmh3/1gRoaMScn0Gf4kgB22jTpXr8dFjcHO4o1AQ6NzIePV/n1B86YWbFUnARK6TtGgLCUJ2JDQ33ineJ783Q/96aJdaYWwjBkcl0P3p3u9pMZYxsrf/VCcupbb3MpA5K0FARI6DSGwAiYn9CnT8jJodEru/0/al/jEYsXudTWRCt3rvpD/bicvvOrc5jYkKZ9/5U8vzO8KwBOBFyChBz6E9lbAxISuumEvuyYlV1yfloYG78+Tq9az43aqez0h666lPg5YqimgpmlVI82pOepnz/En/tWsL/uurAAJvbKebM1HAdMS+n0PZwpH5VOn+3OE1nPFYvf6IfvRve5js3W1q19+FRl6SVJuvzcj3ObmioyVHAESOs0gsAKmJPS33y+eJ3/rPX/Ok6vu9f/7a0wuOjsuneoCG34rCv7BJ8Xb3F5/25+2YQWqwZUkoRscXNOrFvSEPu3HvAx2rly/96GMM+KbP92rO/eLFqY2XWdNuteD9P/hd+9NkGwo6yIBEvoiCx4FTCCoCb3ROU9+5Q3pwj3l9T6dJ++1UlguGRKXg/ahez1gzXxhcesbRMY6t7ld7YxDkEz68wVw4c55EAgBEnogwkQhWxIIYkL/938zzmxoKflhqj/nyVX3+hknxWTAWXGpq21JkeeCJqBm1LtweFIee8afkQKD5mNzeUnoNkc/4HUPUkJ/76PieXI/z4Xusr1z9boz9vpaveleD3hTb7H4z76ULYzl/+XX/nw5bLEQPKmVAAldq3BQmFIEgpDQf/wp71ytnJK7HvDvPLnqXh87NCEH7h0phZN1AyiQcQ7Sm25zmzOXbvgAhrCiRSahV5STjfkpoHNCTyalMDe5mqN8/gJ/Pmjj8WL3ev8z6V73sx3qsK+fZ+YLQwOrqXT9usBSh3pThsUFSOiLe/BXgAR0TegPP551zpMn5bsf/OsK3W2nqFw2MiFrrk73eoCacMWLqk7tnD0wKW+/z21uFccNwAZJ6AEIEkVsWUC3hP7hp8Xz5K++4d+H6aorh+XSYQnZd3e611tuJXY+qwakGTImKerIncUeARK6PbE2rqa6JPSffsnL8EtTvo7qVVsbknNOjcl5f4tLImFcaKlQBQTmzBUZMS4lN96RlmyWxF4BUu03QULXPkQUsDWBaif0tDNvyj/+mZZLrkrJvPn+fWDut0e0cFS+Si+611trGzy/SOCTz51u+EFJmfCmfz1Hi/bOIz8FSOh+arOvigpUM6H/9+msDBiZlEmT/TtPvvYa4cJ58j/sQPd6RRuSJRtTIxIOvDgl02f412YtodWmmiR0bUJBQUoVqEZCV0c75w9LyUsT/BvUo3OnUGFgmNNPjEmUgd5KbSas30xg/gKRiy9PybW3pCWd9q9XqVkReOihAAndQ1w27a2AnwldzX41YlxSbv1XxtfzkYcfGJPRg+Ky4vJ0r3vbmuza+lff5OUcpxv++Vf8+2Jql3B1aktCr447e62AgB8JvVoDd2y0fqQwR/m2W4YrIMUmEGhZQN1i2X9E0rehiFsuBc9WSoCEXilJtuO7gNcJ/cnnsoUxs7+e5N85x6W6hWTI+XE56diYhMnlvrcpG3fY4EwWdKkz6YuaMIhJX4LdAkjowY6f1aX3KqF//lVOLnDOkz/3sn/dkaFQSI47IiojBiSkR3erw0rlqySgJn05b2hSnnzWv3Zfpaoau1sSurGhNb9ilU7ov84WGTU+JTfd6e99u1tsFinMUd53Ew7JS2m1M37Oy6+z1I/ITOe3mlK++1LOz9Khws8Ky4XE+Z7EUqKA6pk630nsft7BUWIRWb0VARJ6KzA8rb9ApRJ61rk994bb04Wrf2fN9u/K32WXCRWOyNWROUv7AqmUyAOPZuSBRzLy1ntZmT2n7Vh16RwS9WXp4H2jcviBUaaPbZ944RrK+orr0zLOmYugvqFt54Vv4kHVBUjoVQ8BBeioQCUS+jMvFM+T+zkFZSQSkpOPi8ng8+LSrWtHa2/X+x55snjf/+TvO3Y9Q88VwzLqonghsdslV15tp0wrzr3+8ON0w5cn6c+7Sej+OLMXDwTKSejqtp0Lhyfl6ef9/aDqt3Xx6vUN1qV73U2T+Piz4n3/L79WmTht1Tci44YnZPNN8Xfj37TOC69mC7e5+fnFt2nf/HYvQEJ3b8Wamgl0JKHPniMy+oqUXH9bWjIZ/7oSV1ohLGMGx+XQ/eled9OMmu77v+XujORylY2TugDxqEOcCxD7c3+/m1g0raNu4VRDHY+50t+hjpv2z+/2BUjo7RuxhqYCpST0nNNTqy52Uxe9qQuo/FrUHOX/99dYYaS3TnV+7TW4+/Hzvv9OdSE5//S4nHlSjAluSmgy02fknemBU3Lfw85kBixaCZDQtQoHhSlFwG1Cf/6VbOE2tM++9HdyCuYoLyWaIk/9dt//RB/v+1clVFPQjh6UkAP3Zoz8UiL22lvFSV8+/szf/6tSymjbuiR02yJuUH3bS+jffJsvjIL1+P8qc/7VLd2avcNyyZCE7LUrCcKN2Zdf550vXEn534v+xmnJsm2/TfH8+sbrc359SZvW/lY9X+oOkZFOz1d7dx20tg2er5wACb1ylmzJZ4HWEvrcecXz5Nfd6u8EFN26hqT/mXE57S8xicV8xgjg7tT1DGqiEJUQ/LyeoS2qcDgkxx8ZlaEXxEXdVsjiTuDnmXkZ5MzkdtcDGWc8AP9OabkrnT1rkdDtibVxNV0yoaujBTV5ippERX3A+LWoJPDno1QSYJQ3N+YqTv+8KyMjnTj5eT2Dm7I1rdO1S3GGO76cNYm4+/3muzk566KkfPgp3fDuxCq7Fgm9sp5szUeB5gn9pQnOefLhKfH7fN6O20Xl0qFx2YhuWleRV7c/qWF1P/0iGB/4nD5xFdbFVlJf2NQFqMMvpRt+MRgf/iCh+4DMLrwRUAldjT89YGRSHn3K3/Ovq69avJBq/z05T+4mupMmF+P036f9jZObsrlZ5w87RAv3r6+7Ft3wbrzUOurWw0EXJ+XO++mGd2tW7nok9HIFeX/VBM45LV64LzaV8q97XQ0neuEZ8cKtaPF41aoemB3PXyCF+5avuTktfsbJC6BoNCQnHlMc4W+pbl7swcxtvvVesRv+g0+C0SsT5CiQ0IMcPcrum4A6T37MYVEZ7gxGslwPjtLcwN/7UEYGOhdKTZ/h9MEatPToHnLaQaJw8RyTv7gLrLpO7qY7M043fFL8nC/BXenMWYuEbk4sqYlHAtttVbydadMNuZ3JDfFHznCtZw9Myutvm31E1mfj4ix5W/ahXbhpF2od1Q0/eHRS7riPbni3ZqWsR0IvRYt1rRJYpZc6Tx6Xg/ZhuFY3gZ/lTD+rjsDUFeyVHq7Vzf6rsY4aRvboQ6My0pn4hZ4b9xFQ3fDqS9/7H5v9pc+9SGXWJKFXxpGtGCTAkKClBVN1p6ox14eN1fc2tNJqVPra6ja3gecUxyCIcJ2kK0DVbtSXP9Vu6IZ3RdbuSiT0dolYwRYBJu0oPdLqvmN1pMUFT0W79dYOy2UjE7LTdmR1t61p5qxiN/zt99IN79astfVI6K3J8LxVAltvXjxP3ncTzoe6CfyMn52RwUan5F8P8iHckpc6TaOG/+21kvqIZXEj8Pb7xS+H731EN7wbr5bWIaG3pMJz1gj0WiksFw9kWlO3AVezoV17S7owZOu8+f7dLui2fDqtV1dbnM3t7FNiwi2O7iKjuuFv/u30za8+zorornT6r0VC1z9GlNADAfVhq+5jP+fUmNTUeLADAzepRnk7d3BSvpho1m1oXodKDUI0bjiT9ZTirLrhh4xJym330ANUihsJvRQt1g28gDpPftgBURnlXJXcc0W6Q90E9IepeblweFL+80QwR3lzU0c/1tl9l6iMdxL7GqvT7tx6v/NBsRv+3Q/phndjRkJ3o8Q6RghssVnxPDn3DbsLZzIpcvl1aRl/TUoaGuhed6fW9lrxeEhOPzFWmJWvU13b6/JqUaDpLoqhztXwdMO33SpI6G378KoBAissVzxPfuTB3E/uNpyPPaMmUUnK5O/pXndrVsp6PVcsjnFw6P60SbduvzrjHDR1w9syzoFbm6b1SOhNEvw2UuDwA2NyuXMb0dJLGVm9ildq4qS8nDckKf97ke71iuO2sMF+WzujzTntc8P1uLuiBZ4Wn3r3w2I3/Dsf0A2/JBAJfUkR/jZCQE2ictOVNbLfHtwP7CagC+pFRl+RKkx2k07Tve7GrFLrRCIhOelYJn0pxbOpG36wc+Hc7Dm01yY7EnqTBL+NEVi5Z1geur1GNliXox43Qb3v4eIkKtN+pHvdjZdX66hJX0YMSMhxR0SFSV/cKX/3Q14OPLaBOy9+4yKhu2s3rBUQgdVWCcvz/6mVFZZTTZulLYGP1SQqg5Ly2lt0Xbbl5PdrfTcpTvqyxWZ8IXVjrwY52n7vBpkyjS+kJHQ3LYZ1AiHQfemQvPBInazVm2TeVsBmz1k0iUo2S3dlW1bVek3dXqmm61WTviy7DO25vTh88ElOdj2wQeotvxtDnWAc1h4WryMQBIHbr62VbTbnqKa1WKnzjrf+KyOH/aVBXnkjK+pvFn0FPvw0V4hXTSIk6qg9TNNuNViqR265ZcPy+P/svpiTI/RWmwgvBElgnz9G5f5bGPKttZip6SrPcbrXGSe7NSG9n19/HXU1fFx22JaLPFuLVM7pce+7S718+bW9Xe8k9NZaB88HSuC9FzrJumvRNblk0H76xZlE5eKU3M0kKkvSBPJvNenL2KEJRjlsJXoPP56VP53c0Mqr5j9NQjc/xsbXcNstI/LsQ7XG17OUCmad69yaJlGZO4++9VLsdF9XzUNwwRlxOetkJn1pKVZr9K2X6TPsPErnrExLLYLnAiWgBo9hWSTw4oSsbLlbfWH8dZL5IhdTHqkLv4Y5w6D2cbqXn3yOOxSWjOuOFs9FT0JfsjXwd+AEttuSZqyCNmVaXo4+pVH2OrxBPv/KziOUwDXeMgo8aXJODj6uQQ46rlG++ZZemCbKlXvae+qNT8KmVsDvQAqoEeHWX8fuZtzQKDJyfEo22bFeHnrM7qt8A9mIyyz0U89lpO8f6uWiUSmZN7/MjRnwdpvv3rD7k9CAxmt7FVZd2e4mrEZ523j7ehlzJTOi2fy/kErl5crrU7JRv/rf5hC3VyOVsrfudn8a2ht3Y2reayU7u9fUPNE7798gfz69UaZOp3vdmAZdZkV++iUnp53fKNvt2SAT3rSzXaTTZSIG+O0k9AAHj6KLLOOMf23TMn1GXk48Oyk77tsgb77LBVE2xb6Uun7wSVZ2O7i+cE3FD1PtOr+esnhyIRJ6Kf8lrKudQCKuXZE8KVAyKTLu7+lC9/rdD6SdUd7s+pD2BNWCjaprKtS1FSPGpZxhUS2osFNFutztiDO1NFBADYtp+qIGy9h0p3oZ6tyqtKCeRG56vCtdv8bGvFxyVarwZfCef5t/0WSKLvdKNyG2h4A/AhGDR8L8yJkNbfdDGwojX333g53nQ/1pRXbsRU2Pe8KZjbLTfg3y9vvmtqc0Xe52NGhqiUAQBH6emZf/uzAp2+7hTKLyOufJgxCzIJXxrfeyhaR+wplJmfajeT0+dLkHqTVSVgQMFcg4vaFX31g8T37L3WnJ5cz7sDU0dIGrlroG455/p2WTHepl7NVpUddomLLQ5W5KJKkHAgEVUEN4qqE8+49Iypy5JPKAhjFwxVbXZAy/NGnUoEQk9MA1QwqMgBkCaojW/f7UWBjC8+tJ5p7XNCNa5tbi+ym5wi1uux3cIBMnBfsLpRpkx9aF29ZsjTz1rqrArNkiZw9MOpOoNMizL5l/5XFVsdm5a4EJb2al3171ou6sCOrCOfSgRo5yIxBAgdffzslWf6yXG25PSzZr79FEAENnRZHnzc8X7qwYPCaYY6jS5W5FM6WSCFRf4PZ7M/LHQxqcmdHoXq9+NChBWwKXXZOSo05qlEZn8p8gLXS5BylalBWBgArcdk/GGWc7yVF5QONnY7H/80RGDjo+WEmdI3QbWyp1RsBHgTffzckZA5IM2eqjObuqjMCLr2bksBManS+ildme11vhHLrXwmwfAYsFFtSLHHtao2QynC+3uBkEuurqws1Bo4NxTp3Z1gLd1Cg8AnoLXHtzWn6YyjlzvaNE6doTuOqGlLz8mv6H6cy21l4keR0BBDokoGa4utL5IGRBwASB/iNSzmkjvWtCl7ve8aF0CARW4KnnMjJrtuafgIHVpeB+C6h51p97We+jdC6K87tVsD8ELBEI8gAdloSIapYocO/Deg+ExGxrJQaU1RFAwJ3A62/rfTTjrhashcAigaedXiddF5sviFMxYehXXVsm5Qq8gBreVc1BzYKASQIzZ+Vl6nQ9TyPZ3N2u2hgJ3aT/NOqilcBEJlvRKh4UpnICalIhHRebL4hT8SCh69gqKZMRArPn6HkUYwQulaiqgK5t2+Zb1lSDIKFX9d+CnZssMH8BCd3k+Npct7nz9Kw959D1jAulQiDwAg0Bm9Qi8OBUwDeBhkY9v6zS5e5bE2BHCCCAAAIIeCeQTOn5RcO7Gi++ZbrcF/fgLwQQQACBgApwlXtAA0exEUAAAQQQaC5Al3tzDR4jgAACCCAQUAEuigto4Cg2AggggAACzQW4ba25Bo8RQAABBBAIqABd7gENHMVGAAEEEECguQAXxTXX4DECCCCAAAIBFUhx21pAI0exEUAAAQQQaCbARXHNMHiIAAIIIIBAUAXocg9q5Cg3AggggAACzQS4KK4ZBg8RQAABBBAIqkAmy9CvQY0d5UYAAQQQQGChQDa78KGVDxjL3cqwU2kEEEDAPAESunkxpUYIIIAAAhYK5HIWVrpZlTlCb4bBQwQQQACB4ApwhB7c2FFyBBBAAAEEFgqQ0BdS8AABBBBAAIHgCmTpcg9u8Cg5AggggAACTQJZbltrouA3AggggAACwRWgyz24saPkCCCAAAIILBSgy30hBQ8QQAABBBAIrgBH6MGNHSVHAAEEEEBgoQAJfSEFDxBAAAEEEAiuAAPLBDd2lBwBBBBAAIGFApnMwodWPmCkOCvDTqURQAAB8wS4bc28mFIjBBBAAAELBbjK3cKgU2UEEEAAAfMEuCjOvJhSIwQQQAABCwVI6BYGnSojgAACCJgnQJe7eTGlRggggAACFgpwhG5h0KkyAggggIB5AiR082JKjRBAAAEELBTI5fIW1npRlbkPfZEFjxBAAAEEAizAEXqAg0fREUAAAQQQaBIgoTdJ8BsBBBBAAIEAC3CVe4CDR9ERQAABBBBoEuAIvUmC3wgggAACCARYgIQe4OBRdAQQQAABBJoE6HJvkuA3AggggAACARZgtrUAB4+iI4AAAggg0CTAfOhNEvxGAAEEEEAgwAK5XIALX4GiRyuwDTaBAAIIVF0gFApJJCKFn7AzZFbE+VG/mxbn5cKijuIW1Ns9oliTiWm/bb8ojoRuWoumPggYJBCPh2Tj9cOy9prOzxphWXmlkPRYJiTLdA9J96VCUlsrUlvj/K4RicXcV1wdyc2bL/L1tzl5/+OcPPdSRh57Jiu2n4N1L6jnmiR0PeNCqRBAwFKBWCwkhx8QlYP2icoO20akzknalV7UkXu3riJ9NwkXfv56dFSmTs/LRaNS8sAj6Urvju35JGD7Ve4cofvU0NgNAgi0L3DYATG5eGBceq74W/94+2+p2Bpqn7dfk5DNNgo7iT1Zse2yIf8EbD9Cb3aGyT909oQAAggsKTBueEJu+0eiKsm8eVnOOiUmRx5cQv998zfzuKoCtp8yIaFXtfmxcwQQUAJnnhyXv52gTxIdOzQh6vw9S7AEOEIPVrwoLQIIGCagLnYbdVFcq1r16C6Fc/haFYrCtCtg+zl0jtDbbSKsgAACXgqcc1q8cKuZl/voyLZ339m5B44lUAIcoQcqXBQWAQRMEuhUF5IjDtTz2tzNNiahB62t5S0fXoAj9KC1WMqLgEEC6ra0uF697Qt111w9JGqwGpbgCNg+UhwJPThtlZIiYJzAzv30PQpW96p3qjOOnAoZLEBCNzi4VA0B3QU2XE/vj6CuXThC170NNS8fR+jNNXiMAAII+CiwVm99E/qCepGffrH8pKyPbaESu+IceiUU2QYCCCBQokBtbajqg8i0VeTX3spKJkNCb8tIt9c4QtctIpQHAQSsEOjhTLCi8/Ly61mdi0fZWhDgCL0FFJ5CAAEEvBbQPqG/RkL3ug1Uevt5yzO6viewKh1ptocAAloJqClQdV3SzoRrH3zizLHKEigButwDFS4KiwACpgh06axvTT77KifpNOfP9Y1QyyWzPWIcobfcLngWAQQ8Fqip0fcI/aNPOTr3OPyebJ4jdE9Y2SgCCCDQtkBtTduvV/NVEno19Tu+b8tPoQtH6B1vO7wTAQTKEKjV+Aj9i4kcoZcR2qq9lSP0qtGzYwQQsFkgquecLIWQTJ1OQg9i2+QIPYhRo8wIIBB4gYi+w7jL1Om2X14VzObFEXow40apEUAg4AJq8hMdl7nzRObNJ6HrGJv2ymR71DT9l2ovbLyOAAJBF4ho+ulDd3twWxZd7sGNHSVHAIEAC+ja5U53e3AbFV3uwY0dJUcAAQQqLjBlmu0dtxUn9W2DJHTfqNkRAgggsEggpOm4MnS5L4pR0B7R5R60iFFeBBBAwEOB6TM4QveQ19NNk9A95WXjCCCAQLAE5i8IVnkp7SIBEvoiCx4hgAAC1gs0NHCEbn0jCCiApjeOBFSTYiOAgGuBkKYn0esbXFeBFTUTYD50zQJCcRBAAIFqCtRzhF5NfvZdhgBH6GXg8VYEEDBPoIEjdPOCakmNSOiWBJpqIoCAOwGO0N05sZZ+AiR0/WJCiRBAoIoCnENvH1/HUf5sv8JdRY2E3n7bZQ0EELBIgCP09oPdpbOmowK1X3Sj1yChGx1e8yun85za5uubWcNk0sx6VbJWOiZ0jtA5Qq9kG2dbVRCoSVRhp+zSaAESQ/vhXXVl/Y7QiRsJvf2WyxpaC9TV6vfBojUYhWtXIMe4Mm0aJRIh2WAd/Tp3Segk9DYbLi/qL7ByTxK6/lEKVglJDG3Ha5stIsKprraNqvWqfl+zqiXBfgMpsNoqNOFABk7jQpPQ2w7OicfE2l6hSq8SN47Qq9T02G0lBNSFOZtuSEKvhCXbWCRg+5zaiyR+/2jzTSOy3x6R37+gwTMkdBK6Bs2QInRUYM9doxKPd/TdvA+BlgVIDC27LL9sWO66vkZ0vAe95RLb9yyHN/bF3Iga1zoXww05j2xuRDA1qwQJ/fcB2XG7qLz+dK2s0kvfa1aIm0j096HjGQT0FqipCcmNlyek92r6frjoLUjp2hLIcZm7hMMhWat3SLbePCJ/PiomW/bR/9iPhE5Cb+v/mtc0E1AfMnvsEpFBzpE55841C45BxXnmwTqDauO+Kmo2286dRbo616Yst2xIOtnJ4B5MwzU5QneC0qN7SHquqP83UA3bj2dFqq11Plw6haSL8wHTe7WwbLJBWNTtMj1X5KjcM3Q2XBDotzWfBUFsCgwfwBF6od3efHWN7LaTnlduBvEfizIjgAACCPgvYP1X0b6bREjm/rc79ogAAgggUGEB6xP6aX/Rc5CECseZzSGAAAJGC3BRHPehyw7b0tVu9H85lUMAAQQsEbD+CF1deMWCAAIIIIBA0AWsT+jqVg0WBBBAAAEEgi5gfUIPegApPwIIIICACOfQOYfO/wECCCCAAAJGCHCEbkQYqQQCCCCAgO0CJHTbWwD1RwABBBAwQoCEbkQYqQQCCCBgtwDn0DmHbvd/ALVHAAEEEDBGgCN0Y0JJRRBAAAEEbBYgodscfeqOAAIIIGCMAAndmFBSEQQQQMBeAc6hcw7d3tZPzRFAAAEEjBLgCN2ocFIZBBBAAAFbBUjotkaeeiOAAAIIGCVAQjcqnFQGAQQQsFOAc+icQ7ez5VNrBBBAAAHjBDhCNy6kVAgBBBBAwEYBErqNUafOCCCAAALGCZDQjQspFUIAAQQQsFGAhG5j1KkzAggggIBxAiR040JKhRBAAAEEbBQgodsYdeqMAAIIIGCcAAnduJBSIQQQQAABGwVI6DZGnTojgAACCBgnQEI3LqRUCAEEEEDARgESuo1Rp84IIIAAAsYJkNCNCykVQgABBBCwUYCEbmPUqTMCCCCAgHECJHTjQkqFEEAAAQRsFCCh2xh16owAAgggYJwACd24kFIhBBBAAAEbBUjoNkadOiOAAAIIGCdAQjcupFQIAQQQQMBGARK6jVGnzggggAACxglEjauRhRXK50XmzhOZvyAvuZw5AGHn62ZtbUi6dBKJxcypFzUJrkAm4/yvzRepr8+L+r9j0Udg7jwCQkLXpz26Lsmvs0XufiAtr7yelfc/zsnU6QZl8RYUwuGQ9FopJJttFJaD9okWfiKRFlbkKQQqLPDtd3m54760vPleTj74OCuz55A0KkzM5iooQEKvIKbXm8pmRYaOTcm1t6SlsdGeD5ZcLi/fT1E/OXnkyYxcdm1E7ryuRtbqHfKanO1bKtDQKHJ6/6Tc+1DG6fWy53/N0nAbU20SekBCmUqJ7H1kg0x408nqli8ffZqV/Y9ukFefqJPuS1mOQfUrLpBMiux6YIPT+8X/WsVx2aCnAlwU5ylv5TZ+3tAkybwZ5+Tvc3LFdc63HBYEKiww9uoUybzCpmzOHwESuj/OZe3lq2/y8s8702Vtw8Q333J3WtRpCBYEKiWgLnS78Q7+1yrlyXb8FSCh++vdob3dxAdMi26zZuflsy/NviCwxYrzpGcC6iLTX2dxztwzYDbsqQAJ3VPeymz82Zece2VYWhT44BMSeoswPNkhganTSeYdguNNWgiQ0LUIQ+uFmL9AZOIkPmRaE/r5F2xas+H50gWSSdpT6Wq8QxcBEroukWilHN9+l+O2mVZs1NNz5/MB3AYPL5UoUFPDrZAlkrG6RgIkdI2C0VJR5jmjUrG0LtDQ0PprvIJAqQKrr0JCL9WM9fURIKHrE4sWS8Jwhi2y8CQCngisviofiZ7AslFfBGi9vjB3fCcZbsvqOB7vRKBEgbraEt/A6ghoJEBC1ygYFAUBBBBAAIGOCpDQOyrH+xBAAAEEENBIgISuUTAoCgIIIIAAAh0VIKF3VI73IYAAAgggoJEACV2jYFAUBBBAAAEEOipAQu+oHO9DAAEEEEBAIwESukbBoChmCaiZu1gQQAABvwRI6H5Jsx8EEEAAAQQ8FCChe4jLphFAAAEEEPBLgITulzT7sU6ALnfrQk6FEaiqAAm9qvzsHAEEEEAAgcoIkNAr48hWEEAAAQQQqKoACb2q/OzcZIFczuTaUTcEENBNgISuW0QojzECWWbKMyaWVASBIAiQ0IMQJcoYSIEsR+iBjBuFRiCoAiT0oEaOcmsvkM0ysoz2QaKACBgkQEI3KJhURS+BTEav8lAaBBAwW4CEbnZ8qV0VBZLJKu6cXSOAgHUCJHTrQk6F/RJoaKTL3S9r9oMAAiIkdFoBAh4JNDR6tGE2iwACCLQgQEJvAYWnEKiEQH09R+iVcGQbCCDgToCE7s6JtRAoWWDmrJLfwhsQQACBDguQ0DtMxxsRaFtg5q8cobctxKsIIFBJARJ6JTXZFgLNBH4hoTfT4CECCHgtQEL3WpjtWysw+XuGirM2+FQcgSoIkNCrgM4uzReYPiMv8+bT5W5+pKkhAvoIkND1iQUlMUjgy685OjconFQFgUAIkNADESYK2ZqAroO3vPI6U621FjOeRwABbwRI6N64slWfBObO82lHJe7m2ZdI6CWSsToCCJQpQEIvE5C3V1dg9hz9zlNPnJSXdz+ky726LYO9I2CfAAndvpgbVeOPP9MvcV5+bUpyOf2+aBgVeCqDAAK/EyCh/46EJ4IkMH1GTqZM0yd5TngzJ3c/yLypQWpDlBUBUwRI6KZE0uJ63HZPWovaT5qcl2NObZRMRp8vGFrAUAgEEPBFgITuCzM78VLghtvSMnV6dZPof5/OSr+96+XHn/Q7BeClPdtGAAF9BEjo+sSCknRQYOasvBx8fKPvSV1Nj/qfJ7Ky8/4NcvgJDaLjBXodJOVtCCAQQIFoAMtMkRH4ncBHn2alz8718n9/jckh+0VlvbUr91017fToq3HZVS/AxG9y8qXz8/Z7OXnt7awkk9XtGfgdBE8ggIC1AiR0a0NvXsXVUKtjrkwVfjp3Cskaq4Vl6aVDUlsjEo0sqm/+txysfmedHvKsc8t44cd5rBJ0o3PkrQasUUfgs2YzhOsiOR4hgIDOAiR0naND2TosMH9BXj50jtpZEEAAAVsEKtcvaYsY9UQAAQQQQEBDARK6hkGhSAgggAACCJQqQEIvVYz1EUAAAQQQ0FCAhK5hUCgSAggggAACpQqQ0EsVY30EEEAAAQQ0FCChaxgUioQAAggggECpAiT0UsVYHwEEEEAAAQ0FSOgaBoUiIYAAAgggUKoACb1UMdZHAAEEEEBAQwESuoZBoUgIIIAAAgiUKkBCL1WM9RFAAAEEENBQgISuYVAoEgIIIIAAAqUKkNBLFWN9BBBAAAEENBQgoWsYFIqEAAIIIIBAqQIk9FLFWB8BBBBAAAENBUjoGgaFIiGAAAIIIFCqAAm9VDHWRwABBBBAQEMBErqGQaFICCCAAAIIlCpAQi9VjPURQAABBBDQUICErmFQKBICCCCAAAKlCpDQSxVjfQQQQAABBDQUIKFrGBSKhAACCCCAQKkCJPRSxVgfAQQQQAABDQVI6BoGhSIhgAACCCBQqgAJvVQx1kcAAQQQQEBDARK6hkGhSAgggAACCJQqQEIvVYz1EUAAAQQQ0FCAhK5hUCgSAggggAACpQqQ0EsVY30EEEAAAQQ0FCChaxgUioQAAggggECpAiT0UsVYHwEEEEAAAQ0FSOgaBoUiIYAAAgggUKoACb1UMdZHAAEEEEBAQwESuoZBoUgIIIAAAgiUKkBCL1WM9RFAAAEEENBQgISuYVAoEgIIIIAAAqUKkNBLFWN9BBBAAAEENBQgoWsYlOZFChOh5hw8NkiAtm1QMKmKFgKkCy3C0HohunRq/TVeQSDIAp1p20EOH2XXUICErmFQmhepc+dQ8z95jIAxAl1o28bEkoroIUBC1yMOrZZiheVI6K3i8EKgBWjbgQ4fhddQgISuYVCaF2nF5UOy9FIk9eYmPDZDYIN1+fgxI5LUQhcB/qN0iUQb5dho/Ugbr/ISAsETUF9Se63EF9XgRY4S6yxAQtc5Or+VbY9dSOgBCBNFLEHgjztHS1ibVRFAwI0ACd2NUpXXOWAvPvyqHAJ2X2GBA/emTVeYlM0hICT0ADSC1VYJyZ678gEYgFBRRBcCq60Slr12pdfJBRWrIFCSAAm9JK7qrTz4vHj1ds6eEaigwICz4hLl+2kFRdkUAkUBEnpAWsKmG4bl9BNJ6gEJF8VsRWCnflE5+lCyeSs8PI1AWQIk9LL4/H3zqIvi0ncTuir9VWdvlRJYftmw3HJ1QkJc3F4pUraDwGICJPTFOPT+IxYTeeTuWtlkA5K63pGidEsKqGT+5P21wmAyS8rwNwKVEyChV87Sly11X0rkiftqZZft6bb0BZydlC2w7lpheebftbLuWhyal43JBhBoQ4CE3gaOri8t7ST1//6rRoZfmJB4nA9JXeNEuUSOPzImE56sk7V6005pDwh4LUBC91rYo+2r85Dnnx6T91+ok/335GjdI2Y220GBLftE5MVH6+TacQmprengRngbAgiUJEBCL4lLv5VXXzUk99xUI08/UCsbc25dvwBZVqKeK6oL32qcZF4rW/bh48Wy8FPdKgvwH1flAFRq99tvE5HXn6qVv19SI8suQ/dmpVzZjjuBmpqQ9D8zLh++XCdHHESPkTs11kKgsgIk9Mp6VnVrqhv+hKOj8vGrneSMk+ISi5HYqxoQS3Z+8L4x+fClOhlyflzqai2pNNVEQEMBErqGQSm3SF27iFwyJC7vPl/HkLHlYvL+VgU22ygizz5UJ3del5CVe/LlsVUoXkDAJwESuk/Q1djNmquH5N+31cijzr3r6tYhFgQqIaDuKb9ufI28+kStbLsl7aoSpmwDgUoI8N9YCUXNt7HrjhF5+9k6GT8iIWoeahYEOiKgbpE8+9S4fPRKnRx3RJQR3zqCyHsQ8FCAhO4hrk6bjjiDy532l1jh/PrJx8UkEiGx6xQf3cuy7+5Rec85hXPxwLh06ax7aSkfAnYKkNAti7saae6KixPy5jOMNmdZ6DtU3Q3Wjcjj99bKfTfXSO/V+BLYIUTehIBPAiR0n6B1283664TlsXtq5P5bamWN1WkGusWn2uVZZumQXDm6pvDFb+d+9swd0NhYbXn2j0DHBfgk77idEe/c54+RQlfq6EEJ6dqFIzAjglpGJaLRkPzthHjh1MxJx0YlbNknxLwF+TL0eCsC1RWw7N+1uti67l3N4nbWKbHCxU5q7O1wmMSua6y8LNduO0ULF0+OGx6Xpbp5uSd9tz1nrr5lo2QItCdAQm9PyKLXl+sRKoy9/fJjathOe7pZLQpxi1VdbZVw4dTLI3fVyDpr2v1l7qtvci0a8SQCQRCwPqGn0kEIk79l7LNxuDAW9w2X18hyPaxvIv7i+7i32tqQM7pbojDBjzr1wiLy6eckdNpBcAWs/7SeNJl/4Naa7zGHRQvd8KefGBd1bpXFHIED944Whmvtf2ZMEglz6lVuTV57O1vuJng/AlUTsD6hP/pUpmr4QdixGkZ27NB44WrnHbdj0o0gxKytMqoRA5+4r1buvqFGeq3El7TmVnPnibzwKgm9uQmPgyVgfUK/6/6M1DcEK2jVKO16a4flyftq5K7rVSKwvtlUIwRl7VPdwTB2aKJw0dtO29G93hLmg49mJJXiKveWbHguGALqP3tYMIrqTSkX1Oelri4k223Fh5wbYZXY/3pMTNSx3Tsf5CTLAY0btqqtE3Km4Dv60Jhz0VuN7LJ9xLrb0NzCZ5yOuqNPbZQ5c0nobs1YTz8B9blsfQuucy4OUmOdr74qXZClNNFvv8vL+UOT8sSznLYoxc2vddVsaGpUwC370KPSnvnfb0rLhcOT7a3G6whoLUBC/y086gj96QdqOYLpQHN9+vmsnOck9m++5QLDDvBV/C1qlLfh/RPy56OYQMUN7oef5mSn/RokmbT+2MYNF+toLGB9l3tTbH6Ymi+cS//DDnS9N5m4/b2mM3TsiU43vOrpeOu9nKS5FdAtXUXXUxPunHRszBl3vVa22SLMbGgudKdMy8sBxzTKzF9J5i64WEVzARJ6swC98U5Weq4Ylk03oouyGYurh2o2t223jMifDonJjz+JfPYlR+uu4Cq0krJ/wDlPfuwRMampqdBGDd/Mdz/kZY/DGmTy97RVw0NtTfXocl8i1GrY05uuSMiRB3OL1hI0Jf356hs5OWdwUj75nKvmSoIrceWVVggXpjQ9/EDaayl0/306K6ec2yizZnNkXoob6+otwBH6EvHJO//f6p9ddV+qox7nImGWDgis0iskJxwdk2W6F7vhG7neqAOKrb8lFgvJmSfH5V831shmzsh+LO4Eps/IO180UzJkTFKYWc2dGWsFR4Aj9DZitfmmEWcKyYSooVBZOi7wy69S+AC9/d6M5NU3JpayBNQkKuNHJGSt3nzbdAupkveVN6TlsmtSom5VZUHARAESejtRVV3wxx0RLVw13KN7OyvzcpsC737odMMPSsrb79MN3yZUKy+qSVTU4DD77s6Fm60Qtfj0fQ9nZPCYlEyZxrnyFoF40hgBErrLUC7VLSQDz4nLKcfHnO54l29itRYF7rgv4xyxp+SnX/iAbRFoiSfVJCrnnhZ3fhh3fQmaNv98892cXDCML5BtIvGiUQIk9BLDuf46Eae7My4Mn1ki3BKrq3GzR45PyQ23pyWToQt0CZ6Ffx6wV7RwVL5yT7rXF6K08+D7KXkZNDolDz7K/ZPtUPGyYQIk9A4GVM1WdcmQhPBB20HA396mbm9TFym9/BqjzTWXVJOoqPPkarhWFncC8xeIjPtHStSob42NfEl0p8ZaJgmQ0MuIZlNX6Dmncu9vGYyFt/77vxkZMJLznF06F0/tnPaXmDNlbbmqdrxfXWd52z0ZGTEuJTN+5jSOHVGnli0JkNBbUinxuVV6hQtH6wfsxdFUiXSLra5mvRt7dUquvjFt3TCcahIVNfbBxQPjsvyydK8v1jDa+OPFCVlnDPaUfPwZF1q2wcRLlgiQ0CsY6J36ReUy5/y6mpGMpeMCkyY7k744FzM9acmkL5tuWJxEZau+tBu3rWbipLxcNDIpj/+PUzVuzVjPfAESeoVjHI2GClfCqyviu3Wt8MYt29xTz2ULid3USV/UJCpDL0zICX9iEhW3TXvWbJExVxYvpkynOU/u1o317BAgoXsU52WXKc54pe5hZ7S5jiOnUiJXOQOCXPp3cwYEUWMb/PXoqAy9ICFLL9VxG5veqeYrV3dEqGT+6ywSuU2xp67uBUjo7q06tGafjSNy+SjmpO4QXrM3TZ2eLwwOogYJCfJocztsG5Vxw+Ky0fp0rzcLb5sPn3g2KwNGJGXiJC54axOKF60XIKH70ATUBU9HHRKVURdxwVO53Gp61vOdudeDNtqcGuVt9KCEcOGk+xbwyee5wgVvL7zKeXL3aqxpswAJ3cfoq1uSLjo7Ln87gVuSymX/14POaHOXpGTaj3oftXXuFJLz/y8uZ5zEKG9uY/7TL/nCLWjqVrRcju51t26shwAJvQptYO01wjJueEJ224nb3MrhX1BfHEhE3eam20AiTb0yIwfEZYXl1L8ZS3sCSWdGvn/8s3i9xLz5JPL2vHgdgSUFSOhLivj49967ReXSYQlZfVU+8MthV0N9DnBuYXr4cT26Zrfqq4YHTkjfTThP7jauamChgRen5Pspeve4uK0P6yFQDQESejXUm+0zkVDzWsfkgtPjUlfb7AUelizw6hvF8+sfflqdQUZ6rRQuXCdx2AEM8eY2eO98UJxA5Y13qhMzt+VkPQSCIEBC1yRKPVdUF03F5dD9SQblhKRpGNBhY5Py80x/um3VEMBnnxKTc/8Wl9qackpvz3tNuWvBnohR0yAIkNA1i1K/rZ3b3EYmZMP16K4tJzRqNjd1z/K1t6TFywFIDtkvVvgi1mslTpu4iVdjo8gV16dl/DUpaWjw5wuXm3KxDgImCJDQNYxiJBKSk46NyeDz4rJUNw0LGKAiffNt3rn1KSlPVHgYWTW+gLqwcZst+OLltjk89FhxAp4fpnKe3K0Z6yFQigAJvRQtn9ft0T0kIwYkhNHmyod/7uWsXOCMD//5V+UlkxWWC8uwC+NyzGGMAOg2Kh99lpPzhiTl1Tc4T+7WjPUQ6IgACb0jaj6/p+8mEbnM6Ybfsg9Hg+XQZ518cuMdTnfvP9IyfUZpib1rl5Cc6PSaXHhGXDp3KqcU9rx35iyR4Zcm5Za7uZ/cnqhT02oKkNCrqV/CvtV9zUcfGpWRzmhzy/VQYWPpqEDOyeWvvJ6V19/JFY7Y1djg6mem86OSfndn0hT1s8zS4txSGBZ1G9quO0SkhgveXJErw+tuTcvoK1Iyew7nyV2hsRICFRAgoVcA0c9NdOsaEjWT26l/jkmEcWn8pGdfLgSefal4auOLiaX1gLjYNKsggEA7AiT0doB0fXn9dZxueGfu9R23I6vrGiObyqXmsFcXHzI/uU1Rp666CZDQdYtIieU5aJ+ojB2akJ4r0g1fIh2rV0Bg/gKRS65KFYZsTaXoXq8AKZtAoMMCJPQO0+nzxjpnYJMLnIu1znJGnIvH9SkXJTFb4K4HnAlyxqTkx5/oXjc70tQuKAIk9KBEykU51QVc6t7ovXalG94FF6t0UEBNYatuQ3vnA25D6yAhb0PAEwESuies1d3o7rtEZbyT2NdYnW746kbCrL1Pn5GXQaNTcu9DGcmrMXZZEEBAKwESulbhqFxh4vFQYQ7u/mcy6UvlVO3cUiolctUNxWlNF9STyO1sBdQ6CAIk9CBEqYwyqklfxgyOyyH7MelLGYzWvvXRp7LSf0RSJn/PeXJrGwEVD4wACT0woSqvoNtvU5z0ZYN1GW2uPEk73v3Zl8558qEpefFVPeaYt0OdWiJQngAJvTy/QL1bTfpy8nHFSV+6dQ1U0SmsTwKzZouMHJ+Sm+5MO6Pm0b3uEzu7QaAiAiT0ijAGayPLLhOS4f0TcvyRdMMHK3LelVYNh6uSuErmahhcFgQQCJ4ACT14MatYiTfftDjpyxab0Q1fMdQAbkiNa3/O4JR8+gW3oQUwfBQZgYUCJPSFFHY+UJO+HHt41JmmNS7qyJ3FHoFpP+ZlwMiUPPBI2p5KU1MEDBYgoRsc3FKqpiZ9GXxevHCOnUlfSpEL3roZ5zq3v9+UljFXpmT+ArrXgxdBSoxAywIk9JZdrH12g3WLk77ssC2jzZnYCJ5/xeleH5SUr77hNjQT40ud7BYgodsd/1Zrf8h+scL960z60ipRoF6YMq04G9rDj3MbWqACR2ERKEGAhF4Clm2rqklfLnQmfTmTSV8CG3o1ytuVapS3q1NS30D3emADScERcCFAQneBZPsqvVcLF8aG3+MPdMMHqS08/XzWGRwmKd98S/d6kOJGWRHoqAAJvaNyFr5vz12jMm5YQnqvppoNi64C3/2Ql/OdRP7YM3Sv6xojyoWAFwIkdC9UDd5mIhEqdMFfcDqTvugW5mRSZPw1Kbns2rQ0NtK9rlt8KA8CXguQ0L0WNnT7vVYqTvpy8L6MNqdDiB//X7ZwVM4kKjpEgzIgUB0BEnp13I3Z6w7bRuXykXFZfx1Gm6tGUCdNzsu5Q5Ly9PN0r1fDn30ioJMACV2naAS0LNFocdKXQefGhUlf/AliQ6PIWOfKdTVPeTJJ97o/6uwFAb0FSOh6xydQpVNDx468KFEYSjZQBQ9YYf/zRFYuHJ6UH6Zy9XrAQkdxEfBUgITuKa+dG99iM2fu9VEJ6bsJ3fCVbAFf2hGgaAAABaJJREFUfZMvjPL2/Ct0r1fSlW0hYIoACd2USGpWDzXpy3FHqElfEtKju2aFC1hxFtRLYdx1Nf56Ok33esDCR3ER8E2AhO4btZ07WqpbSNS59VOOj0mYA/aSG8GDj2YKM6JNnU73esl4vAEBywRI6JYFvFrV3XA9pxt+ZEL6bU1WdxODz7/KydmDUvLya3Svu/FiHQQQECGh0wp8FWDSl7a5Vff6yPEpufaWtGQydK+3rcWrCCDQXICE3lyDx74IdKoLiRppjklfFud+9Cln7HXnnvIp0+heX1yGvxBAwI0ACd2NEut4IqAmfbnUGRt+r13tnvRFjb1+tjNH+VPP0b3uSUNjowhYIkBCtyTQOlfzjzs7k74MT8havVVztGdJp6UwMMyYq1LSwNSm9gSemiLgkQAJ3SNYNluaQCwWkr+dEJOLzo5L506lvTeIa7/yelbOvCgpX0ykez2I8aPMCOgoQELXMSoWl2mF5cIy6qK4HHWImZO+/DwzLxeNSsndDziH5ywIIIBABQVI6BXEZFOVE9iqb0Quc25z67OxObe53XJ3RgaPScqs2Vy9XrmWwpYQQKBJgITeJMFv7QTC4eJoc8P7B3u0uY8+y8mZA5Ly5rtZ7YwpEAIImCNAQjcnlsbWpFvXRaPNRQJ0Qfz8BSKjLkvJNTenJZvlqNzYBkrFENBEgISuSSAoRvsC668TkfEj4rLTdvpndTUj2vlDk8KQre3HlTUQQKAyAiT0yjiyFR8FDtw7KpcMScjKPVXz1WuZ/H3xnvKnn+eecr0iQ2kQMF+AhG5+jI2sYW1tSM45NSbnnhaXmprqV1HdU37F9Wm5xLmnvLGR7vXqR4QSIGCfAAndvpgbVeNVeoULR+sH7FW9bviXX8vKGc5Fb199wz3lRjUuKoNAwARI6AELGMVtWWCnflG5zDm/vt7a/t3m9tMv+cLUpvf8m3vKW44KzyKAgJ8CJHQ/tdmXpwLRaKgw7/rAc+LSrat3u8o7Peo3O/eUD3HuKZ89h+5176TZMgIIlCJAQi9Fi3UDIbDsMiFR964fd0RUQqqFV3D58NOcnNE/KW+/zz3lFWRlUwggUAEBEnoFENmEngJ9No7I5aMSsmWf8rvh1T3lI8al5Lpbuadcz2hTKgQQIKHTBowWCDmH6Gpc+MHnxmWVXqUfruec69zu/09GBo1OybQfuejN6MZC5RAIuAAJPeABpPjuBCKRkBy8b1RO+0vM1RH7nLki9zyUlqtvTMvk70nk7pRZCwEEqilAQq+mPvuuisBavcOy355R6bdVRNZZMyzLdA9Jg3Pv+PQZeXnrvZy88EpGnnwuK8kkF7xVJUDsFAEEOiRAQu8QG29CAAEEEEBAL4HyrxbSqz6UBgEEEEAAASsFSOhWhp1KI4AAAgiYJkBCNy2i1AcBBBBAwEoBErqVYafSCCCAAAKmCZDQTYso9UEAAQQQsFKAhG5l2Kk0AggggIBpAiR00yJKfRBAAAEErBQgoVsZdiqNAAIIIGCaAAndtIhSHwQQQAABKwVI6FaGnUojgAACCJgmQEI3LaLUBwEEEEDASgESupVhp9IIIIAAAqYJkNBNiyj1QQABBBCwUoCEbmXYqTQCCCCAgGkCJHTTIkp9EEAAAQSsFCChWxl2Ko0AAgggYJoACd20iFIfBBBAAAErBUjoVoadSiOAAAIImCZAQjctotQHAQQQQMBKARK6lWGn0ggggAACpgmQ0E2LKPVBAAEEELBSgIRuZdipNAIIIICAaQIkdNMiSn0QQAABBKwUIKFbGXYqjQACCCBgmgAJ3bSIUh8EEEAAASsFSOhWhp1KI4AAAgiYJkBCNy2i1AcBBBBAwEoBErqVYafSCCCAAAKmCZDQTYso9UEAAQQQsFKAhG5l2Kk0AggggIBpAiR00yJKfRBAAAEErBT4f7L3raDJfxZGAAAAAElFTkSuQmCC;fontColor=#000000;" parent="25" vertex="1">
                    <mxGeometry x="20" y="12" width="80" height="80" as="geometry"/>
                </mxCell>
                <mxCell id="19" value="Local SASjs Workspace" style="text;html=1;strokeColor=none;fillColor=none;align=center;verticalAlign=middle;whiteSpace=wrap;rounded=0;fontSize=18;fontColor=#000000;" parent="25" vertex="1">
                    <mxGeometry x="10" y="150" width="100" height="20" as="geometry"/>
                </mxCell>
                <mxCell id="26" value="" style="shape=image;verticalLabelPosition=bottom;labelBackgroundColor=#ffffff;verticalAlign=top;aspect=fixed;imageAspect=0;image=data:image/png,iVBORw0KGgoAAAANSUhEUgAAA1YAAAHyCAYAAADoTl+6AAAAAXNSR0IArs4c6QAAAARnQU1BAACxjwv8YQUAAAAJcEhZcwAADsMAAA7DAcdvqGQAAPSzSURBVHhe7L0HnJ3ldSY+qZtkk2zJbjbNzvrnOLtZp2yySRz8T7K78TqOHRvb9N4ZwFTTBMg2AgM2VQYMBkQTCBAgAQIkARIS6r33PqNRbzPSjNpImvM/z3vvuXPuO+/XbpuZO+f5/Z6533fOefv7vd/7zHdLQ3t7O4FvvvmmezXWnn/8x39MixcvLpzj2LeFWKmYNMw6P/xyy61Hpdrhs6/Ws1rtrRST6nfjjTdmZiifchk1b998+10y1D9GjRpVMkPzRmj3y+owa78+8MADRQzFGI0h2jXcP9kfxs2EVR9gaJP6f/7P/6EPPvjAHcOHGBB2idHpQjFyDt50002xeSUx6/xA/lK34cOHF5UV1x7Eik/fKHGOdIhHjNjRR1na4VPyxXFfqqfk49t1nUBdBs4xzng9++yze/hkPuEVfhzjVfKSOSLxkhfOdbloL15D9ROGhJPw3XffDaapBqPmrQmrgQGM/4kTJzIzab2z+2V1mLVfsaZiHQqtr3ptk7UwZNNrGfIRv7/OSRrth93YP2nXcP9kfxg3E1Z9gHrxFuImIRthuXngGAu7bIB1ujQxcXFJzDo/5OYDyiZeGFdXiYVf112OEa/zQ1rY5DwrpY66bGFv1lPqJNRzQfIJlS03e11fHCOd+PAaqktUXqAuF3YdGyIElOC9997LH+WO4X/88cd7CC7hE0880SO/Uhk1b01YDQxg/EtB0npn98vqMEu/+mIKx7JO6vVPGLKBei2LW+dwLGu6CDAcG/sn7Rrun+wP42bCqg8wtEmVm4Qs4JqyuEu6NDE4jotLYtb5IeWCOBZ72rqCsMtNTvv8m6kcl0LJt6/V0y8DlDppW1TZeJUysZlAWqk/XiUOaZFOiDg/L9j8+mt/iBBIUUjyw+fnVyqj5q0vrETUZaWhbwPjXwqS1ju7X1aHWfoV65r+5w+ORThhbcIapf0hGyhrWdI65695/rmxf9Gu4f7J/jBuJqz6AP0FWm+gQ4u9UNKlicFxXFwSs84PXS5uZHIzS1tXMEo0IC/YQf8mmZV9tZ5+GSDqBLu2RZUtPpxLO3COPPCKc/h0foiDH8c6r1BfhOqnCdEhT6pabvmDIoof+Nr3xxQRgM/Pr1RGzduQsMoKE1Z9Hxj/UpC03tn9sjrM0q9Yg0LUMVh3YZN1LWTDMdaypHVOH4fOjf2Ldg33T/aHcTNh1QeoF2i84lw2y+LX59quF/2oGH1TiYpLYtb5oevmn8fVVQsbP40c4xXiQISDpC+FOl//HMe9VU+dj2+XOsEfVTaIOqJsqat/jrrjXI6RXuaKn5f2oXzf71OLDogpQX8XVn49DX0bGP9SkLTe2f2yOkzbr1iDZO3ShM1fs7HeyZoXsum1LG6d89e8pDXQ2Ldp13D/ZH8Yt1hhdeDAgSC3b99OL7zwAv3gBz+gIUOGuAVo9+7dwVhjMrFAa44fP77Ij3Ptx9sdJN2iRYtiY/Cqz6PikvjGG28E7VFE3lI38P7773f/DcRxXHukvuCLL75YSI9znR9uoGnrHkc/375STz8fIWxSLog6is9PI7ESI+c6Bm2FDfXEscT6cWgjbKC0Xft9QnR0dXU5bmYxpY+1/2vff6eIsMHn5zdo0KAe9GNCjJq3b7w1plAnKVOfR9Gvp+8H77zzTrrgggt6EGtmKL5a9Mt/551cvcvlmjVrXH54xbk+7mvE+IfsSUxa77Kuh/t276P1C9bR4o8W0YyR0+ite9+kl299kR4/fygN+d+Dg2kGItP2K9Yrve4KYROfrFeg+HwbiGNZy+LWOX0cOjf2LybNNazvpTKUn7EyzLr2VpO+ZhIGhZWfeP/+/Y5tbW20a9cuJ6ZuuOGGIv7oRz+iPXv2UGtrq7EOOXLkyKC9kvzc5z5H8+fPD/p8nnnmmTR27Nigr9rsL/XsTWJNwEa+s7OTNt30+0UUP3xfHfxWEWGDz88PvOWWWwoM+UOMmrcjR73tyhJKfVDnEHWsUNLE8bzzzqOVK1cGfdVmrcruzTYmEeOvz/Uc8qnjkta7rOvhPf/fnfTDL/6A7v7i92nISYPpB393O33vC4Pojr+9hW7/25vd+ah7Xg+mHUisxX0mLbHGY60P+Uol1gxZ39bccRHtmD25R4yxNkyaazJWpTCUn7Ey7K01AvpHtJCvkUQ7CYuElR8sYgpExnv37qVx48bRddddF+SkSZOc8DLWH1955ZWgvZLETWzOnDlBn+aYMWPoH//xH4O+WrC/1LM3ifXg0KFDQWr/V25/s4iwwefnJ8R/kUP2KEbN21deH1VUp7j6RjFNmnPPPZeWLl0a9FWbtSq7N9uYRIx/yJ7EpPUu63p41xe/R2/fM5qeveJp+j6LqEfPfpgWfjifbvubm2jQ39zoyhz8hUGOr9/1ajCPgcBa3GfS8vrrr6czzjgj6CuVWDNkfVt4yv90XHHbhbRlxsQescbqMmmu4bfsZLyyEOlC+Rkrw1qvEXg3HrQPKAJLRJavmXoIK/14TVSZiCk8iULmO3fupOeee46uueaaAq+++uoCR4wYQVu2bDHWIfF2z5C9kvyjP/ojmj59etAnPO2001LFVZP9pZ69SawHsgDhP0z6WPv/+dZXiwgbfH5+pTJq3g5/5bVCnaRMvKJ+PnWcpm5jFM866yxasGBBkQ3nsINXXHFFwY63N4od7wAQO87xuQ/xvfrqq45y/uSTTxZiNeHzyxZ72vzi6iR56+O+Rox/yJ7EpPUu63qIJ1I7t+yktQvW0OC/G0TDrnmKdmzZQbf89Q10819fX1T2bX97czCPgcBa3Gfi+Pd///du3RaGYsoh1gxZ3+Z86y+KuPims2njJ+N7pDFWh2nm2muvvVYYszREfCgfUM8r8O6773b7AxzLPkEfV4K6PPBnP/tZMC4rq13vONZqjdi6davjtm3b3MefoH+gg6CHRGSJVvLFlRNWOBFhhSAs7vv27XMZQLEhUxTQ0tLi4q666iq68sore3D06NG0YcOG1PzsZz9LH3/8cdCXlpXIw5jMYcOGBe1GY4ih9UEo/h07dtCXbhxeRNgkphKMmrfDXnjJlSWU+mRhmjSnn346zZw5s8h22WWXFWy4Sfzwhz8s8oM6HY7xpA7H+HFlnEsaOZd0mrBrViI/nUfouK8R4+/b9D8GhX5M0nqXdT284wu30OYNm2nTmo304q3P0pNXPU7NG5rpu391Dd3wV1cXlX0zi61QHti04X4n/P73vx+My0Lkg/t5yN4b99V6v89gzZD1bdo3/izI2deeTqs+GtMjrVDPATDNPNDjqY8ryVC+1SqrEkw711566aXCuMURcaH0wjR9UelxqlX/13Kca7FGbNy4scCmpiZqbm52+gc6CHoIugj6CDoJeskXV0XCSkQV1BiUGRZ5KDdkvH79elq9erX7zyQed15yySVF/O53v0vz5s1z35KTlp/5zGfcjTzkS8tK5GFMJn7QNWQ3Gksh1ox169YFCV8oTSmMmrePP/l0jzL1eRqmSfPtb3+bJkyYUDjHEzDYNK+99lrne+qpp4rsiJU85FjOdZ7+eRp72vzi6iQx+rivEeMfsjc2NhYY8ietd1nXw5v+1/W0YvEKevF7z9GCGfPpJ1c8QssXL6fv/EUjXfUXlxeVfd1fXtUjPb7Bzr/XfeELX6Bbb721KC4rkSf4/PPP97Cnua9W+v5b7/cZrBmyvn3w1c/HcvrQu3qkB0vpc52m0mMmDOVbrbIqwSxz7emnny6MXYjwh9JppumLSo9Trfq/luNcizViyZIljniL+/Lly2nVqlVubYbQ2rx5sxNY0EfyNkFfXDXIAYSVPKlCMFQZMoCgWrFiBS1cuJBmzZpF06ZNc58dwTef4Nt3QCzu+IA3FGsWfvrTn3YqP+RLy0rkYUzmvffeG7QbjaVQ1o4ohtKUwqh5e++PH3TrmTBUhzTUeYT41a9+1a2tco4bMD63oWNAxCBWzhGDWBz7eSSdZ7VHnYM4FntUnfz0fYkY/5AdPP/884N2MGm9y7oeXvkXl9GUj6fQjf/nenr31TE06rk36ZOPP6GLP38+XfT581yZl/3pRY43fvn6Hun/6q/+yj2Z0Dbc93D/07asRHrki/x9e5r7aqXvv/V+n5F1A8ev/dN/C/Kty0+hD0c83yOtsJQ+12kqPWbCUL7VKqsSzDrXHnzwwaK1Xwh7KN5nVF+ExgavwnPOOcf5tF1frxKDV7FpX1SZQ4cOda8g1gBQzvG2Ron98pe/XLBLXSQPv97iA7G++tT+UlmrNQLfGfHJJ584zTN79mz3UAkiC9+Au2nTJvcECzoJekmeXPUQVq+//nqRqMJTqrVr1zoi47feeotOu6CRvnXOZfSNMy6kr55yDn3lm2fSV791Fn2N+fVvn00nn3ounXLGBXT6OZfQ2ec30nkXMS9upPMvZV7GvLyRzuXjsy5ppDPYh/xO5bhTzmukb597ucv72yAfC2HL8VL65tmX0slnXcK8mL5x5kVcj4vo5DMvdjb4EIf8Tue8z+QyzuYyz+EyHRu5bOZ5zPOZFzAvZF6U58XMS4yO6AtQ+gb9BPp9Jv1WTt9Jel2ezjfEqLhQ/lkp+Ut7MVcwbzCXMG8xr87gOe3I88wxfw7fWTy/3bzjNKG5Vsm69jVK22RsdB+iL8BzuG/QT7hGT+Xr/9t87X/r3Eb65jmX08lnX8avvB7wNXzahdyn6E+OR/8jDz33ovrRL1/qkIYoI8RQLOjXR9dB6iHlo+1oB9YizBGZR+iH07mtWAvdephfEzWdj2MQK/PNzTU937C25stw5eTLAt3cza+7SJdEPbdRJsqWtdoxX1c3RuxHGpShxwntv5R5GfNypn5CVE2iLJQJonx/bsi4CPUYJhGxmnoegDoOdvTFuRhvjDPP81PO5Hl+Kt8/v3Ux/evXL6Cv/su59C//fDZ99Svn0Nf+BTyXvv618+jkky+kb337EjrldL6fncXpzmbiuuDrBPw2Xyvunsj3PNz3vnk23//cfTFHHDub+As+vlfy/RL3za+ffiH962kX0NdOO5++dup5PQk7EzFfP53J93ykk/uuy8PxQo+5ezLKRx1xb8c8wRzBXMR1oK8dPR7Sj9J/QvSjrB+YYzKfz8zPU+StrwP/WgDlOhD6cZJ/FP11QOopdY8j4pHHObgGcV2dexmdxvukU045m7598ml0KvO0b55GZzDP+tZpdPZpZ9M5Z11A5513GZ3P8dhHncttPQfXGdrN57j+TsH+yO17cnufIuqx5/FwY8XjmBtTTYxvbmwxP3JzpzhPvR/DeMqaVFiPmHodgz+3p5N65Odffu7p/RrWf6wnSC/riB6fqPsoiLmjr+801GuAjKGmtstYY36gbmgb6oxrANfIV3jf+/++fjr98zd5D8znaBv8aD/6BHPSzT1uj+x50dbu/W5+P8v5yfhgTJDXV0/hteHbvMf+1tn0LyAf/wvbYJfr040fp5E+zY1VLn9N2UdjbN31m6fbOytG+ZwN9cP1jTq6eubryoStMH94rFEe+kDG1L9H6fFMM5Z6zIR6zMA0+ZTKZ555hqZOnUpTpkxxAgs/sYCnV3jwpIVVjydWMOAtHnjPIB5vIQFUGR6DQYW6TuEOGjthCu3pOE47247Q9r0dtHX3Adq+5wDt2NNOu/a20559HbSv7RDtbz9K7QeP08HDXXToCLOTeYx5vIs6+PjA0S5qY3vroS7ad/CEy3NP+zHadaAzhkdp1/6jtHP/EdrB5e9oPZwjH8OGmN2cx17Or5Xz3s/ltKM88ESOB7u4DnkeyfMoszPPY3VEaVM5RN+A0leH1bH4dP/VA6W9Mk86mAd4DrXxfNrH82ovz+k9PG9D3MtEDGL3c5r2fHrkg76rx/7yKW2UeQKi7egDXH+uP/labOP1YB+vA3u4v9B3u8CDXbQb/ci2fdyHbdyHB/Jp5JpN6kNdNsqVskul5KEp+QulPvq6k3pKPZAX2oE5gfZjfqAPWrmdrdwP6As3vwKEDzGIRRr0C9IjH1DmWYiuPDBfZhq6MkDUjenXDcfOxgzNdekT9MfxPE8wQ78XVSkifyHKC62DMiaaUlffFqI/D/w5IjGwyVxH36C/drd30Y59XbR113Hasv0obd5yiJqa2qlp0wFqbjpAm/m4pbmDtrQcpG3b+P62i+95+07Q7jZOu5+vjQNMzgPceeAE7ThwnLbvP0bb2jqZR2lb61Ha2nqEtu4r5hbHw7Rl7yFq2XOINu85SJt3dzg272pPRYlH2hakF4rdI8pBmagT6rirI9cHmLeYJ3IfRn/p/pZ+lD4UFuZxfg5jTmIeYt3YzWuGW3t5XXbXCa4RMD+HZT4X5nGeOg4xWOPlWtKU6wjU+wefuu6gtAmEH+kPcFnY9+zj/tjDY7Z7Twft2tlGe3a10b7d+6l1z37az/upA22HqaPjWG7/xHU8yOk6mEi/n4n9jVszO064/i0m5gOT+36bmw8y9rnxKoypcDeT6wE/4hDv5g6nRXo3t/Lczvkif8w9jKlbq3E/9O6Ju9m3qx1zlOvj6pLLb+s+nhf5MmDbznnu4PzQDqTDuKB9RePB1H0vfYt5o6/tLEy6zn2iXNQDe8p9aCvXdyf6Ge3h/sPrDt6b7uZ9LPxt3A6MFfacMvbYiyI9xm4f+o3ZzsfPDn+VWg8e4/0v71/dHpf3szz+O1sPOe5oPZhn7ryIHLeLiXRIv4/33K2HeP8Lcj3ANrxyWa2H2Mf+cbyHb+Py9nZ0dpPTIn0Ukf/uA7zH3p8rT+jqiWO27+GYvTxnpQ77uW0fTZlBB7nd2PcfyveFXB8yBhgPWav1/UKofaA/hlH5gH5eWfgq6yG8TmIxJf+gw9vi8RQLnyfGkyu8m08/tZIvsygIKzzCwgdj8YEsfKYKCZAQourkM8+kDydPoZ2HiTa0Ei3ZcoTmrW+lGcu30ZRFm2jGkiaas3QzLVzeQktXbqHVa3fSxk2tnE8H7djJQmjPCR4E4klHvHEi2tpO1MTn6/cSrdrdRSu3H6NlnOcivqEs4BvMAr7RzHfcz8f7+bXNHc/fuJ/mMedy2XPX7aPZa/fQ7DV7aA4fz9vQ5tIhjxU7jtPafVwGl7e1k3mcaNsJoh1dRDuJ68HkoombQvuZXB3iUDrE5CbWBdGWUslD5Ig+Qd8cYPJwuf7ibi30G+zwS/8hTSi/SlPqVw2iHWgb5scu5nZm8zGidexYzsaF24jmb+mieS3Hae7mYzSn+SjNbe50x7DN33KClnLClZzJeh6IzTzvOInLC30nfSb9VY9E20CZG+hPzB+0X/oVfbKZr8eNfH2u435aywlXczD6bTUnhm0T93tLPlb6D3lJ/4X6UMr1y9zDxHXvE3YQMTK3NZFHiMgf9MdTrj2/LsgL5aAdO5hoE9rWzPOjiduJfthwJDdn1nEGmrBtOMr9wTFNvJZhTiHtFubWfF6Yp1jbkD+IYxBlwYcYxCOdJmw+YcfYuLpxeSh3I5ev6+bqxPVFvRGDNDJO6Ev0EdqP/uCkxGHEzSQOrQqRtxBlcdV6jAOI8dLrFqj9QsTIHNLzAXNE5pTMK5k/Mofwir7H2DQx13FllrJxzmaiKauIJiw4Qh/OPEDjJu+h9z/YRu+PbaHx47fSRx/toEkf76KpU/fSzLntNG9pJy1ex2mb+Z7LaRdzJy/iAVrAGc9rOcFrTyfN3HSYpm84SNPWtdPUtQfok9VtNHnVPpq8ch9NWrmXJq3YSx8v30MTlu2ij5bsoA8WbaPxC7fQuAVgC42dv9lx3PwWdz6e7QU/27Q/59tKH+SJ4xzZDp/LM5ceZU1cvtvVZdr6Dpq3tYuWc+dg3mCuYE7i+kP/6r72+xYx6EvMLcx7zMO1PGAreDAWsWMur7mzmo641wUcBNtSTrSUEy/jTFDmco7F8RK2w7+QL4rF/IpzF8P+VVyBNTzwmNtuXnM5mNtYg9w1x9cD6q2vNxDXF4g6gpj/qLPMCbQH8wZ2pOXbBa3nctZw0IqWo7R0XSstXr6dVqzeRWvW7aWNG9toc3M7bd15nHZwh+zm/trL7d7F3M712IL6cL3QB2jbQq7EnM2dNLvpKM3adIRmbjxMMzYccvNhyhqeCzwPPuZxmLh0J320eHtu3DCWQjfmLTwveP4t2UYTlmLcdrk0k1YwV+7hPPa6cfxk9T7Os5XnWRuXc5D7vNOVj/udI7cJfQrCPq/lGNfpEE1fd4Cm8LxEXhOXoR7b6GN+nbxiD01d3er8c7ljMCaruM1cfeKmuPsuT3PXb+hr9CH6Ff0pay+uXVznaRh1j0B+II5hk7yFiMVYog7c1bSBM1jFhsXbeA+wqYOmr+Y96MZ2Wrz1GHET3fg2c/2x78ScwBxw48/nsG9gP3chreY8tnIBDz0zktbtOU4LWw7TPN60zt2wn2bxvJjJe9vpq3g9WLE9zx2O08CVO51vxurdNGPNXpqD/W/zQa7DUVqxs4t46FxdUMYargCOl+88QWt2HaMX355M63cd5fhDLk0RuXzh/KZ2x3mb2jn//TSb992o0wyUK+R5C87CHnwj7783H6Kl2zppJZfP05jemjST9nK7sf9GX7DZjSH6BP0tYwhibDBOuGdoythJHMYD6WT8ZNwkL8knlFda4p414vXXC/cSvE5mgXUaayERV3hbIH67EZ+5wuetoJ3ks1ZOWMkXVuDrduUtgPhMFT6MjEd1EzjD3TzJN3DNV3GvLBVhhcFe3ESzeOWfx8JqMQurFSys1q7dQZs27qEtm9tox7a8uOLVAeJqJ/fKVu6FJp7JGzDomAAshJZt4wuLRdFCHsgcWWA5srhi4rxAJ7JYbLHKm7d+nzuGfdHmg1y3w7SSV6H1XBbPG+K5T9vzg4rJjYHFRSIXJwZJBqycgegrlAlVDkOTGJMXfSY3Cr34SB/qCV1NopxqUNqMtmKeYCFt4RvqBu5Y3Mhxs5jFG5kZfFOZzqvnNN7ITOUbxrS1+/nm0E4zeAMxc+MhmsfCCzf2NZwZNs24McgC6/dXPVP6U+aQLIToB/QvNiToG9nIu018fiMjmxjEyDWLtPp6jSoTMbospMVijnx8wg4/4mRuIx2IPKKo574eTz0/Q3WRemA+YH5pwSNixqds6hCHPpGNnWzoZF2T9gjFBj/iEI90mrCFCB/KQXmh+vl1QrxsfNBOtBltR39gXcLNCcQNq1qUMmQdlP6XsfLHT4+dHEu8jBnmg6x7mpgzMq+EYkOfo+9YD9F6nssreDIs4M6Zziprwgpi8XGExs7qoPenttL7H++msRN4s8kia9JUFiEzeVM17yDNX3aMFq/lzRALqpXcuXyrpWU8MKxXaDFTxNVsFlfYUM/gdWf6+m6BNWXNfieyPlnVmt9cs7jizfWH2FyzuNL8kDe6EELwQ4BNZOJYhBg23ToWeYQpMdtdPhB1qAOE33yurxZWmGPoM/Sx7m/pW+lT9CXmLuYZ1lIIH4ggbN7nbTnh1lu0F22HyITYhMiCD5zPgg6ETfoK4mMWC5E5+GcYYniwFqFvOU/UcSVXBGXgHz1Ywwtii3dXBZEVuCb1damvBRDnbk5gH8XzgffNtJobBnG1jDflqzcfoQ28WdnMgdvYt5PL3c3lIS36BXmhH5AHxAbqs5o7DveZBVyotBFtQttEXKH/IbCduMK48phCYHWTx57HDIJqAosdJ6ogqIpEFY+jE1atSlgd4vKO0SLMS+43R66LIw8gBOy8LVwfFr0z+F45FSKP50NO4G115aEM5DuV5yr+QbmE06zmfneiitseElXSH3L9ypqbhlHrslzjOIYN1OsDCD/mIndzQRxz17C44jnUBEFzjFgnEmtEJ55EVKHOSItXnHOXUBNfA7yFcHns4Ir95PnXaRMXvpwF0RKeA4t4fw3RIyJrNm9mZ/F+G2ILAgaEyIEdgmcuC5qcqOp0eUBM4cECxNs6bsx6rtNargTE4Ia9XfTye9NoE6udJVx3EELI5xIWaIu3HqHF7oHHEVrI+UNkicCazXXB6xyQ9+HzWXwtYmG4jPNbyYOF8rZw296ZMpP2cZ9h/NB/uLalr9HHGAtQxhFrt08ZO4nFeCCtjJ+Mm+QneUXll4a4n4iw0jaIKzy5wsei8NXy+JILfFQK3xgI7YR3/EFLQVM5YYVHWPjRLSgvPK3CF1Xgw8hnnXuuqzRf/8TinFgcc+d1srg5QHNYqc5ctoXmLt9CC1lQLV25lVat3kbr1u2kJgir5lbaseUA7dhxmHayInfCilu/jV9bmJhMPEdozZ4uJ66Wbz/ihNFSHpElzKVbDtISFlt4Xbb1EC3feph5xB2LD8z5jnD6o7RqxzG3aPGcJJ4TxPOsMKhyUWJg0SYMkAxW3MD2F8pkKpehSSz9hj6U/oMdlH7UE7oaRP7Vom4v2oc5g0UdN0L8J3MJG3DTxg3iE/w3mFfR3M1qp7sR4aaBTQxuErN55cWNBTdn/LcfN18sqlhU/P4aCNR9i/Zj7qCP0R+4LtHX6B9sSGRjgnNZiPXNVPIKlQNKOSgDaZAWeeDGhvx8wi5loE5IAyJ9FGXeC1GejKlQbPAjjb5+dH3QTt122aBp6j5BX8l6JvWXNkg7pAwpR8qStJqSj0/xS938+uHYHyuUI/0o/aTHKnRNV5L+HNB9L5Qx1mMpsUKdRsbMp9+/mug3XPMb+d6zmu+bSzjTOdxJn2wiGs/C6t2FR+n9eYdp7OwOGjdjP33InDyng6YvPEJzlx6jhat4w7yRN268AK3ljuW9i9uorOaCeelxT86xHkEMQLC4p+f5TbUTD/rpRV5wFZ5mQWTx2gXRgw03zifzuoUnCojBZnzauo7ueN74ypOvIkpal149IcvbkR/ymsEqAnVyTyO4YyFOsK5izqCv0Mfof+lz6Vv4ZC4iFv2JtRRPtuVpFdqLp2Gu/rzu5gRWhxMVKBeEqIMNPic280ITbSvEcx9hzdZPvdC/8tQL5a3iMYTIgjDE0yz39JjvDfqfDGiXXBuoM+qOtqBNmBOwQyxAOOCphxNXHLSKx3E9l9XMnbCN27eL8+YtkUsncxXH6BPkizKaeYOOukBcQQyirou5EDyNQxuckFQCq9B+bjf6oJvcF+gP9CGEE/qF73G4j+EfhyD+iQjO4EqjT0VU4d0beEq1kttRIFcYhNDC/IS4ms1KIieuuO957kFcTWKhL6IKvvkcB1G2licD+hXCFe3E+iL9yNm7/sA1ijkja0toLQjRXx9kziFfyRs2EGXocmCT/t/KY8h60Ykonu5ODEFUreUgiCaIKqk3xg1pkT/OJf0WbuNmnkd7eKx/+vLrxFtYl949XeLAFTyWy3accHlDMC3ewnsKETksYPCKczyhWgJBxbF46MFd7J6IbeRKb+LGNnG+EHo4hpBr5jqP/GAmtfArhBYIIVZErgPseMoldUH+S1k0QWwt3HzYEULK1YG5bDsLS45D2vXcDpS3g9v23oyZrv2cXXD8/DGUvaymjJ3EIy3yQL7IT8YNtjT5pSFElC+sQJzjbYGPPPIITZw40X0Lun5qpd8O2ACFhUdY+HFfvF8QX6mObyi6+OKL6aPJk12n4MlPM+eMTlvFnY2nVgs2ttE8XvkXMZet3UUrmWvX7+JC9tDmpn20jdXTjq3ttHPHEdolbwfkXtnBPYC3A7ZgoJmbOE938+CC1uw+4bh613Faw5TXtWxbx2rbkVeddZxfjuzDK6ddz4O6kfNp5t7l+UY7eQKj7pjc/qCCMggyELoD+xtlIlWCMomln9Bn6Dv0ofSlTGTpT39CV5IyRtWkbi/aiIURN8uNvCjh7Qn4z9ws3qhAQH28XP6ju50+XLjV/edP3yzwVAs3ONxgcBOW/9BiLvr9NZCINks/ox8wh2ROgegfob5mZa6l6TfJH2mQVvLFTRHEzU0oNr9MKVfKTkO5FjTFJ3n5bdX1wcZLiJsvqG1RdZZ6R1HHSVpN7dcUf6h+mrpeSIcy/XEDMSbVpt/3fp9r6jr6DI2XTifHup80MXa45jfw5nAlrx+LuEKz2Di5iWgci6Z3l56gsUuO0weLj9GExZ00eckxmrmSRRLe9scxqyCouHPxtvsmntSbOQ9s2PAWqXV8jn/0QKSs4EpgQ+3efsXx2FhDwEAYYFOLNQhP2fFEBk9mck8zWHDx+gThhWMICv2UB7HYmOPYbc6dUONYxEOscdpCepfH0dzb0BAjcfyKt6chPZ6koD4ruEMhBCBCIDAwZ9CH6G+MnfS77leZd1g7o4QVhJETCCwIRFxpEQHRBbEHMTmRd/vyJA5Pb5zAzIssJwIhsLgtui/QfygL/YxyIWRQBxFYEAH+W3PRPk7i6o+2YM7gGO2AH6KIiyEuzj1NwLtrMM5buH34R7CkQX9gLqN/pG9kfiEf99ZIToMnahB9EH+450BoYU5gDojIcuT+Qp9hbDDmGFuMfzfFlntru7y9HcRb3MEFPJ54WoqnSxD4eMKEOQmyfi8QdvkHwIJteJrG+fK8gUCDgJvOKmImC7XZm1ikcdnID3Ma7w5BP0ofor3SF5gj0h9yH5A9QhoiHtT3COQtlDKkHF0WjtH/Mo548sTNIZ42ToRAZOEcdvgRh3jkKeOHMtAezGm0DW1s5fH+2Wuv007sr/PXuTzNwtMmPHWCWIJgEcEDAVUQRHk7YiGmkB4PQVj3OvEmH4PBMdYR1kU06uOZtAPlcLwTYEIuF/Pw4adG0KlnNKbiA0+McPXAP35QZ+QhT+zQ1nEzZ7r+k76V/gQxFjI2XJ1Iytg98WxxvX7K58gXr9r+JJ+nyTeO3IVBYcVNo49ZE0EbjRs3jmbMmOG+hwJfZAHthB8QlrcDNkBh4eTll18uvA0Q3wKIb9rAh83QQW5R4MHB2+s2cA+tYeOKbUdp6eYOWslcs7md1m0+QJs276fNLIe3bO2g7ds6aNeOQ7R7zzHazR2/lyffXu6hXZwHPq+1HQPALcAjwxYMCPd2E8doQmFDfLWwbwvHCBEPW4E453y2IF/uDbwnmcfbTWYMqAwqhxURnQ/qzutPlPpXkugX7lLXXyAPQWFhwGKh+xQ+uVh0f1aCepyqTWkv2oN5g/mOTUDhbYB8g8J/6grCKv+WCrxnPSes8NYXCKtWt7nATU3+Q4sbBfJDvn5/DUT6cwuU+SQLsMwt3V9p+kzylrwwX9HvWMNA3PBAOYcPRJzMbU3kkYVSrqafp5QlZev6RVHHgpJHWvrpNdPEh+oE6hhJK+2U9st4Vpt+n0e1RddTp9FphTrWtyOvUJ9g4yTCahXf3xbzhJzDjim8EHy4gWj8GqIJa1losZCatp5o9kZeXzjBcl4k8M/FTTzpN/MCiI329rwQwVuQ8LQDm3IIDLwVTDbUeMtaD3Ie2GhjDXKbba60fM4Im128+p9FwjqHzzgW0rANvoJ4YzrxhvT5PCQfOS7YOI3kiXpAiODpDi+jrn/Qd+hHub5l/GCDD/3I2ThiE4o1VN4KiDqiDIg2rLW5p2zdnLoWny/an3vaVhBUuc+YydsWc2993OU+B4YncAVxxeq1IDjz4hAiC+t5QVxxhVEPCCuMh4gqtA1jhbUebUQbZO6gTbDBj1iMJesWJ7C4uMKGHGkQj76QvsGahmPYkB9idF64T7m3Uefnxfr8vEC/Q9BiDKOINkURfogjCHhHrpibI5wnxD3KQR9s5rI10Sf4hyTEFgQW0mK+QOi7J1i888bnrxZsPeGEK0QV8kR+EIvoB4w7F12YI7ov9HrPSVJT0uh7BPIXon9hE+rydP+jbqgjxoyniXv6KGOIMYEfcVJ3vzz40DbuYucfhm/j5lfkyRrUiRIQ4ghPtSBUHHENMSGeQDkHEYc0+NgL8sE1A2KegDh2/cr+MdNm0h6ORX2lLDxFgwADIU7SArGufLSf6+u+y4DtKBP99RELK/Sf9KX0px4XTh5LGTu/XjgXUaWB87R5R5G7MyisQHxJBt4OiJ+cwrcE4t19eBgF7YS3AxYJKzzCwhdVwLls2TKXAMIK34iCQcckwOCg41q4E5u4h/AftbXs2LCnizbxiDXvOk4tuzpp265jtH33MdrFgmoPj+Ae7uF93LP7uKX7uMZ7ubZ7eRD2cF4YaE7miEeH29kP7hCybWeenC3tRiy/+oTdkfNDXTGBMZHlgsTA6AH1O6s/UtpSaaKfZDFA/8miIouC9K3u39AFUyplrGpJ3V4selgcnLDiuY4bOf4TnHsrYP7tJE5g5T4UPIlf3dtf1uRuzrgZ48aPmw9uePjvIq4d9J30lfTXQKb0gxB9I/R9ofQhSj6Ym3IjxHjKjUwTNviFmNeaSF8J+vkKddlZGcoviqH0IZaSRlOnB0N9UQtK+VIvGX+hX1+dJi0lX39OgdhU4JrfxFzL1/9yXqwX8IScxY5PeCc8aTMLKn6dxTvx+bzQYK3AU3H8px8fjsfmSjYnkic2a1hDsHFD3rKhdk8/+P7nyMc4dzYh27HhxgZYxJgQYgeEHX55e5ts0iUNYiQNntaA7imF5JN/1SzKl/OE+PBFlb5/6HuM7ldpN9oMYYYvcYFowAYfm3WIq9zTFzw1634LpHv7nxNXrU5c4TNmEFG5z4/lBFXuiRU+Q5R7K2FBWMmTuPxTHLztDZ9jwjiJsEL7XLt4DLSgQl1RZ9QdcwRtQjtxDBvajzjEI52MJWxIhzjdL7L+hfoI8To/yQt9jb7CWMoYRlHmgKaMHyhxyEeIueEEJURAvmxpj9DNT8wjlM/54S1+mOPyFEtEG94+CPGFf2AiHvnovpN+0H0BYq0XcvapKPHSn+hn9CXKwiuIMnW5UhaOpf8RL/PStZX7Gdcszv1xRzpdJvKAXcpBvZ7nDTzsMu+RtxDji3yFGOsQEYd45AGiDkKZLyCO8RQJZetyUK7QFypxQCzqJeVL+1EO2juRy+KhLfQj2ovzLJSxkydWGqHzaj6xAo/lhdXbb79NkydPpvnz57sfD8bvWm3bts1pqYKwwjdaDB8+3L1XEL82jG+9wHfC42sMMQgyOOg4dKT7hhouHU+K/nnQwsyUyYV8QRkMPSHEJpMQaUIUv8RgkoJ6MP2O5rWi8EHn/kjdpkrTXwhA9K0eJ93XiAv1dVYifW9RtxdtxBzHzQE3T9zIcSPAf9fc217w2QXeBeELK7pvyAfdDRk3efx30/0HjgcKNzncLLDooN+kr6S/jJWljKOsCxhLuanIjUPOZS5rIk2t6JedhqF84hjKw2coHRiKjWIofW9S1w3jrKl9obRJlDz1nNLzCse45nHti7hawWsB3hI4lxPi6dUCzmQJT9KVPGHXsg/rDNYbrDuSl64fjiVvrCV6Qy3UGy1N+GTDK5tvEMdC+HQefhqdTlPnITH6XPKVdqHf0B5975B1V7fTbyvyQN7Y0ENcQdzhH15Yl/EEDW/Xw/qMt745sbUZ30h3xH3GSt4eKG8RBOUca7d8zgrxuSdVeLtcN/GPMuSNpzhY11E2BAaerqB9aFtoY6nbiWOZM9ImpBPCJn0j/aLvE7KuwSdrG8qQPHVfgXoM/fHwbT71GEq8JvJF/lJvlK0JG3yIQx64DpzI4l0qBBS+YRdiHMfoR3zLIcpEnkiPtknf+f0QR38/4VPipC+Rv/ShHjN/DCQNbNL/Mk+lrdIPyEfGXKfXZUv5IHcBvcgbePhkXDVRjlDqGaLUXcoOET6UiadIqINfFvygFis4DlGAY6mfzgfloM8/5rKwz5YxQHuzUsYOdQ6JKwHs8CO2nPLANMJq9OjR7keE8TkrvMtPfztgKmElgyIdh4GUCwgi6dW5bY4vz26l4TP30XPT9tLTk3fTExN20U/G76AH39tO9721le56o4W+98pm+rm/frowsdJQT0SZmMKQTToWnSCvIqJEUGlKh/UHyoSpJmUSo2/12MvF7V/EMgZ6Qmch0vU2pb0g2oe5jRsDbgpY/NdyAP5b6W7ifAeQGzhuunjFfzRhx3/jcPPFf/2wCcCNCDc6LMLoM91XxspTxlHmLOYr+t6nP4+N9UeMbRxDaXzqTYkQaTF3MI9kM6nnFV5xzWP9cGKAibcFrmHxtIJvOMt5bcCXWqzDZpPtm9kv6wTSS92kbMxnqYOUree1X76m2CUO65qm1D/UBkkTSpeGOl/kiXpLu2StxfUKwqb71S9bb9TxpA5PYyCwsM7inQF46yOEFtZoiC08XcJ6LGt0iHiLn/ssFce4NZwHAeu4CDRZ4/GKdR15oyw8wcHajrqgXlJfaaMeP2mnbl9obHAOv6SRfvHXNlDniXJkXkj+UgbylT5MQz12oO/36wtKezV1+cgH8xqiCXPcCS0WpCLeYMO4yj0S6XTf+X2QhrKv8Cl+6UOUo8dDt8UvX/c9fKBuq6TV6SStLtsnNvAv8QYeeztdhqaUl0SJl3x8wocyIXZQnsT7hECBMABxnNUv5aGMyVwW2ij711Io/Sf5iriSOkg9YIcfsTLmofzSEHVOK6zmzp3rfppKCytoqqCwQgIIK7yfUBoEouMwiJiUPUTVDBZVUyGq9uRF1U56CKLqbYiqLfS9VzfToOFNTljpxvfg4qH0cw0N1OB4Or3NV57+YbFNY0939ne2ddtco7ePo1MK6X6OHlgcFlI+/Y7rqwz2VRUok1iPdWgRCS2AofyiiPi+Qj2/0TYs8npzhLfH4IYKgYW3gsjnEHCzxSvOcXPH0y13483/NxN54KaEPkN/STmhOhjLp4yhzFnMV9kMCP0bodEYIuaRUGwyr2Qt1JtOmVcgzrGpFEGANQQCCk+wNjIhtmCDDzHIA+mRv5Qpa4XMab8eQtRHn8cRsSGGYoWh+CxEHlJvv11C+BArfQdK38rmHP2EDTr6DJty16cssiBy8MQP/wDD2ot3ChQ+Y8QZQmhp4rNfReQY34Y4PKGCoNKiCnnjXoCyURfUD3UOtVO3VcYuqk8lrU4Ttb5pSjmSv1DKiSorZI+izktTyooqH2nRN9ydhetBxhHEMWwg/IhFOuQl7Qv1QVpG7Tek31CW1A+UcQSlXX4dpF5+eyU+VHe/HrouWljpWPELv3/3I048pOEPOFaXpfNEOZPyT5H8MkDEIY8dO3Y44tiPifPr8lDGJ1UUVlIHqUethdWoUaOcTpozZ477+NSGDRvcbwAHhRWc+G72kLCSzpPzb/1gCX24Ah8YPUgT+PX1ua00ck4rjV3cRmMXtdGI6SywPtxBr0zdQ69N202Pj91Gt7+UE1ZRjT7C4uhUFkYFUYTzRxapX8HeRmNOz4mnUzm/bvsiegC2cdtdpxyhxfTAGePcDQznOVs0Q3XpK5RJUivKGMviIQuQXoRkwZUFReZHKD+fMo/6GmVeo01on9wMZHMk/y1171+XmzlfefLZBNzg4ZMNE24coRtGqGxjZSjzFv2NMZSbumZo/hqNmrIWCGGTtRBzR9ZC2fzreaX9Mv/0OiJiSjaUks5fS0Nz269TiH5cXKzPUtKkpc7bp6y56De5TkHpX030m2zQRWjJ0xCsvak/Y8Q++LUgc58R486GMHNfAMID7t7+x+eIwRovogr1QH1Rdxm7UDv12EmMpAml1WOeRMk3RMmz0gyV5VNipX3+dQPiGIRdr8WSR6i9pdDfd0j9UKZfH9QF1HXReWlKPaPqLOXGEfvSl3kDz1Mr6BdCOKQFYv09pBDlyFMkyduPQXp8wx2I4xC1308vRFmVFlYiqqR8Tdjh130fyi8NUec0wgpfuV6WsApNFAirCy6/hn7jN/8dfeGL/0jD351Jdz7wNP33z/85/f4ffJrOvvg79OTr0+ivv/AP9Ht8fvr5V9GDb7U4YYUKouNBNEJ4xD2teoTm4TgvmvB2xAK3jWXhxf5Fj1DD6WOpuch+Or27jY+9PIVSXoh+5/UF+v1dK8okloXRX4DA0GKYtJjA39ep2y03ArnBy+ZI39A1YQNx00e830/SR8bqUcYPfY6+xxjojRoo46LnrtHo059Tsi7o9VA2+5hXsjGDX1PWET0XcQwb/DIPZS7q+VwN6jYKQ3FRjEqj8/PpxwrF76+3IaLPpN/kWHyyPmvRpQWXvO0silqUubca4h9nvKsSEQaRJl9UIaIY5WP89BoSaqNQYuIYSldrVqoeul1y7cj1I8fCtH1YCUp9UA89l3CMOejfGyRdmv2MH5NE7EvTCqt9+/alYrliB+nxzrU0LLesNET70bciqvzy/fNafXlF2cJKJoxfwC0/HuWeHI3+ZCWdf+k1TlRBUD364lga+sJY57vk6tvpf/+/f6WfjV5If/W3f0+PjVxAv/GPzxcEDRpQzO307hkNxaJJsRlvA3xkER8vogdZSI2BkMr75j3C6X4uJ8p65pujlBui377epEyM3iDGWy+GegGSG5xsIPwFKCq//kTddmm/3PRDN3VNvUD7/aMXaWN1KGMnYxYaJxkfjI2Mi42NMY4yr2Q9kHUgSljJ2oE0QrHpdQEc6PMPbUd/yBrrX6+gv676hF3Sy9ggnYxPErUgwz/HRGxBaIE4hlDz/2km4xdql7GYMs+jGEpTDaIsjBvmjcwVPb9AuT6lXqF9TSWIPWlaYYVNexqWK3aQfu3atalYbllpiPZjDPx64Vy+bt23S7+F8ktD1LnXhBWeWOFJFQTUn3z+z2n4mJl05Q130N+e9A/uKRbsP37mXfq93/80/cZv/CZ99Ztn05Nvr6F/c9KwgphBA3oyL644/YOLtLCCmOq2QUjh7YDdfrY9nEt3Wv4tgZpSZhT99vUGZUL0JvXiIxsBfbOSmwrscQsQzvsr0R7pA+kH6QuhLMLSF0KJlX4RhsoxVpYyZjI+Mmc15QaKMbJxMaahzCtZA2Q9lI25bMzk+pd1Q+YXXkP0yxmIRD+gz3BNog/961X6Vq5Z6dsQ4ZcxEiKdUNu1H/nLmKJMX2hpQaXHuZZjaPOmMkT/Ya5gDGXM9RwDZZ5JX+t9TSWJfWkaYXXXfT9xgiEN7+bY0N4SRDlJYudnebGShogN5QGmKSsN0X6MgTyxEvbGDwSDx1hnVF1YXdR4DX08ezV95WvfoN/Mi6k3xs2iNycsc8c33/VT+t6DL9MDz0+i32WBdet9w+kPv/5KQcygAZHsWkwP/pwST3j7H94GmBdRPc6FlPsc1s8NXezK8OvtU+oS8tWSMhl6m3rxkZuUvungVW5SoQUIr/VCtEv6Qog2C6UPhBIj6UJ5GqtHGSuMC+aozFlNuYFivHpzjGSOCGXu6PkDhtKWS52/MKp8MJTHQKH0jVzjmDuyHsYJq2r1mx6XJIbS9zWinrpf/etV921obkZR5nIaytjKuiHjK+uH1EHWDUmHckJtqgTj2iG+UDpjmNJn0qcYaz3OMr56jKWP/T1SpYh97si33qL2zs6gP4l+G7UvtMfEPrcSYicNK1WWtFOPnb5WQVl3/fEK5ZeKJ07Qq2++2XvC6g8+9Wn60z/7c/r0p/+Qbr39+/Sb/+7f0Rf/v390T7DwlOrCq25zr3/1N39Pv86vD7w0N+GtgIoQSYu7xZN7qx+LNZ/FT7UgrDjvbWPplIYz6J3t3Z0sk09TfOKPiktDnRfo91cU/XS9TbTFn8CyAMlNRk9mvQDVI/2+EOqLWveFEOmyMKrsUqjr4dclVE69UNou4yNzVlNvkHqjP2QcUE/UQSjzSOYSGBq/JEqaEH1/VPnl1iPU7v7AUFt0X6FPMHcwhzCXaiWsouoTR4mTuvgMldMbRF1QX92vmvp+o9sSyqtUSp7SX6iPXANC3afVqINQ1yVUD6HUR+KTGCprIFH6QcYQfSj7Grl+Mc/k3iB9i7ShfVIliL3qO+PG0Z4DB4J+n1FtEYpd4vy6Y8/tf3mFjvXjQ/vVtOzPwqq1o4Peev/93hNW09e009hJc2j5qvV09NgJrtAxGjHqA3prWhO9OHEH3TuymZ4ev43ufPRtenzMFrpl2Hr35RUirHqIK3x5xSOLc8dc9rxHfi7/eavitwHmmP+GQHzmCl9ewXFNbEeeG/FZrJ8bSrP5WAZDBkQuGj0RdUwaSj5R+fmT1O87UHx9jTKJpZ16AfJvdNJ23eZ6ou4HtFkvxOgLbKr8PpF+0fOi2pTyQKmDpq6LP0friTJeaDPGQ8ZJU26g6JNa94OeT1JHf06BOIZdj58eQznXlFhN5O/PS9+nr21NqZP0l6TXlPokUeZcrfs7LaVufr11W3WfSX/VQljpuvn10HNHU8YMRLweO92+OEq5wlDdKkHkjXpJe0LzUNoh9QrlUynqNkf1RyhdJSj5yzj746v7RMZYxrXUsQ3Vox4p7ZU+8PtXXzPSl9I/oX1SJYh97twlS2ge77mxbw3FgLoNMjekrrreIHygboMQecnvWOFc+kJTYqXd/r41LdGe/iisUO+lq1bRPB6XXhFW+B2rl6btodlr22lHWycd7jxBW/cepU+W76eH3tpCVzy+li5+ZDWd/+AquvKxNXTaD5fTt4YsjRdWzHlDWUwVnkjl3+oX9ba/vH0uHzeNw+9bSbozaPT24gHABMSihFd/MsrgyLHERFEuRv+ilAHWkxr9F+pDGfy+RpnEegJLm/0bnW6nbms9UNok7Ufb9fvu5Vun8CrfFKWFlsyJahPlCGU+og5CqUu9jxeINqF9aCv6xu8LUMYFfVHLPpA+R7lSN8wX//Mc8pkO2GX8ZAzjxlyo2yobf8lH4rUf5eg5DUo9YI+qS4hSPyHGQc+7vjj3pD6oG+opdZY5JNTtlD7U/Qu7bmul2oh8pF66bD1vfMqYhcYf1O0KUdqPcnV7KtUmTWkfykXdUFdN1FvqVMl+TUNpcy3KlHLQRrQV7cbY6THW16WML+LSjq0eV5RTzXHta9T9619P0n/ST3rOI21on1QJYh+4t72dXnnzTZoxdy7t2LevaG8M6v2i1B9E/VFXf9yjxlc4IUJYiV/6S+oX2qOnJYQVxEnIl5a6D6QfZDx13WGTGOm7UH5x3Mn9P58F1WssmvbxuPhlg8dYa1RdWL0weRdNXbmfljcfpCWbOhzHL9hL972+mS4eClG1ks760YqCqPrG9xYnCqsgRUhFUPJCvVBXdLa+cPZ0caedYB7Pve7mc1mY8Oofg1jQQgwtcrBLHrgZoFyUD+qBR936OvWk9Rcg/0anFyBpYz1Q2g+i7RhXjLV8U5T+nRS84it65fer/DkhRB5CbddM8ocYNze16NPjpudkPVHGDW1EW2XOaspNCHO3Vn0g9UKZKBv1wJhgjCDO9e/vyFzSol3GV4876I+7jL0IJMlDz0mJlzj5qunN+TntmP9NNtRFfyua5KPzAv16yTxGOzEG0uf+mhHqq1oSdQBlnUMd9VoXR7lOpZ1IV8n2Sd1kPqNOKAv9recNxsgR46XGDD6Mm54DofGSsfLbg/Jk7Ko5btL/0ve6j6UeMnf6yrypBmWs0RfoB4wFxkyuT4wpxhfXZeiajLoWQRlf6U/kjz7VY1qv/SqUNkofYz6hH/Q8R5/4/YK0oX1Spdhx/Dh1dHbS4lWr6L2PPnJfZiHEjweDw5kvMp9nPsscxnyG+dTI1+nJV1+nn72WOwZhBxGDWOFzeSIPvGqf73+BifJQLspHXfBlDr1B3Q+6L0DUU+oKSoz0Xyi/OL7P/b+Ex+Egj8dBHhdf84DHWG9UXVgNm7iL3pyxh16duptemrSTXpi4g577aDvd/WqTe1KlRdXXv7+EvnZHT2EF9hBSGSh5oE6oJy4IuRHt4kVoB0vmbRy4lQNauDFbOKiFE2xh2zb2bQV5MwFuwQ8A4hVku7AF5HhwM8jpmzk/EOfwb+W021AelyuLGeogNyVcpHIx9WXKIhRagPwbnSxAehGqB+r2o80YU9zc8Nsm+CFJ/GCk/LI/fkQS57C7HwvmeYAboNz8NLHJkWPkp6njomJCRDnuppvfXOHG68j1QF3gww0YN10ZOxm3UNv7M2XcMDfRTpmzmnpTUas5K3MJ9UKdMBaYCxgzEehuXnEwfqAUv52DuYQx9DfKem4UjT2zMO6cp/4Ba70ZK6TNzxfEojyU7X4UlYnXNVxpzGv8aKrUR+a2q1O+XkKZj1JP2dBj04f1UPc9+gF9Uqv+DxFl6/mCuqGOIjAwRiIiZeMqG1VN2bDqeVWJtkn9kB/yRlmy0cYY6LUIP2jryAW7ceMMZNwwtzAX/Lkk4xSiFmJyH9PXDOjXt1QiL+SL/GUMNPX9prfnTLWINqFt6Ae0E+2Wew6uOVkf5MeL9TXpxlWuyXwanxjTqOsR5VVqzvZlom26n2W+YX6Bcv3KPNf9IXujapGHNri3BXmYnV/q7tYqHuu9PO67OWAXO3dx0C4+3gPytb6XuY/9rTwvECuU66hNbOzfhxim+NB2abdfL55uNaeUjX6QvgBDfQh/JeqLLxORcnweq4Ww+tFbW+ju1zfT90Y00W0vbqKbhm2g659aR1f/dC2ddZ96UsWi6qsRokpTd0paSlrUCfXExMBFsosn1jZ2bOEGNPGM3MgzZz1fQev5dQMHbOBZtIGDN7IPrxsQw1zPx+A6kGPAtZxGuIbTruF8VoO8Oq3lc8SuR3ouqxllctmymcWNiZO5eqEvpT/7KlE/vQDhYkN/YvHxb3Twg4iVi7G/0287bkK4MeEmhk0LxNRSHtRFfOebt+UELeSBXswDvYw7ZwV3DISWbG5wMwRxE9R0N0nubOF6MB/bgyouiihLb6zA1XmiPGyscWNFW2T82BVsf3+mjB3GDW2UOauJuSzXYy3mrF8nrAdYG7ARwthg7ESkYw65ecTHeh5hjDEX9PwB3fizX48/xhxpV3JhyGcl8mEf4kVoYaMm+WBjjliUu4h3XQt5XmNu43gxcwlPGl0niC6U4cpjomwh6oL5irxRFkQb2onrBxtFf0OHfuEkvUKuuiPmAcYF9cJ6jXpifHC96I0pbPBhYwoiFtRtknmFdiHvULlpKHVDPugn5I+yURf0KcYdcwbjgrUH44TxcuPGhG1pftyWYw5wxRAv88mNVX5Oheg27LxmoDz0A9qJOqB90rZy2qeJfGQM0IcoR1Pfb8rt175KGWvpB8wp9DtEFcYD15lco3I9LueOkXGV61HGtcD8eeF65PxwPSJvzGGsRXItoux67Fsh2ub3M9qO+QXK9QvCH5pr3JU1o66zXgPwD3zsMTewA3vRFTwfVvJAruJGrOZz7FGxZ8Ue1u1pOaNNnCHYxHMJDwPwuontGzkP7FtxDHsLry14OIC5gfLQF9IHqBOH1Jx+X8j4oU9kvPz5izTVqu+xagsriKSsRDqeE4n0xVMcES8dibqio/FWv+3s3MyGTdzr63jSrdl9glbs6KSVO48xj9OKnSdo5S62MVfu6mJbF9u6aLnjCcdlO3Jcuv048xgt2cbc2kmLHY/S4i1HnR0xK/jugwmOSY0Ji8mPiyBqkvZVon7+BJYFCO3Aq0xmmdChRai/UtqOtqGdGD/8RxA3KNzMsIGBoJrVdISmrWunGRsOueO5m4/R/K1dTmghRm6AchN05I7EK2wQZ4gBcQxKvPh7UMUKXR7YXDFlM+w2W0z4cPPFzRlPGNAWTuLGE+MWan9/pj92mKs+0Xb49EJcTaIMlCX14WFxG1ZsdLDRLQh1Hpz5vOOZz7v4whziYLdBZr+eP3oOheYAxNECl1duPsKPcgqCiF+dAOOKwY60iJ/d3EmzNh0p4uymozSH5zbmPGKQny++9HxDfVA/zDuUgesGG3X8Nx3ihMMK6yG7e2XdQJkgysdcwbhw1XMbFybGBxtQbESdOOTrH/WHD5tStAOx3PSqCSvkASJPlIFyUR/0J/oWYzaPx3d281G3/szcdJhmbDzk6MaN7TJuhXWJK+3GSY2VT8wriHFs0rEhl3/KYNzQxkq0TxP5IE+MA/LHWPhEH8BfyXL7EmW8Zd1CX7s1gvcwskZgvDCG81qOF8a06HpU16IbXyGnc2PKGcv1iDmN/DF/Ze5K/4bqVw9EH0s/y3qs5xuOYQPhj5vn2CdVm1Jn1AF1c2sAr0l8WdMGdkJULefxXcx70sXbjtMS7FGxX3X7V54z7HOii7mKr+tVPNB4GOAeCvAxbNivIgbnbt/K+eLdWBBXKA/l6j5AvbQGqAV1X+jxk2sF9NcG6cNQfuXyWLWFVTmEGMpCEVEhwi+dj87FRYLPUW3hgjbxCOAp1SoWT8u3HaUlLYdocZ6LWHWBC8HmHBcozm/qcJy3qZ3mbTxAc5lzNgj3Fwj/fKTffNgJLQgzTGD8t8CJK64Lz/HgJO2LlEnsT2D0KxZhvMpklsVHt6u/E+2QdmPMsIHCjQj/qcdNCzc1bGKmrj1AH6/YQ5NW7qNPVre58+nrO3IbG97ozNnc6WKFuBGCOJ7bciy3ieU4bFxxjE3QXL5p5sjHfA5bFOFHHI6RHvkUNsJ8Dj9uwrix4oaKNmBDiAUTY4g2htrf3ynzVuasT4ypzN1azFmZTygX1w/m02a+QULs6g0Txh3zwQmaojmRmxf+HMLYwl6YE5gDbpN9tLDJns53YBwjHptqbLBQphZoKD8nqo7StHUdNGXNfprC8xlz+pNVre4Vtqlr2938Rp4zHHOb+JkbD7syXN0x97guqCM2e9jYoSyIOQhJiBO0X27aMga1GAdNKRNzBXMB44I1GgICdYSYgBiUp3rY4IrAwoZUnmBpYYW5hTmHNpW7HkrdZB6jbrLRxjoEsQ1Rhf7H2GCMJq/aR5NW7HWc7Nak1vy4HaBpWJcwF3isuudXfo55xJySuQLhjfaj3Wgv2qnX/VDdsxJtRX6y3sp1qin3m0qV2deo5yLainmFeYj5J08msUbg2sKYu2uPxxPX4vT14evRXZNurI+4MUV6XOu45iGaMZ8x3zF/pY/rtX9B9LF/XaHdcu1i7sEmc03mONKE8gvtnSpJlCH1Rd2wBuAf9TysxJc0reSKL91+gveqh5mHaAHvP7EHXcjKaGFLjot4P5pj7mHAkq14OHCcj4/RIj5ftIVjWg7TUrZBZOFpF8QVPtqCdRp9g36QPkC9uPiaUvrDHz+MkVwvsjboelarrsf6srASQhSVS+lE1BMdjsmwgyfgZjZu4F5fwxNm+Q6eUKy0FjZ30AIIoU37WSi10VwOmLOhleasb6XZ4Dpwn+MscO0+mrlmr+OM1Xto+qrdjjgWzly7l2ORB+fJeWMiL+OrAP9RcJOUFzAslLh49STVE6AvEfXSk1gmryxCegFCe+IWn/5ItAXtQvvQVmwosMnC26Cw4cDNDTezybzp/GjJDpqwdCdN5AH/eDmLLGxq2I4NDZ5mdW9Cu4nNKTY72LxiM5TbAOWEGdIIp4Jsw4YWx9qXI29yOS8Xi/zyGywpG2Xh5rqAG4D/VmJTJv95xlhiXEPt7++UhVfmrE+MKdruX4vVIspAeSiXlyI3n/C5CGxusGHCnILwwWZXxrOYuXEWUYO5J+c6LjdXcvPACSOeh9hg4xybLSeueCHSTz1RfuGfBRyDdJjDmMsTl+12c1vmN85hxz8ThJMccxt5zHv5BwPmHgS+lAkxh7cl4YkLRAnWQ6wl6Bf0T63XD5SHeSLrG+qCOqFuEL34TBI2tRgjiEJ5O5W8RQ6bXlxL2HzgesK4Ym5Vak2U+iEvzBvUDU+cIXJwLaNPIYLQ1xgHGasPF293lHVpAsZtOY8bxol3YrLeuHUiv1b4xFyC4MJGHPMD/5RBu9E3aKdcO6hfqO5ZibYiP7lG/OvV79dQHv2derzRVsypIiHNHY9/fmCNwL0A44TrDdeeG98C+brMX6PwybWJMYXImrclJ5rxlnX3LgYuA3ML44q+R/mh+tUD0cdC6We0Gde+zDOcw67nOOJD+Qn9/VOliLxlXqBuGCd8xIS1M63lCvIQO5E0j0XVvKaDRZy7qSPHje0FzuNzcD5inB92PDDY7wQZ3pWFp1p4CyEeCOA+hXmBfpA+QL30/r1WRLkydnKdgBgnGS89VtKHobzK5bH+IKw0RShlJeomkxAdjMnAc4R4vhHrHVrNG4ll24+5p1QLmg7QPJ5ITlCtZwHFwsmJJ8e8gHLsFk7TOYNpq3bRtJU7aSoTr9NW4nxXt8hy4orzW99GC1jRFSYpjza+3CKk/vUE6AuUOklfYqLKJJZFSBYfMMvi05+ItshFi3Y6YcUbLfznEBsa/PcP/x3EBkU2njli85kXWLyJwca2eNOSewqAzU1uM7RLCTPZ/PAGNURO4zaubvNavDGSPFEm8kA8fLiZYoOLpwfY2GJjONCElcxZTZm7tZq3KEPmklubmBAY2LDLf6LxVArCBhtljKcbYx5rjLmMfTLz84TH34kjzDHebMEGEYZ/CKAs/Za9sLDKpcO8xPyUzbps2H2b2HPzeJcrG/MSZeK/5Zh/KAsbdDy1woYR6yH6opbjoInyQJSNOmBtxsYF14cTVlxPbDwxRtjY4nNoBXGFJ1ccA6EhwgrpZV5VYk2UuiEv5Iu6yRMMEVYQP05Y8XoDASXj8sGibY56bD7Kr1FOIOtNOI+1W3fym3AQc28m794wJzBP8A8lbPAxbni6geuqEm0USlvlGgldr7rMUB79nXq80Vb0M+YX5qGsE/gHGf5Z4dYIvt4xfh8t2Zkb74VbabzjFhq/gMnHsMk8wBgjnTy9xluL8U8D/JMAcxjloZ9Rvl+3eiL6GUQ7/fmGY5lrpVzH/n6qXCJPmReolxPbeJLO6xLf2nNPrHZ00cKWozSfhZETWM0QVWA7zXHvsNpPs3mvmyOOc++ycue8V529rs09FIAYw8dc5KMsTljxGoc1Gv0gfYB66T17rSj9gb4QyhiGxkr6MJRXuTxWSWHVm50KQkCFCB/qhQ4F0clYJFjIE88V4nnj3ku6fAcefx5hYYWnVbm39s3B5Mo/oZKnU7MgkPLsFlp5gZV/WlUQU7DjaZZLh3xyk9ep/x0nioQVNlO4+UZNgN6kjK8QdZOJK5MXi40sQnoBkhjdpv5Oabu0GTce2QjLfw5xg4NwkQ2s26Q47nY2bG6d+FGCKrdRzokq2Qjh5uc2P1pcySaHV073X+a8sMqJquL/NE9dm8+ffRBlSI9Y+Jyw4g0S6uuElXpihbmIca2XMUM7hP74yY1T30BlMdbpQvlWgqgPykO5uFGJsFrLhYqwcm/xYbGOcSuII4x/fn7Jk6Hg3MjPjxxzcwxzQdJiowyBjbeGurfn8QIpogpvC8ITrMJ/w3nzhTyQt2zYncACsUHPs7CBd5s3zOHcBg4+bNxRZvd/yfMbdO5wbNAhENAH6AuMEfpH1o9qjoNQytHzBNcDrgtcH6gfxJMTVhyEesuXPsCGNmBDqoUV2oK5JWtiOe3x64d54/5bzZQnGOjPeS3HnXjtHi8Ww1hX8iKqmLl/+mCNKRJWoLfmYI2RJ5xRwgrzWdoYakMaSjtBtFOuEX2tgrCF+hUM5dsfibbIeKOt6GfMRTzZhqDHEyb3lNK9W6LD3QMwbrjeIKbGLWihsfM30/vzmum9uU30/txmdzx23mYaN7/FzQHcI9w6wPMG44o5jXUI1yLKQ19jDOq1f4W6n/V8w7HMNfRDqfPN31+VQuSj64p6ufWJxY77jBU7+bbvhNCS7Sdyb+3b0kkLWo7Q/ObD7qMp7snVRhZYhY+vMLHv3ZgTWFpc4SkWnn5hr1x4YpUXVvpaR91kT15tRvWHEP2Cuvlj5Y9DKO9yeKxSwipU2b5E6XB0Li4KTAaea+5bTjBJWPfQKp6VS1mR4z2lC1sOu6dK8jkq9xkqoXs0Wkz5TNXs9SCedOVUPx6huphCejxmPeQmOT44iInP61jR+1X1JJU+7QtEfYTSlzJx0aegvwjBpie1tKu/E+2QdqOd2NTgP9TyNhzclHKfSeksvB0LG1IwJ3Zyb+mDDzeyQgz7sGnBRthtWvlmh80oXrHZkU2NFk46P3xOIvR+epzDp8uHDZtavF0IN2RsDvHfTy2s0L56GTNQ5qCet3rO+nO3VvMW+aM+KBtrE9YCbMyxYcLnjzA+hSdGmCNOHOWfQAWEU0FgY6zz4y3MzcXi+Yj5h8/T4IsxMHdFUEFs40sKcIwPvbs6bDpcmK+uLpivqAuEmhJr8tYzEVpuDuefhiAWZWN+Yv7hWkGZ7omVElbYzGEsMA4yFqH+qwZl3FEu5oIIK9QLAgIbWvdWQA5GvfGK8QoJK7QD44rxRV56TdRlZqHUDXmhj1A3lIfPxUDgYewWceH4HKesMTLeGLPiJ54yZ3LzpnuN6V5n9DxCXu7pJuePccMGXN4KiLZWqo0g0ktbk65XXWa55fY1Sh9IP7g9DBNv/3RimgMwFvJPPbwlGOMn4gr/5MCTKieuCqLKE1Y85rgmcZ3jHyv4R6EIK/+eUG/9C0q7QMwlf77hWM+1Uuabv68qlZIfykUdUC9ce25O8BrQxGsTX6buLYG8bXBfQMHLr3uCVfgMFQstfM7KfQaL97vzweYcC28bzL9dcCHvi/GlF+7jK5yv7FkxD9EP0n7UTe+9q02/T2Qs5FrxxwkxUk9hKN9yCE1UtrDCj+9KZTX5Wu/xI729zSN5HmR2nOii/ce6qO1oF+07wjzcRXsOdtHugydod4di+3HaFcljOR44Rjs9Opvz+2lOuHL2cnmtXDbqcIDrgjodUnUM1b8vUOqneVgRbdDnofh6obQRY3eA2Xac51EnzyOeT7sPddHOji7aceAEbQf3H3fctv+Yo5yLD7atbczWTtqy7yi17DtCm/ceps17DrlXnMO+ta0zF8fcBgbyQ5mO7Vw+WCiD6dLk49iHOqKuqPd+nocd+fbIOIbaXS+U8QsxFF9tolz0O8ZgP7OV14a9mEu8XmCsMG5bW4/yPMBc8Ml29sGPOSTzROZHN/PzQNkwN5D/Lqx/WAe5TJS7F2sj09WB5wj8iNt+IDfXXPr8XHTlodz8/EWdWvbKHOb5iznM593zuLhclIk5iGsI15LMw94aC58YF3ffYLYzMT6oK8YI9QZxDMIOP+L866ka7UGeKKNQL9SJxw1juTM/Zrl1SI1b0dgV060RoMQV2L3GyLqBuYE2Y+1A+dUeM+nDEEPx9Ui0VdYJXCvo+8JawWOyg8cGY4SxdPeS/H2kefdBatrVQZt2thcRNvgRizF2Y8tzZyDeEzRlXulrVxiKj2NoL1Uudf5ST1mfDmAN4jnRhnUpv8fFnhPcw3Mkt9fNE+Od3+/uEvI+Vfas2M8iZi+na+V89nOe7X14z6r7xWcovmR6mkcIYXVxFmEFoxZWF+aFlahDUYsocNSYMXTL4MF9gjfneVOe32Vez7z29sF0zaDB9J1bB9NVtwymK28aTFfcGGaj8LsZqdMykddVN3OZXN7VXPa1t3Fd7hhMN3B9bszXT+obaktfodRRKH2r6ceE8umP1G1COzFuGD83p3g8/Tml55WeE0W2GwbT5czLrr+DLr3udrr02tvokmsG0cXX3EqXXDuIbbex73YXg1hHb55JfqCUW1Q2mI93Mfk4zMVrMA+5/rg29DwMtb+/0x+/EMUfSl9p+nXR69PVmEe8XmC8MPaYB5gbBeLc8XY3PzB/LgdDcySCMl8wXzFvsS5hDjvyvMA55gjqUTSfdD5cFsqUOXwZ5jDXC3MX81jXtzCPOZ0rl/NFO1HWdbwWhuZhrcZCU8qVsUF9UC+51lFXd70z8erIYyZtQJy0w28LGCozC0N1k3q5cYtYg9zY+eMXx3y8Ti/3MMwRtFnaW60x020NUfyVLLOvUbdR5lThviN7mfx4uzHOX4vuOsS95Opb6KLv3EwXXnVTD+I+gzikQfrQPQGs5/4V6n5OmmtgKI9aUNcB9cL49FifMC94HDE3sB64dVyYX89D64ObP2B+DcA50iAPrHPIO3S9g6G6Vpu6fFCPl9CPCeWThdA40Dqiewr6hzURHjqVLKwu4MRQgXg0qgkbGsIvRqPRaDQajUaj0VgXhMaJ0j946FSysDqfE+MRJN57K8R7UWGDkj3Br8dPGI1Go9FoNBqNRmP/JrQNNA60jnwGTwgbHjqVLKzO48R4jyU+2IgPzgnx3ks8Juw8doIOHTluNBqNRqPRaDQajf2a0DbQONA6WvuA0ETQRonCauTIkfTKK6+4L68YNmwYPf7443TvvffSOZwYH5bD1y6CO/KEDe/xPNJ5nA4c7DQajUaj0Wg0Go3Gfk1oG2gcaB3RPUKIrXNZG91+++10zz330MMPP0xPPPGE007QUNBS0FQNa9eupZUrV9KSJUto7ty5NGnSJKfGzrmMhdWJLtp2goqIbwzBh9sOs7JrPXDUaDQajUaj0Wg0Gvs1oW2gcaB1fP0DTXTO5Y303HPP0Ztvvknjx4+nKVOmOO0EDQUtBU0VKazOhrA63kVbj1ER29mGbyNpZ2W3Y8+hCM6jp669lq5VvPvtZtqx+n26+9p7afRqiZHjSrNn+U9Nj4rL16GobpXhlGfy7db26c/Rtc/Mq0p5WYi66f4R9qhvJlZrTNOOZ42IMSzU5TmaEoopYon90stzxCfmTHG/B9pV9vyu1hzKwqg6pKlbX6i/0Wg0Go3GrIS2cRonoH+giaCNEoXVmjVraMWKFe6zVXi/oBZWyHhLJxUR36GPr2Q80NFJW3cdjOBc+hlvLt5cGfIJ08SUyrR5R8VVqG5TeZP59Nwi2+Snr6WfTVUxvc5KjkO1xtTLF/3KgmZyj7gacOV7LBhU2Xz+ZuJ4pu2XavVfhejPZ9cXLMbfairYlr51b9F5dvaFPoiqQ5q69fExNBqNRqPRGCS0jdM4Af0DTQRt9OyzzzphNW7cOPrkk0+cdoKGgpaCpooUVmflhRV+hVkTheG783eyslu+bm8EZ9Cj1/6QXpoT8gnTxJTKtHlHxVWobnPeoTuvfYbeK9iQrz7vC6zkOFQyL00/32qVk4IfPEPXDnmHpoV8kUxb315sVxpiPqu2T3v1h/Toq2x7fEY+Zg29NKTc+veFPoiqQ5q69fExNBqNRqPRGCS0DTQOtI6vf6CJoI1KF1aX5oXVUc5Q8cAxLaz2RXAmby7u4c1FnN2LcSJE3l41jMWHpCmFUeUzVTl38qawZ33wKvVgPj6zZx6puZY3mtfSox/kzz8YpvJLbv97j6u0ofiy6iaM6Kui+uh6xPl0Xrm2B9NnpldH9KPb4Ad8Ref541c5Pl+PO19dm48rlcgzIp9U/RJV31y+kjY3T7zYpPyD7azkOCAvqY8co2y5Xv1jiY2rH1O1q/iaLPbp+lf32vDyi7IX1S2m3R/o9pU7/4xGo9FoNFaDBWHFWsfXP05YsTYqS1gh481HqIj788Jq197DtHJDawSxoejeDLkN0Ydiv4denh93zPxwGA15bV3uuCT65Q+jscqeq0srzXztHvalqE8ZRBnSlrE/7S47tjxpP79e+9OZ3TbeyEpeOt/yGGorbKqu88fQkKK6xvnyx7ruZTNXZmE8i/L166/P8+lUH3bPhXK4jl7Oi5Xi8UzRL4n1jfPFj0mwnRUdBz2HucwhY2ims+XrUVRWz7qHx6G4XT2vyYg267L4uLLXRr6+Qeq6yTETdXBlans+n3w/FY+Z0Wg0Go3GvkRoG2gcaB1f/0ATlSWszrwkJ6yaD1MRUdjVg1hY7TtMqza2RXAWPcYbiBHz4+zq2G04vA3MT2d5abMwonyUw5ucWcG4qOMyWShzHY3gzV93ninar+qLzeuIj6LyKoeBtrr68MZXxWFD/dhHCb5Am4aMXFeIK51+vrp8v/76PM5XAebbmKlfSq1v6vy984qOA/MjCBqem/LKtlkjWchw/vKai83QrqhrMq7NKl3lrw2/vgF7vl97XLNFaXvm0z1mRqPRaDQa+xKhbaBxoHV8/QNNBG1UsrA64+JG2t/ZRZsOUhHb2PadWwfTbi58zaa2COY2FK8siLOr4wW5DdT4othyGFE+yrlrDM0OxkUdl8t19MpdnNeEmLIj259Pu4BjXVqcc1yPdpTDQFsD9Rn/BG8IJyT4AnnN5s02Np05f6kszhd5YgMf8hWfx/kqQ9e+J2Zl6JcS65up3/3zSo0DMz/3xnN+hbxge2JMfq5KbIZ2ZbguuttczWvDr2/AHqhbj5ge+aCOFRgDo9FoNBqNFSe0DTQOtI6vf6CJoI1KF1YXNVLb0S7a0E5FbGXbVbcMpj2tR2ht0/4IzqbHsaFYGGf3j/Ff9fUqthzGlX8tPT4hd57bbEbVJ5S+NMqmtrh9fnnh9jsRwRtI8eH88SeerXJf5eoj/bR2ITaRz9IHqXw9+821oaz6+vnq8/Vus1qoz4RnI8Y0dF4CWSB3p8+VnWsb8k7TL6XWN23+ofMcyx8HMFf/7jqDubpdW6iP2HTdo+qXSyvtyl0rYV9xm6t5bfj1DdlzdetZVkyMV3+j0Wg0Go19h9A20DjQOr7+gSaCNipZWJ1+IQurI120fj8VsZVtV908mPa2HaX1m9sjOId+ypuL1xbH2b2Yxe/ypkO9rebJOSpdViJvlRdzyOsbc76Pu3+DaMjr70bW58Mn82nLqkeerm1+f6Rsv582mFc59OohLKqP54/0qbxUP+Or0T+UtCWxZx3nvc4b8LvepXk412U9+ZyK9dNFtDUTkYe0C+Wp+ZGmX3AeWV9/3nnp0uavzys6DjkW9X2ert5F14quU0z9cB55TTIT56Ef68WURL++EfaiujF7jFnu+KdP5v6xAv70Y8nLaDQajUZjXyK0DTQOtI6vf6CJoI0ShdVdd91FP/jBD2jw4ME0aNAguuGGG6ixsTFRWO3bf5Q2trQbjUajMcicsBrJIivsNxqNRqPR2FcIbRMnrE5jbXTeeefR5ZdfTtdccw3deOONTjtBQ0FLQVM14FeC8WvB+NVg/Hpw4YmVvBXwABVRC6tNWzqMRqPRGOQceuLae2nkkpDPaDQajUZjX6IWVr7+gSbCQ6fnnnvOPbEaP348vf322/Tee+/Rhx9+6PTT1KlTo4WV+4xVZxdt7KAiIuPv4P2HBzqpaetBo9FoNAY5NyesloZ8RqPRaDQa+xKhbeQzVtA8GxShiaCNtLB64403aMqUKU5DQUtBU0UKqzMvbqQDnEnTISoivhXjanxjBhfevO2Q0Wg0Go1Go9FoNPZrQttA40DrNB1k3aMITYRvBRRhhc9YvfLKKzRz5sx0wuos+R2rI1RE9wPBgwbTuInzjUaj0Wg0Go1Go7EuCI3jfsfK0z/yO1YirMaMGUOvvvqq007phNWljdR+vItajlIRkTF+lbitrc1oNBqNRqPRaDQa64LQOBBWons2s6gCoX+gjURYQVS988472YXVlk7K8RjRViZs194+mLq6qECBthmNxoHB999/nzoOH3fHAj/GaDQajUajsa8TwgoiSj9UAqF/RFiNHDnSvU6YMKF0YQVR5YTViZywOsGlH+djEBVp2bKFpkyZWrAZjcaBQRFWOLa1wGg0Go1GY38ktE2SsBo2bBg988wzNGLECPfFFT2E1Zi3x7gftuohrPKfsUJmBWF1PCesrmNhdZwLONp5osBJk6c4alstuXLVGprw8VR6c/R7RqOxgsR1hesrdN2BIqzkvLfXAqPRaDQajcashLbx3wroC6tHH32UnnjiCRo7dmxYWC1atCj4xMp9KyBnjPcVanElwqrz2Ak6dOR4n+Hmll20c09b/o1IBoOhUsB1tW7TtuB1B4qwCvmMRqPRaDQa+wOhba7Of3mFfLbK/4zVfffd594KiK9bDwqrqLcC4rva8XWDzYdy34Yh4ko+Y3Wk8zgdONjpeOz4CUc57w1CWBkMhuoAwip03YEirHDcF9aCeuO9P7rfLfghXz1xoLSzXmjz0mg01huhbQpft36457cC4t18Tz/9dOF3rILCavSbo+mNkW/QKyNeoREvjaAXnnuBnvrZU+7XhfFjwJs6cr9fJeLqQF5YHeaFpvXAUUcovKbmFhr/4aSCrdY0YWUwVA8QVqHrDhRhheO+sBbUG3947/3UcehY0FdPHCjtrBeWOl4NDRS0V4pDhgwpYigmC21e5oi+bGjoZiX6NsQhyNuV0RD0G43VJLTNd24Z7H4M2P1+L4srJ7CYIqzkWwFTCasXn3+RfvbEz+j+H91Pp13AwupIF21op5y44kzlUdi1tw2mg4eP0e7WIwW+P36So7bVkiasDIbqAcIqdN2BIqwK5yWsBbiJJjGUrlKsRDk6jywM5aV51w9/TPs7OoO+JIbK8xlKl4ahvITYdIXSxLGcdr744oux56UQeYQYiq0Ua1lWucwyXjwluo95PRHRo+2VIPIEPvnkE/7b4F5LmYua5czLalBfZyG/z7RxUcyNUzTL7V9NCCpAi6ty6280ZiG0jRNWR/M/EKzEVWphpd8KiF8PHvv+WHrip08UhNX6A0QbWVyhADy1wvsOIazaD3bSjj2H+gxNWBkM1QOEVei6A0VYhXxpiZtnFMSH11DacunnK+dZy0P8kCG5jQA2dHGUmDRl3Hn3j9x/0kK+OCLvJKQpP4pR+cMOYsMVShfFUtsJQoTEnZfCUB4ieHx7qZT80jKUR28x63hhtmDK6Ff8xTwJMZRHHJEGwHWFfPUrfHgNMZSXZjnzUljJcZTrSxiKAZP8aYh+0wIqra8U+qJKsxJtMRrTENrmqgRhlfhWwHlz5xWElf6MFYRVKwurdfsp99QKBXDGEFbuqwg7OmnrroOOh48ed5Tz3qAJK4OheoCwCl13oAgrHJe6FuCmGQXtw3EofaUpN/KQL4qIzyKs0pbxgyE/or1tR4K+OCJv6TOfYg+lS0vJx4fOHxuuUNoQS20niM1q3HkpDOUhtkrmr1+jqP2SvreZdbz0dMEhznEt4Mx/zTJvQMSXiqSyypmXQj2WlRhDXFuaUX7fnoXoFxFO2jaE89V9psWV2LIS4smNBfJxx26GOIoNrES7jMY4QtskCasHH3wwXli9NeotgrhKFFb5z1qJsIKyW7Z2ryMqsnZ9Ew1/bWzBVknKxRTyCU1YGQzVA4RV6LoDRVjhuNS1ANd3FOT61wzlEccsabPEaiI+i7CS2FBemjffdjc1bT0Q9EUR+SYhTdlxjCoDds1Q2hBLaadQNqz+cTkM5SfHIeq0aajT6XyiKHE6j3Lpl5El/7TjhWmS2yJ3Q84d+Y/bsOeJ6wOvWeaOpEOOcn0Jtd1/TXMNljMvNbP2bxrqdvo2HVcKRTBpmxNVeWp7KDYtc0LKe1LF45Kz52aJ9lWibUZjFKFtRFi5B0oBYfWjH/2IXnrppaCwWrpsafS3AspbAdMIKxAbqWoIq7SLhAkrg6F6SCuswFLWAlzjaZH1xprLW/Lv3oiEGEqflkjf14QVXn2G7KE8kih5xQEx2PSG0vssdwMrm9ZKbV6j8gnZYctarsRL2jjqOJ1HWvrpovLKUkbW8cJ0wYwpkP/gWsCZvGKuyGuWeSnp5NrSwLlfTnd5yfO/nHkp/ZmlX7MS9fcZisvCXP9D4KQTVlHxScyJp/Db/zA2GCM3TnlbJdpmNMbRF1abIKzy4kqEFX7DChw3blwPYfXhxA9jhBW+FVB9xsp/K+BOLnz5ur1VpSwSIZ9PE1YGQzbI9RWiDwir0HUHirAK+dIyVGYUEBvKI4rdece/Zs3XJ9KXIqxCeWliY9e87UDQFyLyTILUUb+G8opjqJzcBqt4LsEWSu8zazt96g1syJ+Vko/OVxgX6/uiqPPK+pqVSJc2j7RlZBkvNy94fmDK6Fd9TSAGzB2nuzaEkg5pAMnblYWy2Y5zePRrmnJKnZfS53EMpSuFaIMw5M9KeQLl290YcRl49X1RaaIIoQQUhJRibgS7BRVYyfYZjVGEthFhtbEjp33kyRWE1Zn5L6/42c9+5n7LSgsrvI79aGyxsJo1a5bbJOHLK9zXrbOw0k+r9JdX5ITVPke8/QeU80qw+yIK+32asDIYskOuM80QcsIqfO11C6vS14KockNAbCiPKObylvyjX7Pm6xPpSxNW4fyEN9/2Q97YtQd9PpFfGkod5BUM5RdHpNHAZkvyBODFeW4TFs5DM0s7o5jbrIZ9WRmVl9i7N8fdx9qWRJ3Wf42jpM/CLOnTlpFtXsqM6L7ictdc7hVwm3bH9NeGEOly+eXycvNaXvPzEv7c3Ox+TVNOqfNS97cca/rxpRL19xmKy8JukdTTB2EVssel8enGmWODxPh7NrTJjWUF2mY0xtEJq5sHUysLK+gfPFhyAot5oLOLzrg4J6xeffVVev755+njjz92gmrhwoX0zrh3aNL0Sd3CCkb9dev4gWD3KAwZQlQdLv669Z17D9GK9fsc5XMVL48cV7CloSwCae1xNGFlMJQGud7AKEBYha47UIQVjstZC9Ii69rQnXf3q7Q3DUN5hohYvSmMo44L5aV5y+0/pM3b24M+TeSFzUcaSqx+DeUZR6TRwHlug9vd0zhPm3fadkZRb1pD/qyUfHS+Qj9WM8kv1Hnp16j0cb4kSto0eaQtI8t4ybzIXXtaRHXbc+fZrg0h0so8zuWW7YlVKE9hX5uXmqi70LfpuKwUkRTyRTFLGoyX1LNIRPF4uLmgbIjBWOXGK3ceytNorAShba68aTDty38Uat0Bcu/cg8iCJoI2kq9bf+2119wrhNXESRPp3XHv0qpVq4qFFX4gePiLw2nYsGFOleGXh7Wo0j8QvGvvYVq5obXAEa+Pd9S2NJSLK+o8LU1YGQylA9dcHCCsQtcdKMJKzktZC5LK18i6PuTylvzzN3O1gYtiKeWE8oljmjJyG7uOoE8TeWWlbFhwHMozjkijIef462+EQul9pm1nFLFxlVehH5OFUelD5Qi1P4l+fFL6JH8ckcZnXFzI5zPLeGEeyDWYO87Bt2e9NoSSj6RzYkrI57DDjzmpX9OUU4l5qRmKKYWunXlG+Xx7WqI/IZLw6tvlrYC+PRQfxVw+uXkgddViSgh7KWuJ0VgqoW2uuJGF1eEuWrOPHNe25ogv9MPHpERY4TNWr7/+Ok2ePJlGvTuKps+a3vN3rPRnrPA+Qjydwtv/RFRt6VTCat9hWrWxrSKUC0sYikmiCSuDoXqAsApdd6AIq5AvLXHdp0XWNaI77/wNPL9xi2Mp65DOG8dJTFvOrXfcQy07DgZ9mshLNiE+3UYmT7FJfJo6hIh0GpIf4PLlV9kMhdL7TNtOn3rTKufaJ8dZqfP1GYoXJvmFOi/96h+HzsVWSWbNN8t4YR7kgHnfPRd72ouvoVBeISJtbu51pxXiHHbx69c05ZQ6L0E9Xpqh2CzU7Qv5waR2JVGeQGmbfHEFqO2h2Di6seZ4UCDtiRNVobyMxkoS2qbxhsG052AXrdxNOe4hWsWE2Dr1/Eb66U9/SsOHD6fRo0c7gfXmqDdp9Luj3cepoKMihRW++QLCSouqLce6hdVuLnzNpjbHjoOdjnJeCuWiCvnS0ISVwVA9QFiFrjtQhBWOS10LcO2nRdZ1Ipd3/qad37TFsdR1SOeP4xBlo4DjtGUN4o3dlp0Hgz5Nnb9PtF8oNqlTmjqEiHQaOJcNrnhkQxRK7zNtOzWxSfWPQ7ZKUpfjU/uT6MdnSZ+2jGoyy3hhHuTmHxB+dZvtEq9ByV/muuSj83P2/KuOSyqr1Hmp6dt1bFaivpqhGGGSP465azdHbZMnVmKTGG1LQ6l/lMCSdSpXj9LbYTRmIbTNZdffQbs7TtCyHSdoObgzx70str59XiPde++99Nhjj9Gzzz5LL414iV4d9Sq98+477osspk2bFiOsLm2kdhZRWlRpYbWn9Qitbdrv2HHoGK3f0EyvvflBwVZrmrAyGKoHCKvQdQeKsMJxqWsBbpxpgdhQHlGUG7W/2Qoxa96augwp06dsFnCctrzbBt9DW3ljF/Jp6nLSUuoSyi+JSKfR3a7cJks2RNjAhtL7TNtOTWxS/eOQrZJMyjNtmYiTWP3qH/vU8b3JLOOFuZBDzzko9tycydlCecQRaTH/kE/oVfKVpy2+PZSnsNR5GTVGcb40lH4rpZ+yMncNdwuntL4slLb4Ais3Prk1JJTOaKwGoW0uvfY22tV+jBZvPZpnJy1h7uk4Tt8657IiYfXiiBdp9JjR9O677zodFftWwLMvywkrJ6pCwqrtCK1rPlDga6M+dNS2WtKElcFQPUBYha47UISVnJeyFuDmmRaIDeURRblxp2EofVoiPTZqslkLEZsFEMcSF8pL87bv3Uvbdh0K+nzqMuIocWnKjyLSpqFsZkN5aGZppxAb1KhjfV5JSt5xDKULMZQWDMVqpompNrOMFzbIEDM5hF9lEx1Kn0SklWsvjno+alsoT2Ep87LazNJPpfapMDcu0YQ/lC4rUc/c+OQEVjnzwWgsldA2l1wziHYeOEYLWw7TIsXdLLa+efYlBWH11LNPOWGFp1T4vNWECRMyCKu8qNLCam/bUVq/ub3P0ISVwVA9QFiFrjtQhFXIl5ZyU03LUB59gaG6JjGUj+btvLHbvvtw0BdiqIwohtJnYW5DG0+UI5vZUB7CrO0UihgJ+fojpT1JDKWtJbOMV2hehBhKm4ZI68/tOGIu6vNQnsJS52W9MdfH3SxnvOKYdlyMxmoQ2ubia26lHfs7aUHzwSLuOtBJJ5/VLayefPZJGvX2KKed5syZ48TV/PnzUwgrJaq0sNq3/yhtbGl3PHj4mKOc9wZNWBkM1QOEVei6A0VY4bgvrAX1xju+fy/t4I1dyNdfiE0SNrMhn7Ae2jmQ2F/HS0RcyBeizUujceAQ2ubiq29hYXWU5je1MzsKzAmri52wGvrYUHrm2WfcOz+gnaChcIynVtmE1XEWVie6hdWmLR2OB3lTtWHjZnrzrQkFW60JYbVzT1t+G2gwGCoFXFcQVqHrDhRhheO+sBbUG+/4/n08BoeDvnriQGlnvdDmpdForDemEVb33HsPPfT4Q/TGm2+4L6wQYbV06VL66KOPooXVOZc3UgeLqK0nqJssrNrZdt0dg6mVC2jaerDAN9+e4KhtteTu3fuoZWer0WisAnF9ha47UISVnPf2WmA0Go1Go9GYldA28lbAgqhq7ih6K+AP7/0hPf7Tx2n8+PFFwgpaCscNI0eOpFdeecV9Jzt+GPjxxx93j7nObWykg11dtKOLitjBtusHD6Y2LqB528E+w7a2NqPRWEWGrjtQhFXIZzQajUaj0dgfCG3jvryChdXCzYe62XLYfVPgN8++lO6+924aMWJEUFi5L69obW2lXbt20ZYtW2jDhg20ePFi+vjjj+m8vLDaibcCKcJ2Q0FYHXI8xJsqUM6NRuPAYbewsrXAaDQajUZj/yS0Db5uHd8KuGjLkSLiWwHxdesPPfyQ+2HgzMLqfBZWh1hE7WExBe7OE8Lquyysxk2cX+DO3W20bMVqevAnzxbZjUZj/VOEFY5tLTAajUaj0dhfedn1t7sfCF66/XgR97Dt2+de7t7dV5KwuoCF1WEWUXtZTIEisERYhd4qZDQajUaj0Wg0Go39kZffMJh2H+yi5btIkfXQoS465bxGeu6550p/YgVhpZ9W4QvN5a2A3/jGN4xGY564GAG5MEO/O2M0Go1Go9Fo7JsEGm8c7ETUKhZAjntz3He4i069oAxhJZ+x2sGFbM9zG7OdbdfmhdXOPe1G44BnlLC66qqrjEaj0Wg0Go19nC0tLW4fd+VNg52IWttKtEax9UgXncbC6uGHHy5NWJ3DwgoiajMXAjYxNzFb2XaVElaTF643Ggcsk4QVLj5NxBqNRqPRaDQaa0t/T6Ypwuqqmwc7EbV+P9H6AzmuY7ax7fSLGunHP/6x+5xVZmF1BgurNhZR646zUmOuOka0spNo97Euuvw2E1ZGI5hWWCHm5JNPpqE/eZTmL15Nm7e1Go1Go9FoNBqrzHUbW+idMWPcPixKYImw+s4tLKyOdtHGDqINYHuObWw7g4XV008/TT/96U9p9OjRycKq4cr36R/uGuuE1SmXNdIeFlFLDxMtOkS0gDOfxxlvZ8V2Eas5EVZTFm0wGgcs0wgr+C+44EKas2AFTV6wzmg0Go1Go9FYY65e1+z2YyFxJcLq6lsHU1tnFzWx9tkkPEi0n21nXJz7jNXLL7/sXidPnpwsrBoueYOGvvI+ncyJd7I6m7WfaEYr0bS9RFP2ELUc6qJzv9strKYu3mg09luOm7mafvrCWPrhIyMTiTjE6/RphBX+Q+JEVeCJl9FoNBqNRqOxNoS4wr4sUlgNGkz7j3VR82EqsIl5gIXVmZd0f3nF8OHDaezYsemeWH3tztfoaxc00lYWUZN3E03aRTRhB9FH2znzds74+m5hNW3JJqOx3/LBJ9+mCdOX0pJ1WxOJOMTr9EnCCr777nuAPuGL2Wg0Go1Go9HYuxw5MvduopCwuua2nLDafJQcm4/kxNUBtkFYPfPMMy4ebwV8/fXXk4XVkFenUsPZz9C/nN9ILQe7aAKLqQ+2EY3bSvQ+l7nxQBedfq0vrN6j7558Gn1J8bsjuzef6Yl8rqX7Pg75jMbK856hr9OS9dtp8sINiUQc4nX6NMIKn6kKvY3QaDQajUaj0Vhbyt4tTli1dJKjCCwIq7NYWD366KMufty4cTRixAiaPXt2vLB6ftws+sItI+gr5zXS5o6unKjaQvQel/fuZqIN+7votGu6hdWMZc3M950g+tEkHJfDSuVjNKbjvT95g5axYJq6eBPddf9TdOoZjY7+MfyIQ7xOn0ZYIWbK4o1Go9FoNBqNxl5mkrA6cLyLthwjRxFXsJ11aSM9+OCDLh7fCognVtOnT08WVjc/+Y4TVi0srD5kYTV+K9FYFlehJ1azVrQwx9GNJ19HP/4Ex+WwUvkYjekIobR84w6avqTZiSiBfww/4hCv06cVVvpzWUaj0Wg0Go3G3mGcsLrWF1Z5cSXC6oEHHigSVu+++y5NnDjRfUMgRFZQWOFbAb96QSNtOdRFk3YSTcx/vupDfMaKxdZZ6jNWs1duYY6nm1gQ3T8Fx8KFdP8Vp9G5Ty7MnY/6EX3pihfofYkd9QKdm3/bYCHGz2dKdwx406i8PR93053Xsf1H9HyP2LwtFGc0Kt776Ju0YtMumrGshe5+4OkiQQXgHHb4EYd4nT6tsNJvHzQajUaj0Wg09g4rJaw++OADmjRpkhNU+KzVggULooXV1y9qdF+tPmMf0TRwL9HUPVwIi63zbuwWVnNXb2N+wAKmWwB96eQf04sFO47lVcVe+SKNxfnUF+k8Fj8PTBWfPmYxNRrHobjT6LyfLcr5itIxR/847/PjjMZiamHliystqrSw0unTCqvpS5uMRqPRaDQajb3MOGEVeiugFlYPP/xwQVh98sknNGfOHPcbwCtWrKA1a9ZEC6tvX9JIuzu7aOHB3G9YgfPbiXYc7aKLb+kWVvPXbmd+SDeffD09OB3HHt/6sRNbN78ltp6xw4eIX/mmD2ch9WMaLvlExcHnYrWwYw75sGec0ejxPhZKq5v30OyVW+mHDz7jxNT69esLxDns8CMO8Tp9WmGlP5dlNBqNRqPRaOwdphFWIqhA/Rmrxx57rCCsEn8geMOGDU51QVidfnkjtZ7ootXHiVaxYlvJXMGZ7+GMG7lQ2TAuXL+T+RHdwgLmoVk49vjO/U7o3PKO2PzYpfTQleJXvlkvsVi6n15Seb10VyAOvkBsjjH1MhqZP3psVF5YbSsSVf4x/IhDvE5vwspoNBqNRqOx/zBJWPX4unWmfCvgsGHDShNWZzc20oGuLmrmQpry3MRsY9vVg7uF1eKNu5kT6FYWMI/MxrEm7A/QiMKr2E6j859ZnouZ/TKdX+STfHJxt47BcVxcd2whzwL9OKOxmBBKa1v20bw1O+neh551Igr0j+FHHOJ1+rTCaubyzUaj0Wg0Go3GXmassJIfCM4LKvw4sPuB4Lywkh8IziyszmNhdYhF1E4uBNyRZwfbrlfCasmmPcyJTtjot+KdP2wiPXIVXpe7mAnDbqAvXTWCJrjYG+jWu/k8H3vrGOQh+dzAQih/PnsEiynJU9n9uB6xzLsnhuOMRsUfPz6a1m1to4XrdycScYjX6dMKK/1Ngkaj0Wg0Go3G3mGcsLoawqqzi5oOsaDKcxMTtrKE1YUsrI6wiGrlQoT7mIfZdmMPYZWFJnaMfYePPTeWZi7aQJt2tCcScYjX6dMKK/1NgvEMfcNmbfn+k9fRl+4cz8ehupRYP/etnVHpSsmzO83zd+pvFjUajUaj0WiMZpKwamMRBTGlCWF1ZjnC6iIWVkdZRLVzIeCBPCG2blbCalnzvoycRINYWA2dG/IZjbXllKUt9OizY92TqCQiDvE6fVphNWfV1pSUb7gM+WpAfPvmFS/S++48VJe09YuL832ltFmnWUQPXJE1vdFoNBqNxoHIUoVVWU+sLmFh1cki6iAXognbrUpYLd/cmpGTnbD6ybyQz2jsX0wrrOat3paSH9DNLBgenBryVZ/jfnad+3mC3HmoLmnrFxfn+0pps5dm9I/pS0M+8GKMRqPRaDQaixknrOQzVvLZqqLPWF1aAWHFIq2IvrBa2bLfaBywTCus9Fe0xzPmJwK8nxXo/gmDYt95Tw2PziOWi+jBK3W6UF20LX/8VO4nFXJlL8rbu+tZ/NMHcb58GUXtVD+5ENdG+K4cTuMl1mg0Go1GozHAOGGFHwh2X16R/1ZAEF+53n68i86+rErCapASVqt4c2k0DlSmFVYL1u1IyZzIeGhGyM5i6u38+Qz8xIDEFfs+eOp6Fh+hPJKIfO6nl4rO/Xy0LVcuxJHzvY2fVpD0flo/XUof53neU0vy9rg2wq/rbjQajUaj0diTccLqujsGU/uJLtpynBy35tnBtnMub6Tbb7+d7rnnHvdDwU888YT7+vXhw4fTK6+8QiNHjqyMsDIYBhogmrIIK/3bV/GM+O21uN91g+/Kl+jDgi8uD3kSFPW7b9oeykfbfH8FfEV1zPOuj1K0Eb+Hp8+NRqPRaDQaezJOWN3AGgffgL6dj0H5VvSDbMM3po8aNYomTpxIc+bMoWXLljntBA0FLQVNVTFhhQoZjQOBIpqyCKtFG3al5AQnGB6e5dln4Xfc7qcRyjYCwmpM3nfVy/RhwReRRyKRTpexjB6+ysunqB5+Ofq8RF+gnY6JbcR5IJ3RaDQajUajYpywwjefQ0Tt5mNN/ATV+bUWVrKpNBrrmaUIK/2jwvGM+lHrpB/M7vZ99EzubXLZfxh7OT3CQkqng3j7Eguaj/T5XRPyfr+u+rwcX9SPfce0Ef2h6mk0Go1Go9EYYpywuok1DkTUXj7Gz0wJ8XNTF1RCWOGbAE1YGY3dLEVY6d++iid+5029DQ4iI/8j29E/mM0c84CKH8F5lPZbcfgh70J5jhBb3XXJ/ci3+PzfpCs+f+XufJrAj3XH+cI/9s32uDbCJ3FGo9FoNBqNEZS9W0hY4SelIKK0qKqIsLpYCasOpggsE1bGgc5ShNXSpr2145xXWJg8SK+GfElE2qteoYkhX5/lChp61Q00dE7IZzQajUaj0djNtMIKT62EZQurCzkxfgwYPwqMHwiGuAIhrG41YWUcwCxFWOkfFa42X8XTIBZHHwd8afjxszfQl+6eFPT1Rbr29qP6Go1Go9Fo7D3GCSt5K+AePsZnq3blWfaXV+ADWvIew1Ym5BME1tGUwmrhfX9DDQ0NBV70ZrevP/HNi8L1R/v+5r6FufOF99HfxLX1zYvY/jd030LPnpQuEBMb289Z1Kd9mKUIK/lB4epwFf3kO/m3zTk+SK8F44xGo9FoNBoHNuOElXx5Bb4JcBtzaxfzRPfXrZcsrPAjWPged2QKpQblBoGFp1i3JAgrJ6r+5j5amD9va3uTLipFDEBUFOWTgeWkLRD1vojeDPi6RQBilGhyQqg4DcTZRRdd5ImG5HQFe9ntYFYqn0rSq1M9C6sVm9uMRqPRaDQajb3MOGGFr1tvZ63Tcoy1DdiZ+5HgA8e66KxLyxBWp1/YSG1HumjTwVzGIrDwFAuPyeKE1X1/E3g6UwrLEQOVEBJxebx5UU4oJpazkPsDgomFlI5LW79KtKOv0m+b9KmO6YMsRVit5Fij0Wg0Go1GY+8yTljhB4IPHO+ipsNEmw4RbWQdtLGDaH9nF515cSO9/vrrycJqzZo19NBDD9GVV15J119/PT344IP0rXMuo90dx2nFbqK1vGdE5hBY+NGs7yYIq1ghgM104S1t+Sc0+Q32ffm33eXe6gZBkj+X/IrS5sVbyrTuKVreH3wq0qNeuads3edefIG5siKftCDfi97kY8RpwZmQTphvX4/+DLY7b+/xJIzP38zn49KxgHH9w+1yfq+dcXkX0qLubxb6udCOovyyjVFR+/owSxJWW/hiNhqNRqPRaDT2KuOE1TW3Dab9x7qcmNoAtucIYXUGC6vzzjuPHn744WhhhYM777yTrr76aiesLrnkEjr77LPpX0+7gLa1HqK5m9pp0dZjtGIXCyzWUCgMaq40YZXbTMtTCSd2IDrym/HC04r8RjwnAiQvT5jomMS06i19Lt4XSjH1KuQRRyUStKhhIi+db7GQik5XYL59Ikhy7BZEPdrNx3jroZTToy0unZRVwnhoseQJp4VljVH/YSnCatWWA0aj0Wg0Go3GXmassBo0mNpYREFYuadVTDxcck+sLmmkc845hy699FL6wQ9+EBZW8+fPp+uuu66HsPrKt86izbsO0ORl22nG2r00t6mDFm07RnsOddF3bilRWPkb6agNdsiO44KwEPImXp7ExObZLWCCT4iKYtW5b09DfFFFoNwCo/IrSqcYVYeoOhcdK6EjtmCcl0cae+gYr7qtjmnHqP8wi7D6+te/HiusDAaDwWAwGAzFOHLkiNMW27dvp7179zrRoom9lrxq7t+/nw4cOOCETmjfBWJfhv1ZpLA61kXNh3OfrcJnrPCOPXzvBL5/4o477nDC6jvf+Q7dd999PYXVunXr6IYbbughrP7f10+npu376IO5G2jCos00efkOFlj7aMf+Y9R4Q4mfsfI30lEb7JAdxz2eNKlY/9y355n7lj8vn4x5xNN7OubeBig+74lOEVU6zag6RNXZnefL0YJG/DouKo809tAxXiswRn2dJqwM1UBDQ46lotz0BoPBYDD0FfSasMJbAY930ZbjRNu6iLazDd8QiO+YwNetv//++zR8+HAnrPDxqTfeeKPnZ6zGjx9P1157bZGw+tLXT6ONW/fQu9NX0dhZa2n83I00YeFmatlzkC6++pZYYeXeUla0Yc59Xkk+VxN861nixrs4rYvBJj5NWhcrgiYkblLWK8BCrNjUkyf4/CdkYotLp+Mj6+DbvXOXP/d5oXzxF8WVMR7B4zLGqB+xksIqtBn2bXKuqRHyg3E+sFKoZt69jVq1p1LllJqPpItLH+cD0qSNi4lDmvRxPiBN2riYELLGlwJdr7jy4uw+S0E5aQ39t/+k3pr9BaH6+jY516wUQvn5NjnXDCHKXs/oLWF1LQsrfCvgTj6Wb0XHjwXjW9HxG78QVjNmzKBnn33WCatBgwZRc3NzsbDCyYIFC9xnrQpPrL5xOgurvfTOlOX0ztQVNIYJkbVpexude/n1scIKlI29sHiznbf32JirGHcuXyAhT0HkHMyLo5RpdX0i3w4oeUfVK4LyW1c56roGnk65cnIx4XSheB2X49/g69uD7dbpVPniD8bl8xV7KMZPG3Vcxhg5Xz9gNYQVKNDnvg/wbXLuU/uqhVD+1S6zVJRSr7RpSslbUE7aELLm58eH0ost5APi/L4tFBOHNOnFFvIBaXyCqLgQssSWglD+cbYssVlRaro0SJN3XEya9HEoN30a1KKMSiNU5/7UDqmrrq8+931AyFYqkvJP8gvE5tvrHb0lrPA9EvgdK/yOL3Z2eG8Rfse3k20XK2G1cOFCGjx4MN1888301ltv9RRWeIyFtwU+//zz7hsvvvKts6hpeyu9O20lvf3JMhr18WLmIlrXspvOvEh9KD9CWBmN9cq+JqwEWWJDyBIrKCVNf0La9pXTD+WkDSFrfn58rc+TkJQ+6VyQ1h4VF0KW2FIQyt+36fM4nyBkS4NS06VBuXn3dvo0qEUZlUZ/rLOG1F+3QZ/7vkojlL+2JfkBfe776h29JayuZ7EEYYVdHQTVIeYR5nG2XaqE1dKlS+nll192wur+++8PCyv5HavRo0fT1049j1p2HaCxs9bR21NW0JsTF9JrH86hNc076NRzLzNhZRywrJawkgUz6lgQsgFZYkPIEitIk0ZiNAUhHyjwzwFtCx1rm0aSXVMQ8oEaSf4kJKXR+SbFAmliohAqo9xzDfFF+ZMQSp90Loiya0hMUpxAx2sK/HMgZItCUmzIr20hf6kI5SU2nxrl+gVRPp3Oj/HPgagYTY0kf1qE0uo8NTWS/NVEmvJ0vfx4fa79vk0jZCsVkpfOM+q4Ggjlr20hv0bIn5SmntBbwgo/EHyYRRRE1WHmUWYn8wTbLvOE1aRJk5yw+t73vhcvrPADwSefeTFt23eIPlrQTO/NWE1vsLB6ZfwsWrVpG33rrItjhdXdP/qJ0Vh3lPldDWEF6NfQsSBkA+JifVYKSfmF/NpWKb+2RSEUk2RL8gtCtrSISxvyxcUDSf4oSDo/rW/Lei4Qu+/Tdk0fUT7fFooBouwC8cfF+AjFa1uSPw0kXlMQ8gkFcb4sCKVNsiX5BSGbj7iYKF/IntYGZIlNQtq8tC3JX22UUpZOI8faphGyR8WWAp2Xfg0dVwOh/H2bnGsKQj7hQECSsIJt9+7d7lX2XmC5wgq/1QthdZCPRVQdZ3ax7XJPWM2dO9cJq9tvvz1ZWH373Mtpx/6j7uvWx85eT6MmLaYRLKxWbtxK3zzjgkRhZTDUE2olrDS1TSNkA7LEVgpJ+Yf82lYpvx8TQiguyZbkF4RsaRGXtpR8y0kTSufbs54DYvPtgPZpakTZAd+eNk5DfFH+KITSaFuSvxTo9KG8QjaNJH8UQunS2OTcj9NI8gNxMVG+kD2tDRB7iFkRSpdkC/lriTTlS4xP3xdCyBcXnxU6LzkO2aqFUP5JZWp/KDZkq1fECas9e/Y4UYXPOPniqlJPrCCs8BbAigmrU89vpF3tx2jqqt30wbxNNHrKUnpl/GxauWErnZxSWGFjaTT2Z8qFVgthBci52Hw/ELIBWWIrhaT8Q35tS/ID+jzOl4RQbJItyS8I2dIiLm0p+WZNkxTv+8s9z4qk9L4/Kj6rPQ1CaX2bPvd9SQjFa1u5/ixIm1fIBog9zheHuJgoX8ie1gZE2UtBKK8kW8hfSySVH/JrW8jvI2t8Fvj5ybnYfH+lEcpf28r11zuihJWIqptuusl96d5jjz1WJK4qIazw1ery+aq4twJOnDgx/VsBT7sAwuo4TV+zlz5c0ExvT1lOr34w1z2xyiKsDIb+jIEkrLLECkJptK1cv0BsaWKjkDa9tiX5BdoW8schLj7ki4sHkvw+0sRLTFRsnD9ky4I06SUmLjbKF5cmCaG0cTbfnoS4vPxjQRZ/FqTNS9uS/AJtC/mBKDugfVHHgiRb1LEgZEuDtHlpW5JfI8ouSPKHEEqjbaX4Q5C4uNi0eWn4aeRcbL4fCNmAKHscQmm0rVy/RpS9PyMkrERU3XLLLe4LI/B7Uvgdqddee60grir15RWtfAxxJU+u8OUVl3jCCl+5nurLKyCsTjm/kXYeOEbTVu2hD+c3u69cHzlhnvuM1TfPusiElWFAoNbCCvBtcq4ZQsin0/j0EWVPgs4zlEecP+QDfWS1h5CUh0/t0wjZALGHfEmIS6fzjYsDkvwh6Hw1fUTZBUnpfKZFKC3oI8ouSErnMw1C6UAfUfY00Pn6+fjnQFSMZikIpU1jk3PNENL6oxCVXtvF58cAfoxA20P+tAilTWOTc80Q4nxAkj8Kkk5TI+QHtS8JaeLS5qURSuPb5FwzhDhfHHS+oTzi/P45ELIBUfb+jJCwgngaOnSo22O99957NGHCBPrkk09o+vTpNHnyZOcvV1hdd/tg6mARJb9fhd2dfN36RUpYzZs3zwk8CKvIr1vXwupb51xG29uO0CfLd9IH85ronekr6Y2PF9Hq5h10yjmXmrAyDAhUW1gNdKS5GdT6hlHr8gTllttb9TbEw8bF0FfQF+dhluujt+tv13FtEffEKoqVeGJ1zW2D6cCJLtrOx/IDwfhNK3zu6gIlrB599NH4Hwj2hZV8K+DExVto/NyNNGbGanpryjL3O1anX3BFvxBWQ4YMKZsDEWg3fuC3lON6gwmr6gLTJm7qJPkrASlD02CoBGw+GfoK+uI8zHJ99Hb97TquPeK+vALEXkteNcsVVlcPGkz7j3XR5k7eAx4n2tpFTmTh7YHn5IXVU089Rd/5znecsHrooYechooVVo888gj962nnU8vudvpwfpMTVu/PXkfvzVpLG7e30tmXXtPnhRU2+3wp5E4yvuKxYj2LhSigzbl+457gtkv70x5L2nqCCSuDwWAwGAyG2qLXhNWtg6m1s4s2HCLayNx0hKjpKNGB41101iWN7osqLr300oKwwlsBX3nllWhhhUdbZ599Nv3Lt8+h5p37WVRtovHzNtEHC5rpo4UttHl3B11w5Y19WlhVQlQNGdItGgYKtKgSpD1Gv+G13sSVCav+A0xJNS0zo9z0BoMhGv39+rL1wWCoLXpTWO072kVr24nW8TZtHb+uZ7ax7fSLGumcc87pIaxuu+029yUaqE+RsHr++efpkksuccLqn795FjXtaKUPWFhNWLiFJi3bSdNW76WtrUfo0mtv67PCqlKiyoRVDmmPTViVJqzQjaorHXybnGtqhPxgnA+sFNLmHWf3mRWlpvORNR+J92moHSrV/+Wm78vQbSunfaWmj0snPp+COJ9GyJfWBkTZNdLEGAyGyqC3hBU+Y4UnVhBWa1nigGuYrUe63Demn3feee5zVb6wwm9qjR49ultYjR07lq688sqCsPryyWc6YfXhws00eflOmrmujeZtPky7OrroihsH90lhVUlRNZCFVSkwYVWesNJTTZ/7PsC3yblP7asWQvnH2bLEpkXW+CRkyS8UmyV9LVFOvfpTm0qpq04TSh+y9Rf4dS+1LZIua9qkNDpfTe3TiLMl2f1zQZQ9hLRxBoOhPPSWsLr29txnrPBWwHUduSdWeHIFYXX6hY30+uuvu9+vki+v0MLqBz/4QU5YLVmyhK677roiYfXPLKyad7bRx0t3OFG1YEsnLdtDtJczvmZQ3xNW2NBjc18qfVFlwiob0IcmrHpHWAmyxIaQJVYQSuPb9HmcTxCyxSFrfBKy5BeKzZK+v6CvtilUr1LqmpSmlDz7Cvy6l9IWSVNO2iSE4tLagLjYEH1E2X2kjTMYDOWht4QVfscK3wqIL69oOkK06TDRRmZbZxedcXEjjRo1ygmrOXPm0NNPP91TWKGy9913H1199dVFwuor3zqbWnZ30PS1rbSg5Sit2Eu0/iA5FYdC+6KwykFWvGyvA0lYoa3StqzHUTBhVb6wki6OOhaEbECW2BCyxAqS0oT82hbyZ0VcHtonx9oWQpJfIxSrbaFjbQN8e5IPFOhz7RebRpJdU6Mcvz7Xft+mEbJFIU2sxGhqlOP3z4GoGE2BPtd+sQG+XfvSwE+TNQ8dnzUtkDZNKC5tWiApvX7144Aou4+0cQaDoTz0lrC6kTUOvgFwGx+D+FbALSeI2o930dmXFQurZcuWuf1ekbDCV6vjaZUvrL526nm0bd9hmtd8mJbvzokqfO0gfjQLhfZNYSWrXfZXpK9nYZVrX44A2ibtS3ssaUMwYVX+Z6z0a+hYELIBcbE+K4m4/EM+oSDOlwZxaXSeUTE+Son1KYiyC0J2bUvr17YohGLKsUVBx8qxtmmE7FGxUZB4TYF/DqS1aUT5tV2/hmIFfhpNHyF7VGwcJI1mGvixWdIK0qaJihO7Zgghn7bpVz8OiLL7SBtnMBjKQ28Jq5tY4+A3q/D7VSx/3G9Z7WRCbJ3X2FNY4Yv/8K2ABWF177339hBW2BB+48yLaOeBY7SUc8QHuCCqkPEhzhiF9ocnViIkQtRxQM7eLarqUVgJdLvSHicJJxNWlRFWmtqmEbIBWWKrCV1mqPyQTSPJ7yMuXnyVys9HUqz4o2JCPm1L6/djQgjF6fQ+NUI2gU6j6ftCCPni4tNApw/lldamEeXXdv2qY+Xcp+8LQft9loos6XV5PtMibXy5cSG7tulXPw6IsvtIG2cwGMpDbwmrW1jjHGGt08rHmvIDwSFhhS8AxLcCOmF1ww03FAkrEN9q8e1zL6c9h7po7QGi5k6iHZzpPiYKQ6H94YlV1Ca/294dD5sJq+hjEU6aGiasyhdWgJyLzfcDIRuQJbZSSCqzXH8axMVnzQvIkiYpthS/tpXij0IoNm36qLiQXdtCfh9Z4zVC8dqW5BeEbBpRfm3Xr6FjQZJfI8lfCsrJs5S0adOE4tLagLSxIRsQZfeRNs5gMJSH3hJWt7LGOcpap52P8aM4IJQO9M9FMcIK5blvBcQPXWlhNWbMGMLbA/HNF/igFkQVfnF4r8q47worQFa86E1+zt4dB8A2UIRVKbAnVvUvrLLECkJptK1cfxrExWfNC8iSJim2FL+2leKPQii2FFvUsSDJH4LEpYnVCKXRtiS/IGTT0H4/Vs41Bf45oG0hv0bIn5TGhx8flT7KrpEmxkfaNKG4tDYgbWzIBkTZfaSNMxgM5aG3hVUHH2t2su3iBGGF+jRs2rTJKaz777/fiarFixc7YXXWpY3UfqLLiSq8zxCPwaDaUBgK7S9PrKKYQ3d8zt4tqkxYFSP0xEr3jwmryggrwLfJuWYIIZ9O49NHlD0JOk8/D/8ciIrRzIqodFnzq3R8mvwkRlMQ8oEC/zwOUbFi1wwhyq/tmtqXhLRxIUhaTY0kPxBl14hKr21xfp/aFwedJk18CGnSx/kEaWJCKCdvsWuGEPKltQFRdo00MQaDoTLoLWE1iDUORNRBPtaE7ZI0wgp/cAIjnCKszuXE+KAWnlRhywhRhcdifVtYAbLqZXsdSMJKCyOfUbAnVtURVobKAdM3Zgonotz01UBfrFOlMRDaaOj/42zz1GCoLepOWOEDWnjbH2STiCp5FIZC+8MTKy0YfObQ/TqQhFUpMGFlwspQe2AJqqNlqAfqvX0Gg8FgKA11J6zwAS0IKy2qJOO+K6wAuUtnex1IwgrtSqIPE1YmrAwGg8FgMBhqgboUVvKtGP1HWIVFU5rXgSSsSoEIJ58CE1YmrAwGg8FgMBgqgb7y5RUVE1b45gtfWIF9+TNW5XNgCCstjOKoYU+sTFiFgGniTZW6R19qc6gu2pbk10gbG7LFQeI1BSGfMCtCafw8hQL/HAjZgChbUno51wwhzu4zLUJphYKsPjAtQvHaJschRvmjEOXXaaNigJA9Lj4tJA9NjSS/IOTTaXxqv4Zvk3NNQcgnFMT5aoG48kM+oY+QrRLwyxVqpLFrVhLVzr8c9Jawkt+xCj1YqsgTK2z9NPvy161jc18qB5KwKgXoIxNWxaLJhFW2hThLbF9GKe2oVttD+WqbHOsY/1wQsqe1RSEpfchfCiQfP68km+/3zwVi930huz73fUCcLUtsGiTFhvzaluRPgsRKfNR5FHx/XHzIl9WWJjYLkvJM8mtkiRWIX8foc98HJPk1Qv6kNJVEUvkhfwgSlyY2K3TemgJ9HucThGylIkv+UXYgzlcOektY3ZwXVlA3on0gsMoWVhdyYskYW0YhbCi0LwqrHGR0s72asIqHCSsTViFUa0HtyyilzdXqp1C+2ibHOsY/F4TsaW1RSEof8mdFXH7+OaBtUccacTFyHrL5xwLfps/jfIKQLQpJsSG/tiX5kyCxIWp/FEL+qDRZYjV0jB/vn2dFKL22hfxRCMUmpRe/jtHnvs9HKf6kNJVEUvkhv4+s8aUiKm9t92P8cyBkKxWVyr+UNGnQW8LqRtY4h1jr7ONj/NQUdnfYreFhU6rfscKfkLA6nxMjY/yGFbg7T3wFOwrtm8JKRjb7qwmreJiwMmEVQpYFNSpW7Joacf6QD9Sohh9Mi6S0Sf44hOK1TY5DNh8he1pbFJLSh/xZEEqvbWn92qYRsmubHIds/nEIIb+2hfxZkJQ+5Ne2JH8SdKx+DR2HEPJHpckSK0hKE/JnQVL6LPmHYpPSi1/HRR2HUK6/2ii3fiF/UppSEZev+Hx/WlupyJJXVKzYNTWS/HHoLWF1PWucDtY6u/gYugc/OwWBhQdLeDdfycLqnMsbXcZbOTNwS1eOB9iGQvvDE6ucWApTxwE5e7eoqmdhhXaloYYWTjgOUfz1BBNW8cA08aZKJEKxSba+7k+LqDQhe1RsCEnp/WN5lWONkD2tLQpJ6eXYZ1qE0grj/IIou8D3a2q/HMurHANyrikI+YSCOF8SQmlBgX8OaJsc+0wLHa9f/WOfAv8cCNmALLEC8Yeo/eVA5+nn55/HIRQrNp8Cfa5fQ8chiN+nRpI/CaH0YFrEpQ35QEHIJ0yLUFrQR5I9yadZSaTNvxRfyB4VG0JvCatrbhtM+493Oc2zjc93MCGy8LDpgjTC6nOf+xyBd999d5GwOvOSRmrr7KINB4nWCzuI9h3toqtv7R9PrKI2+d327njYBoqwKgVaOOE1iuWW09dgwioePOSOaRCKTUov/hC1X8O3ybkfB2ifT+3XCNmSEJUmZI+KDSEpfehY2zTS2KNiohCK17aQPwtC6bUtrV/bNEJ2bQsda1sI2h+KDdk0kvwapeSlbUn+JOhY/Ro6DiHkj0qTJVaQlCbkLxel5h+KTUqv/XIcskUhyR9C1jQS77NU6PRJeYX8SWl8SLxPH0l27ZNj3w6EbJVEVP5x5SalCTENektYXXXLYKd1Nhwi2nSUqPkY7wVPkHvYdG6WJ1Z///d/7zaCIqxOPb+R9h7uouW7iZaBLNeWMncf7KLG7/afJ1Yh5OzdcQBsA0VY+WIoRB9aWCWxnmDCKh6YKoHpEkQoNil9Kf6oNGLXvqhYQciflCaEqDQhe1RsCEnpfb+ca5sgjT0qJgqheG0L+bMglF7bsvj1sSDJ5vvlPMoPVNKfhKTYkF/bkvxJSEof8muE/FFpssQKktKE/FkQSq9tIX8UQrFJ6X2/nIvN9/soxZ+UppJIKj/k1wj5k9KUiqSy5Dhk0wjZSkWW/KPsQClp0qC3hNUVNw6mPYe6aFUr0RqWOGvbidYx8bDprEsyCKvp06fTZz/7WXr33XedsPrW2ZfSzgPHaG7zEZrTdJhmNx2i2ZsO0ba2TrrkmkH95olVFHPojs/ZB4awKgX1+la/JJiwikeWhTMUm2Tr6/600GmijgUhWxSS0vt+Odc2QZQdiEsXh1AabQv5syCUXtuy+pPOAW3z/XIe5Qcq6U9CUmzIr21J/iQkpQ/5NXx/XHzIl2QrxZ8FofTaluTXyBIr8P1yLjbfDyT5NUL+pDSVRFL5Ib9GyJ+UplQklSXHOsY/B0I2IMoeh1CaqHyi7ID2RR0LQrYo9Jawuvz6O2hnexct3k60ZGfuoRIeMOFh02kXZPyM1Re/+EV6/vnnnbD6+hkX0rbWIzR1zT6asnovTVm1lz5ZtYda9hyiC668sV88scry6gurehJVgAmr0mDCKh6ySIboI8muqRHn98+BqBhNjVL8YFZEpdX2kD8Jcen9cyBkA6LsgjhfHCRfTYF/nhWh9NrW235AzjUF/jkQFaOZFmnidb5+vH8OhGxRSEovxyFG+aMQ5ddp/Rj/HNA2OQ4xLZLSJvkFIZ9O41P7NXybnGsKQj6hIM5XC8SV75/7CPmT0pSKqHzFLr6oY0HIBkTZkyDpNEOI8wFR6bU95I9DbwmrS6+9jbbvP0bzmo/SvM3MFrCTxdZx+tY5l9Hv//7v06c+9Sn6wz/8Q3rooYcKwgofqxo7dmy0sPraaefTlj0HaeLSHTRxyTaasGQrfbR4KzXtOkDnXX59v3hiBSEQxRy6X7Ww6vbXD9A+iKNSYcLKhJXBYDAYDIa+iXrbuvaWsMK78ra1HqVZGzto5oZ2xxnr22l721H6xpkX0Y033uieWOHJ1Wc+8xmnmURYnXnmmWFhNXToUPraqedRy+4OFlNb6MNFzIUt9MHCzbRpx34697Lr6vaJVT2KKoGIq1JpwqpYNJmwMhgMBoPB0Nuox61rbwmri6+5lbaysJqx/gBzP01f20bT1rTStn2H6eunX1D0VkDs/x577LHwE6vRo0e7z1jhyyucsCo8sdqef2LFdE+s2um8xv7xxCrLK9LXs6gSoI3l0ISVCSuDwWAwGAyGaqL3nliJsMKTqgM0fd1+mraWhVUrhNWFscJq/vz5OWEF5x/90R85p3wr4DfOuKjwGaupq/e5z1iB7jNWV/XNz1iVy4GCUNuzcCDBhJXBYDAYDAZDbdFrn7G6LvcZqzmbDtPsjYcKbwnEWwFPTngroBNWOADxxEr/jhU+oLXzwHH3rYBzm3LfDAhubztGl17b974V0GCoBqotrBoa8BTRJS3At8m5pkbID8b5wEohlDeofQaDoe+h2tdnKP84W8inkeQPQeermeQDQj5QI8lfC9Si7FqUYTBo9JawarxhMO3s6KKF2/LceoIWbDlOuwJfXoG9nv7yisITKxQOoxZW+EpBfLXgij1Ey/PE1w3id6zwHe8mrAwDAbUSVvpmpc99H+Db5Nyn9lUTukxN7UuDLLH9Eb3dvnrv3zikaXs9909U26rd5lD+vi3pXCD2kC8LdB6h/CrpryXKKTcprfYnxRoMlUJvCaurbh5Me1j/rGwl91tWK/cx95b4detaWJ11aSPtP9ZFGw+T+/VhYWtnF10zyISVYWCgPwgrQZbYELLEhhBKX26eBkMlMNDnYVT7a9EvuoxQeSGbD4lJExsHP30oP20r119LlFNuUtpy8jYYSkVvCatrbhtMbXn9o7k/6w8E+8LqvMZG6ujqom1cCLg1z3a2XT/YhJVhYKCWwkpuXFHHgpANyBIbQpbYEELpxeYzhCifThcVE4ek9NX2C6J8Op0fE/KBpSAqrc43KiYOcen9cyAqRlMjzu+fA1ExmiGEfDqNpkaSPwlx6UM+MAvi0od8oEaSPw3i0iblqf1JsXEIpU2ylesvF5KXzxCifDpdKKaafn2u/VE2ocEA9JawgsaB1hH9IxoImuhc1kYlC6sLOPFhzmQPZ6Z5iG03mrAyDBDUSlgB+jV0LAjZgLhYn9VAKO+0NiBtbMgWhaT01fZrpI3VtiR/FqTNK2SLQpr0+jzOJ9C2cv2CkM1H2nTaluRPQlL6JH9aRKUJ2bUtyZ8WkiaUTvv8mKTzLAilFZtPQcgHCvxzIGQrFVnyj7L7CMUlpY3yh+zaJsfapqHt+jUUaxh46C1hBY0DrRPSP9BGJQurizjxEc4EskkTtltMWBkGCGotrDS1TSNkA7LEVgNpyw/ZgCR7yJcGcem1z6cgZNNI8gtCMUm2JH8WRKUTezl5hqiRxu5T+6MQ8qe1+UibTtuS/ElISp/kT4uoNCG7tslxiFkQl86363M5DjELotIk5RXya1uSv1xkyT/J7lMjZNOI8ofs2ibHfozAj5XXqHjDwEJvCaubWeNE6R9oo5KF1cWcuJMz6eDMNI+y7VYTVoYBgloKK0DOxeb7gZANyBJbDaQtP2QDouwC8cfFxCGUPkt+ofQaaf0aSbYkfxYkpRN/lrzTxkflnZS+FH9am4+06bQtyZ+EpPRJ/rSIShOya1vInxVJ+fm2UIwgzheHqHRJ+YX82pbkLxdZ8k8bm9amEeUP2bUt5NfwY+U1Lo1h4KC3hBUeHkHr+PoHmgjaqGRhdUleWB3kzDRhM2FlGCgYSMIqS2wIofRpbUDa2JAtCknpq+3XSBurbUn+LEibV8gWhTTp9XmcT6Bt5foF2hbyAyF7ki3Jn4Sk9En+tNBpoo4FWfxJSJM+6VwjzheHqHRJ+YX82pbkLxdZ8k8bm2RL8mskxYb8Gn6svIbSRNkN9YveElbQOFH6B9qoKsJqUM2E1ThqbDiJhq7LnwrWDaWTCvaImHJQlH+tgfY08ALSzZNQkXLbPK5R5dnIOThj5fuuzlBrYQX4NjnXDCHk02l8+oiyp0UofVobkGTXzIKk9NX2C6J8Op0f458DIVsaRKUTu2YWxKX3z4GoGE2NrH6x+fBjfIR8aWxy7jMt4tL650DIlgaSTqcN5RUVo5kWofg4W8inkeSPQlS6pPxCft8m55qVQihvMIQon06n6SONLwSdzo/zz31ov34NpYmyG+oXvSWsoHEGnrAqQr2Jgyq02YkyEVMMPh/qTirVd5XIp2+OY7WFlcFgqC/YBtBQKdhcMgxkmLAyYVUhVKHNeFp10lDqGV6pvqtEPn1zHE1YGQyGOMjmV9NQG4T6XrO/o17aYTCUgroVVoc4M82+Iay0PX88Dk9l1FvnHHK+xsaT2J57YjOusfstdg2N8gzHj/PKdU98JJ08+VlHQ0/qzquQVdnwyi5A29PUTwPxul8E+XyCfccoyle3MZcu11/dfsdCUKh/vHoXznP1K86jWv2bDSasDAaDwWAwGGqL3hZWIf0zgIQVb77liYwTA8W+noIC6JmHL8i6faoO4xpzcXgKVJXdfq4uBZHB7ClKUtSvB7qFSne182VJ37nPYYkwy/kKsbH96tUhX1bPevhx+tzzVa1/s8GElcFgMBgMBkNtYcKqV4VVcQyeSvUUI3k48SCiJSoPde49tXFE5nl7WMSUg0CdHbQ9Rf2ikI8P94+fb/HTr+h+9c4DaXOISxfKoxr9mw0mrAwGg8FgMBhqCxNWfUZY5Z6WBAVA0YYfcVF5qPNIkZDDuqG5t8PFaZls8Osi0Pb09QvB1dlVOFu7ayqs8qh8/2aDCSuDwWAwGAyG2sKEVa8KK/Vko2hT76XH06rItwzqcmLyDwCb/8o9WfHrIvDrlL5+NG6oyk+/Tc8vq2e+BUET1689zqPeCqhFL8M9PdTl6Ty6Udn+zQYTVgaDwWAwGAy1hQmrqgmr4re59RQEuWP9RQrdTzfCG34Xd1IjNaZ5YgU4UdFdB/e0p+gthdmeGMXDr4tA21PUrwiID/n9suLyjYljFL4UpChvSeuLKYnlMVD5FOVRtf7NBhNWBoPBYDAYDLWFCauqCCuDoXdhwspgMBgMBoOhtjBhZcLKUIcwYWUwGAwGg8FQW5iwMmFlqEOYsDIYDAaDwWCoLUxYmbAy1CFMWBkMBoPBYDDUFiasTFgZ6hAmrAwGg8FgMBhqCxNWJqwMdQgTVgaDwWAwGAy1RW8Jq1vzwuogH4Na/5iwMhjKhAkrg8FgMBgMhtqit4TVLaxxjrLWaefjjjwhsExYGQwVgAkrg8FgMBgMhtqit4TVzaxxjrDWgboBsVODyIL+udiElcFQHkxYGQwGg8FgMNQWvSWsbmSNc5C1zh4+3stsZWKHB7F1kQkrg6E8mLAyGAwGg8FgqC16S1hdzxqng7XOdj7ewdzJ3M08xLYLTFgZDOXBhJXBYDAYDAZDbdFbwuqa2wbT/mNd1NxJtPk40ZYTRFvZDrF1ngkrg6E8mLAyGAwGg8FgqC16S1hddfNg2nuki9bwFm1tB9G6g0QbDpMTW2ddasLKYCgLJqwMBoPBYDAYaoveElaNNw6m3Qe7aOkuomW7iZbvIVqxl2jf4S467UITVgZDWTBhZTAYDAaDwVBb9Jawuuz6O2jHgeM0f8sxxwVbweO0q+MEffvcy+n3f//36VOf+hT94R/+odvribD63Oc+R9/97ndNWBkMcTBhZTAYDAaDwVBb9JawuvTa22j7/mM0Z9Mhmr2xmzv2d9LJZ11CF198sXtide+999Lf/d3fFQmrH//4xyasDIY4mLAyGAwGg8FgqC16S1hdcu0g2tbWSTPXtzvOWHfAcXvrEfrGGRfR448/Xngr4Gc+8xmnmURYzZ8/34SVwRAHE1YGg8FgMBgMtUXvPbHKCatZGzqUsNpP28oVVvh1YYiog1yIJmy3mrAyDBCYsDIYDAaDwWCoLXpNWF2Xfytg0+H82wEPOu5gsXXyWRfHvhUwUVgdZRHVzoVownaLCSvDAIEJK4PBYDAYDIbaoreE1eU3DKad7SfcF1YswJdXOHbSrvbj9K1zLiv68oqxY8emF1YXsbA6wiIKskkTNhNWhoECE1YGg8FgMBgMtUVvCasr8l+3vmwXua9cF+451EWnnl/G161fyMLqMIuofVyIJmw3mbAyDBCYsDIYDAaDwWCoLXpLWF11S+4Hglfztk5zH9tOv6gMYXU+C6tDLKJ2cyGaB9l2owkrwwCBCSuDwWAwGAyG2qK3hNXVtw6m1s4uWn+QitjGtjMvKUNYncfCCiJqBxei2cG2G0xYGQYITFgZDAaDwWAw1Ba9JayuuW0wtR3roo1HqIj72XbWpSmE1ciRI+mVV16h4cOH07Bhw9zXCOKbLs5lYQURtbWLitjOtutNWBkGCExYGQwGg8FgMNQWvS2sNh2lIu4/3kVnX9ZIt99+O91zzz308MMP0xNPPOG0EzQUtBQ0VcPatWtp5cqVtGTJEpo7dy5NmjTJqbFzLm+kAye6aPNxKuJ+tl13hwkrw8CACSuDwWAwGAyG2qK3hNW1LKzwdKqJxZTmgbyweu6551z8+PHjacqUKU47QUNBS0FTRQorJEYmzZ1URCi2a283YWUYGDBhZTAYDAaDwVBbmLAyYWWoQ5iwMhgMBoPBYKgtek1YscaB1vH1T8WEVZOXsQkrw0CCCSuDwWAwGAyG2qLuhBW++cIJq6Mq42P9S1gNGTIkkQZDHExYGQwGg8FgMNQWvS6sWPNoVlRYyVOrzXlhdV0/EFZpRZOJK0McTFgZDAaDwWAw1Ba9JaygcaB1oHk0oYnOKUtYXdJY+PBWc/6pVX8RVt1iqYE++eSTxNeBLK5++Zd/mW4bdCuNeuMpuveHt9D5551KX/7SP9Jf/Pmf0uc+91n6nd/5Hfq1X/u1fPTAgwkrg8FgMBgMhtqi7oTVmRfnhNWmI0pY9YOvW88qquR1oIqrf/nnL9P0yePo+pteoIcfHU1vjv6IPpjwAS1a+AFtbZpIu7Z+RIvnvEYvvfgY/fjeO+iG6xrpwvPPpi996f/SX/7lX9Cf/dnn6VN/8Af027/92/Trv/7r9Ku/+qv08z//8/SLv/iL7rW/w4SVwWAwGAwGQ23Ra8KKNQ5+bqqFNY9mO9vwU1SJwuqtt95yAa+++qr7gaunnnrKCaszLmqkts4u2ng49zWDhSdWfVRYQRglEQIqiqF4zYaGhnxJ9YVvnvyv9PFHY7h99zKH0y/8ynv0b3/7A/q9P51Mf/kv8+nLZ66kq7+3hEa8tYJGvbuE3h67mCZ+PJsn0ixaungeLV8yl2ZOG0/vjX6JHvzx9+mOQTfQDddfR//0T/83X0L/hgkrg8FgMBgMhtqi7oTV6Rc2UuvRLtpwkApPrZywwlsB+5iwgvBJg3LE0ZAhDXUnrvA2wO/dcTM9+9yr9PO/9Cg1/MpoaviNj6jh12Yyl/N5C7e5lX7+80SL1xEtWnOCxs4kGjO9k96Z2kFvTzlCIyZ00PD3t9Goj5rowxktNH1+Cx08dJDmzJxOn/3sZ/Ml9V+YsDIYDAaDwWCoLepOWJ12AQurI120voPcU6u+Kqy6RVW6t/xBHKWJ81/rQVj9wi/8Av3Gb/wGfeELf0vXXXctj/sbtHTRNLr2xue5bQ9Tw2+NpIY/GEsNn55CDf91ETX88Tpq+J1t1PBHR2jV5lweO/cS7WYNsZ2HfWsrz4k9ROu3E63YSjRnPdHzE47Rlp3tNPGjMfQ/Ps+KrJ/DhJXBYDAYDAZDbVGXwmofC6t17d3CqiX/4a2+Iqyyiip5LUVc9Wdhhc87/d3ffYFuv20QT4RxtHr1ajp+nGcJo2XjYjr13Ge5bQ9Rw79/lRr+y7vU8PuTWVzNY0G1igVWCzX8Zhs99w7RoSNEazYRrdvC3EbUtJPFFQur7Sy29rBG2MdzZeZqoi1bd9Jbo151X3zR31FtYYUp5U8r3ybnmhohPxjnAyuBUF7l5l9u+nLR2+WHIHXqa/VKi/5U//7czwaDwVAvqDthder5OWG1ljfLGw7lPmfVl4QVRBVETylE2iT64qs/C6szTj+TBt18B4/raDp66KCzNTc306pVq2jV0il06lnD6Hf/+3Bq+MUXWFi9TQ2/N4EaPjWLRdUyavjjTdTwq7vp/EHHqJWHesFaokXriJZsYLLIWtpMtGJzTmyt4Dn53lwW4hvX0ovPDaP/+B//oyurP6NWwkpPLX3u+wDfJuc+ta9aCOVfbpmlpC+3TI1K5lVJlFOvNGnLyT8Nqp1/pVCNevaXthsMBkNfQf0KqwN9V1hVEyKkRFz1Z2F12QVX0J/98VfoigvvoFkzP6HVq1fRtGnTaMnixbRs8ST6h396gk67eDwLqGep4d+9QQ2/y8d/MJ2F1eLc2wF/czv996910BoWUbOWE01fRDSTX2etJJq9mmjOGqKFLLam8fHrU4/SulXz6NGfPOzedtjf0R+ElSBLbAhZYgWhNKXko1FK+nLL1KhkXpVEOfXqC23qC3VIg2rUsxJ5VqNeBoPB0FdhwqrXhFXPt+1V4rVbSPnn/Q+XXnMmnTS4ga667RJaPH01rVu/yk2EhQsW0JKFE+kv//pxuvKGSfRfP/8SNfzcMGr4nbdYXE2ihk/NpYY/WkkNv91Ev/inbfThbKIZC4k+mEn00RyiCXw8cT7Rxyy0ZqwgGsO20dM6aP3yGfT97//AfTlGf0cthZVMr6hjQcgGZIkNIUusIJRG2+TYp0bIDwrifEA1/GBaxKUN+UCNJL8g5Etjk3PNEKJ8Ol0oJskviPNFQeepKdDn2i82wLdrHxDyg9qn4dvkXFOjXL8gzmcwGAz1BhNWvSSs4sRROa/19MTqu3dcTvce+M/0yMx/pekjN9HyVUtoxowZNGf2LFo49yP6s798lC664gP66invcBt/Qg2/NYIa/vMbLLDep4Y/mEoNvzeHbcvokRcO0Eczj9Fr73fSGx8cp1ETTtDoj7vorclE46YRPfMu0dipbbR2+Sd02eVX5Evv36iVsAL0a+hYELIBcbE+K4VQftpWrj+ELGmSYpP8pUCnD+UVsmlE+UP2cmw+0qYL2TSi/EnpQgil0TY51jaNkF3bqu0XhGxAlliDwWAYSDBh1UvCim9BiSJJXgcqbv/u92nkG2/TE8MepQnvf0wLFy+gyR9PppkzptBH496hz/yPR+ibZ7xFZ170HjX8ymPU8G+fpYbfHskcRQ3/ZTw1/O4Utk+ny29roXc+7KAnRuynp0cepGFvHKFnR3fSc2+doFfGEP3waaLxk/fS6sUT6Z+/8i/50vs3ai2sNLVNI2QDssRWCklllusH5NynRsgG6Hif2q8RssVB4n1qn4Zvk3OfPkL2cmw+yk3n00eUPQ6hNNomx36MIOTTtmr4Q4iLE1+afAwGg2GgoLeF1RYWU5r2xCogqvQNrFTm8utfGPK9O2nS+/PpgR8+QeM/Gkfz5s2jCR9NoAXzZtJPH3uBfu8zQ+lLX32Vvn76m/T7fzyMGn7xcWr4Ty9Tw39+k8XVu9Twe5Oo4dc+oS+fv56ee3M//eipfXT/0230wLB2eui5Q/Tw84fp0Zc66cb7j9Pk6c20eP54+ru/+2K+9P6NWgorQM81fa4RsgFZYiuFpDKr7ReEbECUXRDyJ6XRSEpfrl8jjT1NTBRCMUnpsqSJsschlEbbQn6NkF/bquEPIU2cxKTJz2AwGOodJqx6SVjxbSi1qEryh8h/XZy8FTBn61/4wfeG0IIFS2jYsOdozJh3uT2T6b333qNlS2bT7bc+Q//h9x6hv/ri8/S3XxxGn/ufz1HDr/yEGv4tC6z/9Er+LYHvUcOvj6fP/9NCuu/xHXTzvdvolh/tpEH376bbH9hHdzzcRrcPbadLb+ugJUtX0KSPR9Nf/a+/zpfevzGQhFWWWEEojbZV2y/QtqhjQRZ/EpLSl+vXiLID4kvy+8caIXuSLcmvEWWPQyiNtoX8GiG/tlXbL9C2qGNByAZE2Q0Gg6EeYcKql4RVlFjyRVNWf9RnrPrjjW3ID+6iFcs30oiXX6G3336Hxr7/vhvvpYun0VnnD6Vf+a1H6E/+4in6r//tcfrUf3+M/s1vPUoNv/pTavgPLLL+06u5twT+2lv0X/7nVLr6jg10yc1gE106qIUuu20bXTl4J10waDedc8Meat64jN4d8zr9yZ/8Sb70/o1aCyvAt8m5Zgghn07j00eUPQk6Tz+PkA/UCPlBQcgH+ojyaXtaP5gWobSg9mn4Njn36SPKDsT5BBKTNQ+dLhQT8oM+ouxx0PlpCvzzEHS6UHzIDwpC9ji/9mlE+bU95BfE+QwGg6HeYMKql4QV32p6iKLiV7kZxftxnIb98cY25M47afXKjfTaqyPprXfeojHvjHEb/01rZ9F/+/xd3KY76Vf/88P0737nQfr1//Ig/dK/v58a/v1PWFg9yXyBhRWLq98YSf/202PplMuX0CmXLaOTL1lF37psLZ1yxQY6/aom+sqF2+iUK7fQtq2L6fWRL9Hv/u7v5Uvv36i2sKp32Gaw+qjnPrb5YzAYDAMTJqx6SVhB7PCtN/YVxM1ZjkOUG3gS+yOGfP8uWrp0Lb0y4lV6+61RNOqNUfTss8/SqmVT6f996Sf0X/7TI/RLv/4Qt+97zJuZtzAHU8MvsMD6zcep4T++yAJrBP3c74ymk/7lE/qHr8+gL/7rXPr7by6kfzxlCf3fM5bTn/2/lXTqFUtp97a59MgjD9Ov/uqv5kvv3zBhVR7683XTH1Dv/Wvzx2AwGAYm6lZYrev3T6yKxVVW8l+Xtj9/3fr3Bv+A5i9YSsNfYmE16i16/fXX6Wc/+xmNem0kjRv7Gs1d9Am99tpHdOPN79Ap33qJ/tffPEX//j88wu29l4knWvcwH6aGn3+GPvWXb9Pn/2E8/cnfT6A/+9+T6c/+71T60y/NpH//J7Ppipvn096dM+mOO36QL7n/w4SVwWAwGAwGQ21hwqqXhFVIRFXiNeozVv0Rg269jWZMn0uvvPwavTV6FI0Y8RI9+uhj9Ngjj9IjD91Jb73/JC1b+CF17FtOJ46tp5bmxdzumfT8CxPplu9PoPPPf5/F1pvU8Osvch+Aw5kvUcO/HUG/9qk36Xf+9F1q+O3xNOT+WbRr20z67ndvzpfc/2HCymAwGAwGg6G2MGHVS8IqThyV89otpPzz/ocbbriRJnz0CY0YPoLHdjSN5jF//fU3aNGiRbRq1Soa9swwarz8Crrnh/fQFZdfSo88cDfNmjqGli8YSwtnj6L5896i2TM/prHjZ9Abo2bRI0/OprOvmkGf/rMJ1PBLb3O/vMx8mu55YCJtaZpGV155db7k/g8TVgaDwWAwGAy1hQmrXhJWceKonNd6emI15M4h9P74CfTIw4/QW6NH09LlS2n69On0NI/1XXfdRT978kka+dprNPiOO+i3fuu3Cu38pV/6Jfrrv/oreuzhH9NTj/6YXn72IRr/9s9ozbIPaeuWedS0cTEtXrqCXhuznO743hIaN3EezZ49gU4/80yXvh5gwspgMBgMBoOhtjBh1UvCKk4clfNaT0+sLr7oYnp62PM05t3x1NzURMOGDaMvf/nLdOWVV9ILL7xAt952G/36b/wG/cIv/EI+BdGv/Mqv0CmnnUY/+clP6OlnnqVbBg2im264iW7+7s30w7uG0PAXnqdx775J82aNp3VrPqE9OxfRti3rafmyZfTnf/7n+Vz6P0xYGQwGg8FgMNQWJqx6SVjFiaNyXuvpiRWePH3pn/6JfvSj++kv//IvXTvAf/Nv/o3jz//8z+cjczjzzDOdQJo3bx6NHTeO3nnnHRr99tv09NPP0A/v+SF95zvfoVNOOZWuuOIKevzxJ9zvYj344CP00AMP0/Rp0+i/fuYzLp/+2l8aJqwMBoPBYDAYagsTVr0krEKiqBKv9fTEKgtGjx5NCxcupMmTJzvOmTOHFi9eTMuXLnWfyZo5cyZNmjSJXnrpJbr33nvpnnvucU/AHnzwwYJg0+zvMGFlMBgMBoPBUFuYsOolYRUnjsp5FSGFV2E9CIU4fPrTn6aPP/7YTRaIJ4goiClMlHXr1rnjWbNmuUkE34cffkjPP/88PfLII06A/eZv/maRqKqH/jJhZTAYDAaDwVBbmLDqJWGVRiSV8ipCqt6EQhIwB5YtW+YE1OzZs2n58uW0adMmam5upqX5p1aYOBBg06ZNo3HjxtGMGTPc2wXrsb9MWBkMBoPBYDDUFiaseklYpRFJpbwOhCdUIfzyL/+yewq1Zs0ax/Xr11NTU5MTV3hLIIQVJuuCBQvcWwZhu/rqq93nuOpNVAEmrAwGg8FgMBhqCxNWvSSs0oikUl4HqrAS/MM//AONHDmSVqxYQRs2bKDNmze7CYOJA7GFp1mDBg2iL3zhC/kUOdSTqAJMWBkMBoPBYDDUFiasekFYiQCqFgeysALwbYF//dd/TWeddZb7JkA8mTr//PPpS1/6En32s5/t8W2C9QgTVgaDwWAwGAy1hQmrGgsrQJ6OVJOGgQ0TVgaDwWAwGAy1hQmrXhBWBkO1YcLKYDAYDAaDobaoa2G10YSVYYDChFXfhD1MNhgMBoOhfmHCyoSVoQ5hwioZEDk+Q4iz+4yDH6PT+T4g5Ad9hGyAn06YFXHpdL5RMUkoJ63BYDAYDH0JJqxMWBnqECas4hHazMfZssSG4PtCsVExPjWi7ID2aWZBXDrfHhUXB0mTNZ3BYDAYDH0RJqxMWBnqECas4hHazPs2fR7nE4RsgjSxUenT2KNigDhfGkSl9+1RcUkoNZ3BYDAYDH0NJqxMWBnqECas4pG0mQ/5tS3kj0IothrpQzYgyp4WadOXWk6p6QwGg8Fg6GswYWXCylCHMGGVDNnQawpCPqEgzieIsgM6XZo4DZ3Gp48oe1okpRd/qWWUk9ZgMBgMhr4EE1ZVE1bjqJF3C/q3pU4aui7vqxLWDaWTGk6iahdTPtbR0JNU35w0lC2GSsKEVXbwVHT0jwUhm0ZUmrSIyj8q3zQ2IMqeFmnTl1pOqekMBoPBYOhrMGFVVWHVmyKnt8uPgBN/DdQ4Ln8OsG2oPu819NE+KwEmrOIR2sxrW7l+IBQjCPmi4tPGhmxAlD0t0uYbFZeEUtMZDAaDwdDXYMLKhFUNkXtSVSSq+hRMWJmw6nksKNevEfJHpUkbG7IBUfa0SJtv2jgfSX6DwWAwGPoLTFj1grAa16jeBudURkBwjGvsfotc/imPpOmOy5XR2HgS2xv5TMrEq18GoygfxNcYrvyEchPaOnRctx++dUPR9tx591ste8b28BXGpZQ+y6WRfu+LMGGVDB7SHhT450BUjKZAH0fBTxuVJuRLawOi7GkRl158aWKikOQ3GAwGg6G/wIRVVYWV2qgzu0WCQG3yIaRUAMRX7jSXT8HlNvoiDHK+sGjQx4B3zuVV/TNfPlD32M9TJbe1IDbRX7rt7lwLHxXbI5+ofonz4VT6LJd/zfsvA0xYGQwGg8FgMNQWJqyqKqz0Jl0hLwpy1Jt6JQyKREHxU55i0RUlBDyfy0fKzFMJuZog0JYilNxWIKbtjMr2Wc/8+xpMWBkMBoPBYDDUFiasai2sisQD3gLYHYO3teEpiLzmjSWKjZBIiBE1NUHCZ6yqJqx0uRnSRfaZn0ffgwkrg8FgMBgMhtrChFWthRWeVgXfopY/P6mRGpndm3nko8RI0WbfL0Ofh3x94O1r+ad1ReKK25T7VsBS2wroc6+tRfl44s7VJ2uf+XF9Dyas+iZ4OhkMBoPBYKhT1LWw2tAn3wqY29i7t5U5EaVj8r4i1cFwwiCfpsfGP/ocT3u6377GKMpH2WsNvx76c1cltrX4PHec+3KJXF5FTdVvxWzkMVD5pOszv+y+BxNWyeDh7MEQ4uw+46BjdBqfgpAPFMT5siAurc47KiYJ5aQ1GAwGg6E/wYRV1YSVoffQ94VPtWHCKh6hzX6cLUtsCL4vLlYgMT61TyNkS4KkCaXz7VFxcZA0WdMZDAaDwdAfUbfCaq0JqwEME1YmrOIR2uz7Nn0e5xOEbIIssT5CsWltaRCVzrdHxSWh1HQGg8FgMPQ39LawamExpVkRYbWXhdVq1k3rDhJtPELUzMJqvwmrAQQTVias4pG02Q/5tS3kj0Iotpbpk5A2r1LLLDWdwWAwGAz9Db0prPaziNrMYkoTYqt8YXW4i1axblrLwmoDC6smE1aGAQYTVsmQDb+mIOQTCuJ8giS7zxCifDpdVEwaJKWtdv4Gg8FgMNQLeltYNbOY0jRhZTBUACasskMLgJAYCNk0otKEkJSXRtrYLHlq9JX8DQaDwWDo7zBhZcLKUIcwYRWP0GZf28r1A6EYQZzPRyg2rS0NotL59qi4JJSazmAwGAyG/gYTVlUXVvi8j/q6bmbyb0nFfUbIPj9kSIYJq3hgow9qaFs1/BpJfo1QbFpbGkSl8+1p43wk+Q0Gg8FgqBeYsKqJsMoqhExYGcqDCatkyIZfU+CfA1ExmgJ9HIKfTtNHkl2zFMSl1XknxUQhyW8wGAwGQ73AhJUJK0MdwoSVwWAwGAwGQ21hwqo3hdW6oXRSQ/dbBBvH5e1+GhV30tChkb6GhkZOCeTSNzaelLeto6Enhcox1CtMWBkMBoPBYDDUFiasaiKsukVNt7DJ2QsixwkkEUxaWBXHrRsKsRSKw2lj/vNbuTSFz3KxvcHU1ICCCSuDwWAwGAyG2sKEVU2ElRI/Aiek5AlTDuMatejKp0HcSUOpO7nny4u1Al0GXpn5uOQvzTDUC0xY9U3wZWgwGAwGg6FOYcKq3wur4jxyCJeZe9qlnpIZ6hYmrJIBkeMzhDi7zzj4MTpdGh9YCuLS6ryjYpJQTlqDwWAwGOoJJqx6S1g5u/9WwOLPSOXSFMf1fCtg6ElUVJm59Pbkqv5hwioeITEQZ8sSG4LvC8VqW5I/LSRNKJ1vj4qLg6TJms5gMBgMhnqECateE1aM/Fv0cm/j0zFeGnxGKh8X/+UVzNBbAVX67i+4MNQzTFjFgy8FRw3fps/jfIKQTZAmVtuS/FkQlc63R8UlodR0BoPBYDDUG0xYVV1YGQy1hwmreCSJgZBf20L+KIRik2xJ/ixIm67a+RsMBoPBUO8wYWXCylCHMGGVDBEEmoKQTyiI8wmy2LVNjn2WgqS01c7fYDAYDIaBAhNWJqwMdQgTVtmhBUJILIRsGlFpQoiKFVuSPwvSpqt2/gaDwWAw1DtMWJmwMtQhTFjFIyQGtK1cPxCKEYR82pbkz4KodL49Ki4JpaYzGAwGg6HeYMLKhJWhDmHCKh4hMaBt1fBrhPzaluTPgqh0vj1tnI8kv8FgMBgMAwUmrExYGeoQJqySIYJAU+CfA1ExmgJ9HAU/rU7jnwMhWxrEpRNfmpgoJPkNBoPBYBgoMGFlwspQhzBhZTAYDAaDwVBbmLAyYWWoQ5iwMhgMBoPBYKgtTFiZsDLUIUxYGQwGg8FgMNQW9SesLsgLK977OWF11ISVYeDBhFXfhH0WyWAwGAyG+kXdCavTIKyOdNFq3vutO0S00YSVYQDChFUy5EsXNEOIs/uMQ1RMyJ5kC/lLRVxe4ouLSUI5aQ0Gg8Fg6E+oS2G1j4XVmnYTVoaBCxNW8Qht9uNsWWJDyOoTm9ijzsuFn6+Gb4+Ki4OkyZrOYDAYDIb+iLoTVqdfyMLqaBet7SBaf9iElWFgwoRVPEKbfd+mz+N8gpBNEGUH4vIKUfsrgai8fHtUXBJKTWcwGAwGQ39D3QmrMy5qpNbOLve0Cl9csakzL6w4YxNWhoECE1bxSNrsh/zaFvJHISk25Nc2/Ro6Lhdp8yq1zFLTGQwGg8HQ39BvhRX+4ARGOCdNmuSE1ZmXNFIbCyt5WuWEFWdswsowkGDCKhmy4dcUhHxCQZxPEGXXCMVom34NHZeLpLzEX2p55aQ1GAwGg6E/oe6E1VkQVse6CqJq0zETVoaBBxNW2aEFQEgMhGwaUWmSEJVObPo1dFwu0uZVapmlpjMYDAaDob+h/oTVpY3u81QFUWXCyjAAYcIqHqHNvraV6wdCMSGE4pJsIX+piMrLt0fFJaHUdIb/v707gbOyrPs/zj+X1BbFpbTMUrNH68mlssxMbV8sNRNBTEXAcUXNRED9l21WT2aUgMkyLo8aLoFbFpiCyiYKCiIoCMqOAjMsyu75PffvDBde5/K6l7PMfWbu+/N+vb7NOb/ruu4ZGJs5X2bmDACgvclcsTq959ZiZZUqihXyhmIVzfdg3561xnoY3964mW+9UmHXcudJ97ni1gEAyIpMFqs1QbGySxXFCnlDsYpnHvDbMdz7KmyPHcO+Hcc9q+Jm5rYv5Yo6Z183bk+YuHUAALIic8Wqqxar4CJ2qaJYIW8oVgAAAOnKXrEKDlOskHcUKwAAgHRlv1ht/Vmr4i8I7kexQj5QrAAAANKV2Z+x0ievKEafHTDIqmDWqy/FCvlAsWqb+FkjAACyK5PFSr86pb/Hyk7z5oJcTLFCTlCs4pknVbDjEzV3E8XdY59z11TcelJRZ+1rh+2JU81ZAACyJHPFSn+Plf6C4FfWyztZJ9K0qSAXXUmxQj5QrKL5ykDUrJy9Pu6ab689i1tPypzxnXPnYfuimDPlngMAIIsyV6w6d2+Q5qBEzX5TinlZs1Zk5YaCXNCbYoV8oFhF85UBd2bfj1ozfDMjyV575luvVNi13HnYvjiVngMAIGsyV6xO69YgTUGJmhn0ppnBY0aT5esLcv7PKFbIB4pVtLgy4Fu3Z771ML69cTPfeqWSXqvS11npOQAAsqb9F6sxg+WyywbKiK3F6tSzGmTFuoJMXyHFvLD15RtvFaThpxQr5APFKp4pBHYM35qJEbVmlDO3Z771SsVdy6xX+vqqOQsAQJZk7itWp/ykQd54syBTl4k8Z2XZ2oKce+lVFCvkAsWqfHZB8JUF38wWdsYnbK+Z+dYrlfRalb7OSs8BAJA17bZY3XZDT+ne/XoZUfIVq/5yctdz5fW1b8szi96WZxcXZMpiKb5cuuZt6XFJX4oVcoFiFc1XBuxZtevKt8ew18xt36wWwq7lzsP2xan0HAAAWdNui9UNj7jfCjhCftHtJDnp9B6ybM0WeXrBZpm8cEuxYGmWrt4iPXpRrJAPFKtovjJgz1pj3eaum/tm5q4r3yyJsHPuPOk+V9w6AAB50W6L1UTzrYCmWI34k3Tr9otisVq6erNMem3TO+UqCMUKeUKximcKgR3Dva/C9tgx7Nth3LPumbj1pKLO2teO2xMmbh0AgLzIZLHSr1hNmr9p21eszLcC9rykH8UKuUCxan8oKAAAtG/ZKVZbvxXw5K49i8Vq8sKtP2O1RGTqUp68AvlCsQIAAEhXhorV43Jf4y/kR1ufFXBKUKb02QCff0NkWhCebh15QrECAABIV7stVvo/xWIVDHXRPN36j89skOXrCjJt+dbfY7VSZEYTvyAY+UKxAgAASFfmilWnsxtk5YaCvNgsMjN4zDgr6E+zgseBOruwN8UK+UCxAgAASFfmitVp5zRI08aCvPymyGzNWy1p2lSQi/pQrJAPFCsAAIB0Za5YdeneIKs2F+SV9VLM3A0taQ5mF/elWCEfKFYAAADpylyxOr1ng6zeUpB5G6Ulm1qyKpj16kexQj5QrAAAANKV2WL16mYpic4uoVghJyhWAAAA6cpcseoaFKs1QYl6LShTxQQX1egr01dKsUIeUKwAAADSlb1iFRzWi7gXplghTyhWAAAA6aJYUayQQRQrAACAdGX/WwG3pvgzVhQr5ATFCgAAIF3ZffKKTVISnhUQeUKxAgAASFfmilWXHi2/x8r8/ir791j14vdYIScoVgAAAOnKXrHq3iDNmwoy+y3ZljlBmoLZxX0oVsgHihUAAEC6MlesTuvWIE0bCjIr6E2amVtfrgxmF/amWCEfKFYAAADpylyxOvWsBlmxriDTl0tJlgez839GsUI+tHax6tBBirG5M3Pfjs23rola09Ra0mvGvf7WevvqyfyZyv1zZfHvIkylf0cAgOzJXLE65ScN8sabBZmyWORZK8vWFqThpxQr5ENaxcp+MGnfd9eUOzP33dhrrc19vVHi9oWtR52LWjOS7GlNlbz+tN7mWryeaq5hn63mOq0lydvUFt9uAGiv2nWxevD6PjJ4zDQZ/pszpXPnznLSSSfJyV17yrLVm2XiqxtKsiSY9bikH8UKudAeipVRzl6fcvba7HNJrhG3J8k1XJWcSVtb/nOl9XrC1Pv1x2kLb19b/zsCgFpqv8Vq4m3Sp0+jjBkzWAYON1+x6i8ndekuS1ZtlKdmrw2yRp7cmkVNG6X7xX0oVsiFNIuVedAUdtvwzVQ5e33K2Wv4zrgzc9+N4VvTuOLmdnzC1uxz7h7fmsYWt25ErYWxr2nH1trrSfnO2te0Y6tm3b5vr4fNTGzVrhtha/Y5d49vTeMTtQYAWdNui9XE2/rJ9Q+63wrYKCd27iaLmzbI2FnNxYyZ2RSkWRau3CDnXNSbYoVcSKtYKful77bhm6movW5qxXdtE3vdVs66LWyuotYM3564Wdy6T9h63Dkf3xl7Vu264ZuVK+l1k85U3F5z257Z7Ln90rfX8K3HnVFJz9mzuHUAyKt2W6xu63eDPOj+jFX/n8oPT+smi5rWy5gXV8rjVhasWC/dLryCYoVcSLtY2bFnNt9MlbO3VuJeZ7XrtrC5ilozfHviZnHrytx34wqbR/GdsWdx68rcd/fZ4taT8F2jmpmK22tuu3sMd695ae83993YfDNX0nP2LG4dAPKq3RarfrdNLN55p1jdIj89qds7xWomxQr5lWaxUua+mbnryjdT5eytlbjXWe26LWyuotYM3564WbXrtrB5FN8Zexa3bjPzqLVq+K5RzUzF7fWt29y95qXvtpF05kp6zp7FrQNAXrXfr1hNtJ8VcLhc0/kC+UXjfe98K+BLLd8KaMK3AiJP8lSsytlr+M7Ys2rXbWFzZa+F7fPN42bVrtvC5lF8Z+xZteuGPfOtJ+E7V81Mxe31rdvcveal77YRN/OtK988bha3bgubA0AWtd8nrwj+p6VYjZDfnHmZ/GlEy9Otb3vyijlrS7KYJ69AjqRdrJQ7M/ft+PjW7DNuXGHzKL4z7szcd2P41jSusLkRdVaFrdnn3D3ufRW2x40rbB7Fd8admft2bHHrRtx6HN/ZamaGWbNjuPdd9rr90j5j7rtxRa2pJOfcPe595ZupsDkAZFG7L1ZjBl8hZ57pPN36mi0y6bWNMtEKT7eOPGntYgUAAIBSGfiKVcgvCF4iJSn+guDL+AXByAeKFQAAQLoyV6xOPatBVqwryPQVUpLlwez8n1GskA8UKwAAgHRlrlid1q1BmjYUZFbQm+ysDGYX9qZYIR8oVgAAAOnKXLHq3L1BmjcVZPZbsi1zgjQFs4v7UKyQDxQrAACAdGWuWHXp0SCrNhdk7gYpSXMwu7gvxQr5QLECAABIV+aK1ek9G2T1loK8uklKsiqY9epHsUI+UKwAAADSlbli1TUoVmuCEvXaZimJlq1LKFbICYoVAABAurJXrILDehH3wvrK9JVSrJAHFCsAAIB0UawoVsggihUAAEC6KFYUK2QQxQoAACBdFCuKFTKIYgUAAJAunryCYoUMolgBAACkK3PF6l1Ptx6UKg1Pt448oVgBAACkK3PF6l2/IHijyLwg/IJg5AnFCgAAIF2ZK1adz2mQ5k0Fmf2myOy3ROasa0lTMLuoD8UK+UCxAgAASFfmilWnsxtk5YaCvBg8XpwZdKdZwWPAl4Lo7ILeFCvkA8UKAAAgXZkrVqf8pEHeeKsgz70uMm25yPQVIi+sFFm+riDnXU6xQj7Uu1h16NASW9TMt2aLW/exr2snbk351jS2uPUovv1h10i61zeLY85Uctao9Kz9eu3YotaMqDUVtx7GnLOTF74/u6aWanXNSq7jO1PJdaLU+noA2ofMFauTTu8hy9ZskacXbJFnFhVkylKRqctElq0tyLmXXkWxQi60h2IVd98wc99aOexr+K5Xy/U45ZyP2mvPffuiVHtemTPlnvNxrxN3X5mZb01FrUXxnankOrVQj9fre521fjtqcT1zjXKv4ztTyXWi1OJ61V4jyflqXweAUu22WF31jbOkb98z5fjje0ujFqt7r5UTjjxSfnhaN1ncvFGeeuUtmTBvvUyavykoWZtlyerN0qNXH4oVcqHexUrZn7B9n7x9M5fZk2RvFPe873r2rNr1OOWcj9prz337opS7P0wtruO7Rtx13fWw/WHzKL4zlVynvUrjz1+r61VyHd+ZSq4TpRbXq/YatXgbAJSnHRerb8iZ/cdu/YpVo1x49ClyxZD75IRTz5KFK9fJmFnN8sTsNTIuKFjj562TRU0b5ZyLelOskAttoVgp84nd98k97pO+vR63N4rvbNys2vU45ZyP2muv2beTKHd/mGqvE3Y+7rruetj+sHmUJGfMHjuGfd9ed2c230zFze3Y4taj+Pa7M3Pfji3puuHbk0Ql53xn3Jm5b8ew79vrZqaS3rdja+11I2zNPufu8a1pALTzr1j1H7v1WwH/+Ts55eij5cgjj5Tv//hMWbBinTw2Y0WxXD0ZlKun5qwNytYGOfuCn1GskAvtqVj59sTdL4fvrJm5MXxrGsO9r3yzMPZe+6XvvG9uz+yX7r4oZr+dSlRzVoWdN3M7Nnfm26PC5nHMOTuGe1/ZM3Pbntl882r32rO49Thmr5so9h7ffndm33fXylHJWfuM/dJ32/Ct2zOXvebuc++rpLMwlZ5Pes6exa0DeZahYnWh/O6+++T7p54pC7VYvbiypVi9vLpYrhauXB8Uq8spVsiF9lSsDPu+ue1LOcLOxF3Lt27P4tbj2Hvtl77zvrk9M7ftWRLu/nLPG5WeU1Fn3bVy7xth83LZ1zG3fXHXfXxrYfvL2WuYdV+SSLLXvqYdey2KfSZub5RKzttn7Je+24Zv3d1js/f49kWtGVHr9nk7Nt/MlfScPYtbB/IsG8Wq+K2AR8sJVwyRH3Q6WxY1rW/5VsCgVOlXq8Zt/YpVN75ihZxoC8XK/kTr+6Trznx7jKi1KGHn4q7nW7dncetxzF5fXL65OzP33X1Rwq5RrkrPqaiz7lq5942weRTfGXvmW7fFrSt7T9R+31rUfhW3HqeS69sz37rL7EmyN0ol5+3X68Zet8Wtu8yeuL1Re8qZJ525kp6zZ3HrQJ5lpFi98+QVJ3Y5R5as2tTys1Vz18mEeS1ZrD9jdSE/Y4V8qHexSvKJN+6+LWotSti5uOv51u1Z3Hocs9fsd+/bfHN3Zu67+6KEXcMVNjeqWS9nzbfXzHxrRtRaGN8Ze1bJuo/ZF7XXtx43i1uPE7fXt27P4taVfd9dK0clZ80Zcy7svi1u3RW1372v4mZht424mW9d+eZxs7h1IM/abbHS/9E724rV1qdbP7lrz61Pt75ZJi/UbJHJ5lkBL+ZZAZEP7aFYKTPzrdni1sOEnYu7nm/dnZn7dpLy7Q+7RtK9vlkccybqbNSaqmY96dmofVFrKm49jDlnxxa17t6PErcv7FpmbscWtx4lyX77unaMqDXlznx7kqjknO+MOzP37RjufZ+4M+a+HZ+wdXtuxxW1ppKcc/e495VvBuRR5orVj89skOVbf0Hwc8taMnWp+T1W/ShWyIV6FysAAIC8yVyx6tStQVZuKMiLzSIzmoKsFHlhhRTL1nmXX02xQi5kvViZfx0NCwAAQNoyV6w6d2+Q5k0FeXmtyEua4DHgrKBDrQjK1gVXUKyQD1kvVgAAAG1N5opVlx4NsmpzQV5ZL/LKOpE5mrdEmjYW5KIrKVbIB4oVAABAujJXrE7v2SCrtxRk3kYpZu6GljQHZevivhQr5APFCgAAIF2ZK1Zdg2K1JihWr24WeXXTO9GvYvWiWCEnKFYAAADpyl6xCg7rRV4LLvZaUK5M9KtYvfpRrJAPFCsAAIB0ZbtYWdFidQnFCjlBsQIAAEhXfopVMNNXSrFCHlCsAAAA0pXZYuVemGKFPKFYAQAApItiRbFCBlGsAAAA0kWxolghgyhWAAAA6aJYUayQQRQrAACAdFGsKFbIIIoVAABAuihWFCtkEMUKAAAgXZktVjzdOvKMYgUAAJCuehcrt/9UX6x6BsVqS3DhzcEFrfALgpEnFCsAAIB01a1YBR1Hu47bf7QTaTequFidHhzWC7+6SUqyKpj1olghJ1q7WHXoIMXY3Jm5b8fmW9dErWlqJem1o+Zu8ibPf/a2hvcDANRfvYqVdhztOm7/0U6k3ajqYjVvo5Rk1eagWPWlWCEf0ipW9gM5+767ptyZue/GXmstvutHzcrZW65KzxlR55NcO8meKHHnq71+lCTXbs3X35bk5c8JAG1Z3YpV0HG067j9p+pi1aVHQ/HCr2yQkjQHs4spVsiJ9lCsjHL2+pSz1/CdcWf2/ag1wzertzTepnr+uev5utuasL8L/o4AID31KlbacbTruP1HO5F2o6qL1Zz1UpImihVyJM1iZR60hd02fDNVzl6fcvYacWd86/bMt14p37XMzI1P2Jp9LmyPCluzz4XtUVFryrduZr4YUWsqbt0IW7PPuXt8a5qkfPvdmblvx1bJusYVNgcA1F49i5V2Hbf/VF+sugfFalNw4XXBBa00BbOL+1CskA9pFStlv/TdNnwzFbXXTS1FXd+3ZmJErZXDdzbpTIXNVdSakWSPCtsXdz5uXVW6p5bn7Fncepy48629DgCoj7oVq6DjaNdx+492Iu1GscXq9rsflFvuGilDbr9HBg29U24YMESuve5PFCsgkHaxsmPPbL6ZKmdva7Jfp+/1+2a2uPUwvnNJZypsrqLWjLA9Zu7GFTY3Kl03czc238yV9Jw9i1uPk+S8ue/uU/aaG3vd5psBANLVVotV737Xyi9+e738/oaB8ueBw4LudEexQ2mX0k7VYd68ecWGNWPGDJk6dao8+eSTcv/997/zM1brpST8jBXyJM1ipcx9M3PXlW+mytlbK3Gvs9r1ciS9lm+mwuYqas3w7Uk6U2FzI2o9bM03TzpzJT1nz+LW45Rz3szttbC9hm897gwAoPXV/WesnP5jvhVQH9+NGDFCHn30URk3bpxMmTKl2KG0S2mnCi9WPYNitaUgczdKSShWyJM8Faty9hq+M/as2vVyJL2Wb6bC5speC9vnmyedqbC5Uck531rczLeufPO4Wdx6nLjzrb1uC5sDAGqv3sXK7T/aibQbVVystv0eq81SEn6PFfIk7WKl3Jm5b8fHt2afceMKm8exr+lew72vwvbYqYTvbNKZCpsbZj1sT9iafc6OK2xu+NbNzBfDt6ZxRa2pJOfcPe595ZtFMfvtc/Z5d91eU5Wsa1xhcwBA7dWrWG37PVZO/zFPt15xsep6boOsebsg89+WkqwOZpdcRbFCPrR2sQIAAECpehUr7Tjaddz+o51Iu1HlxaohKFaFgiwoSElWB7NLr6ZYIR8oVgAAAOmqV7HSjqNdx+0/2om0G1VcrM4IDq8NLqKvxo5emGKFvKBYAQAApKuexUq7jt19NNqJtBtVXawWBRezQ7FCnlCsAAAA0lXvYuX2H4oVUAMUq7Yh6kkFAFXNfx/2f1/uNdw1k6zK+p8PQPtAsaJYIYMoVm1HNQ/4kpyt5vqoL/O+q+R96J6Ju591efvzAmibMlesfhIcfjO4yOLgYnb0wpdRrJATFKu2o5oHfDxYzC73fVvu+zruvHs/6/L25wXQNtWrWGnH0a7j9h/tRNqNKFZAFShW0ewHYea2PVPu3F5TcetG1FoU+7pR1/Ct2Wfs2OLW0brcv/Ny3wdx59375TLn7dhac923prH51jVG1BoAtJbMFSu+FRCgWMWJe8Dlm4ftNcLW485FSXLWt8ee2S99tw3fDK3H/fuu5O/fnPGdddfc9Si+/fasva8DQGvhZ6woVsggilU08yAr7IGWve7G8K1pXGHzJJKc9e2xZ/ZL97YvSIf7913u33+55+PWXWa/74y95sZeD+Nbt2fVritz390HAK2JYkWxQgZRrKLFPeCqZD3sTNg8iSRnfXvsmf3Sdxv14b4Pyn2flHs+bj2MOWefjbtWJev2rNp1m5n71gCg1jJXrLqe2yBr3i7I/LelJKuD2SVXUayQDxSraHEPtHzr9ixu3RY2T8I+G3Yd39ye2S99tw3fDK3L/J1H/d2Hrbnzcu9H8e21Z+19HQBaS72KlXYc7Tpu/9FOpN0otljNnDlTpk+fXlyYMGFCcePdd98tXXo0yKrNBXllvZSkOZhd3JdihXygWEVL8iDL7LFj861rXGHzpKKurXxr9sx+ae8z9+0gfXF/91HrZi1sT9x6FPese7411937KmyPGyNqDQBaS72KlXYc7Tpu/9FOpN1o8ODBMnz4cHn44YflscceK3Yn7VDapbRTddi0aZOsW7eu+MYsW7ZM5syZU9x06tkNsmJ9QV5YKSVZvq4g5/+MYoV8oFgBAACkq17FSjuOdh23/2gn0m6khWr8+PHFIqVfodK3T1+vdintVB0mTZpU3DB27FgZPXq0jBw5UhobG+Wk03vI0tWbZcK89SVZvGqz9OjVl2KFXKBYAQAApKtexUo7jnYdt/9oJ9Ju1L9/fxk2bFjxq1YPPPCAjBo1qtihtEtppwotVt89+XR5bdlqeejpV0syd+kqOaNnL4oVcoFiBQAAkK56FSvtONp13P6jnUi7UWyxCvsZq2O//UOZOW+xDBnxRElemLNQTu5yDsUKuUCxAgAASFe9ipV2HO06bv/RTqTdKPZnrMKK1ee+fLxMnvaS/PyGW0oyYcqL8s0TTqFYIRcoVkD7UOkTK9hPymDHFTbPmrz8OQG0bfUqVtpxtOu4/Uc7kXaj2GIV0P95V/7rv4+QMeOelnN6XVWS0WPGy5e++nWKFXKBYtU+BB+yiomSZA/aJ/O+reR9nORMpdduj/Ly5wTQttWrWGnH0a7j9h/tRNqNfJ3JiXco+37iQHn434/Kt07qUpIRDz4inzn8CxQr5ALFqn0IPmQVg/xx3/fl/reQdH+5122v8vLnBNC21atYacfRruP2H+1E2o18ncmJdyi777W33POP++XQI48pyR1/v0cOOOhgihVygWIVL/hw8a4YvjWN4d5XvlkUs9+Oj2/NPmPHFreO+nLfJ+W+j5LuL/e6hjlnx9aa6741jc23rjGi1gCgtdSrWGnH0a7j9h/tRNqNfJ3JiXco7/vArvK/d/5d9t3/UyUZ2nirfGTf/ShWyAWKVbTgQ0UxNntW7XpSSc749tgz+6XvtuGboX7c90e57x+z345P1FoY3xl71t7XAaC11KtYacfRruP2H+1E2o18ncmJdyjv3WkXueXW26XjnnuX5KabB8teH96bYoVcoFhFCz5UFBPGt27P4taTSnLGt8ee2S/d276gbXDfH9W+f8LOV3pdcy7qmr7Y62F86/as2nVl7rv7AKA11atYacfRruP2H+1E2o18ncmJdyjb77CjDB3WKDu/f9eSDBg4SHbfY0+KFXKBYhUt+FBRTBjfuj2LW08qyRnfHntmv/TdRtvkvo+qfZ+Fna/Vde1rxF2zknV7Vu26zcx9awBQa/UqVtpxtOu4/Uc7kXYjX2dy4h3Ke7bbXgYPGSo7BO3Mzl9vHCC7ddydYoVcoFhFCz5UFGOzZ9WuJ2WfCTvvm9sz+6XvtuGbob7M+yTqfRO25s6T7kvCd8aetfd1AGgt9SpW2nG067j9RzuRdiNfZ3LiHcr/e892cvPgIbLdjjuV5C833ii7duxIsUIuUKziBR8u3hXDt6ax+dbcPUm413D51uyZ/dLeZ+7bQdsT976JWjdrSfaUy76u7xqtue7eV2F73BhRawDQWupVrLTjaNdx+492Iu1Gvs7kxDukWAEBilV1gg8lxQAAACRFsaJYIYMoVtUJPpQUAwAAkBTFimKFDKJYAQAApItiRbFCBlGsAAAA0kWxolghgyhWAAAA6aJYUayQQRQrAACAdFGsKFbIIIoVAABAuihWFCtkEMUKAAAgXRQrihUyiGIFAACQLooVxQoZRLECAABIF8WKYoUMolgBAACki2JFsUIGUawAAADSRbGiWCGDKFYAAADpolhRrJBBFCsAAIB0Za5YvWe77WXwkKGyw3t3Lslfbxwgu3XcnWKFXKBYAQAApCtzxWq77XeQIUOHyU7v+0BLdmnJjQMGSsfd96BYIRcoVgAAAOnKXLHa8b07SeMtt8oHO+5ZzAd20+whAwf9TfbY80MUK+QCxQoAACBdmStWO7/vA3Lb/94pH/7ox+VDH9HsJ3vts19w4aHyob0/QrFCLlCsAAAA0pW5YvXBjnvIXXffK5885DA58JBD5YCDD5X9/+u/pfHW2+WjH/s4xQq5QLECAABIV+aK1V577yv/uP9h+cIx35TPf+Xr8rmjvyZHHHW83PH3e2T/Az9FsUIuUKwAAADSlbli9bH9D5J/jnpMvvOjM+TbJ50u3zqxi3zjB53k3pEPycGfOYxihVygWAEAAKSr3RaruXPnyj777CN/+MMfZPTo0fLEE0/IXXfdJZ885FD5z5MTpGvD5dKl52VyWvdecurZF8lD//qPHPr5L1GskAsUKwAAgHS162L16KOPyowZM2TKlCnFYjVy5Ej5zOFflKcmTZUL+vxWzuv9Kzn38mulx2XXyKjHx8mRRx9HsUIuUKwAAADS1a6L1dSpU6VTp07FwXnnnVcsVocdeYxMnDpDrvj1X+Xya/8sl/78eul19R/ksaeelqOP+xbFCrlAsQIAAEhXuy5WgwYNKhlqsfrcUcfK5OdnylV/uFn6/G6Q9P7NjXL5L/vL2AlT5Kvf+B7FCrlAsQIAAEhXuy5WV1xxRcmwpVgdJ5OnzZKr/zhE+v7+JrnytwOKX716YtJUOfabJ1CskAsUKwAAgHS162LVuXPnkqEWqyOOOlaefn6m9Pv934JSNXDbtwQ+MXEKxQq5QbECAABIV+aK1eFfPEYmmZ+x+mXLz1hdcs3/yJjxz/KtgMgNihUAAEC6MlesPvv5L8v4Z6bJJf//j3LxVb+XC/v+Vs6/8tfFJ6/4yte+Q7FCLlCsAAAA0pW5YvXpw74gT06cIg1X/FJ6/vTn0v3Sa6Rbr6tk9JjxctRXv0GxQi5QrAAAANKVuWJ10KcPk8efnCQ/Of+Kll8S3ONS6dz9Ennk0bHyhS8fS7FCLlCsAAAA0pW5YvWJgw6Rfz/2hJzc9Vw5sUsP+cFp58gJnbrJA4+MlsO+cBTFCrlAsQIAAEhX5orVR/c7QB4KStTXTjhVjv/eKXLcd0+WY79zktw78iE55LNHUKyQCxQrAACAdLXbYuUZFLPX3h+Vf9z/kHz+6K/L5758vBxx1HFy+JeOlTuH3ysHfuoQihVygWIFAACQrswVq1077il/v+c+OegzR8gnP324HHjIYUEOlVtuv0M+9okDKFbIBYoVAABAujJXrHZ5/wfl9jvukn32O0D2+dj+sve+LRk8rFH2/si+FCvkAsUKAAAgXZkrVjvutLM03nq77Lbnh2W3PTQfkl2D3PS3m2WvD+1NsUIuUKwAAADSlblitf0OO8rQYY2yywd225pdZZf37yoDBg2S3ffck2KFXKBYAQAApCtzxeo9228vQ4YOlR13fl9JbhwwUDruvgfFCrlAsQIAAEhX9orVdtvL4CFDZfv37lySv944QHbruDvFCrlAsQIAAEhX5oqVHtaLuBfWV6avlGKFPKBYAQAApItiRbFCBlGsAAAA0kWxolghgyhWAAAA6aJYUayQQRQrAACAdPmK1YoVK2T58uWh0X0UK6ANo1gBAACky1estDxdc801cuWVVxbTt29f+dWvfiU33XST3HPPPcV1ihXQhlGsAAAA0hX1FasbbrhBbgz6iD7WeuSRR+Spp57iK1ZAe0CxAgAASFfYz1iZctXY2Cj//ve/ZfLkydtKlT7+olgBbRjFCgAAIF2mWC1btkyampq2Pb7SaInSMjV69OiSUqWhWAFtGMUKAAAgXaZYaXHSr1RpYbKjZUu/eqUv7bmWqrVr11KsgLaIYgUAAJAuU6xMcdLClCRaqihWQBtFsQIAAEiXKVb6mCqsQJmXvrS5YvWe7baXwUOGyg477VKSv944QHbruDvFCrlAsQIAAEiXKVZh5enNN9/c9tKXSouVdhztOm7/0U6k3cjXmZx4h7L9DjvK0GGNsvP7dy3JgIGDZPc99qRYIRcoVgAAAOkyxcpXmpKk0mKlHUe7jtt/tBNpN/J1Jifeobw3aGe33Hq7dNxr75LcdPNg2evDe1OskAsUKwAAgHSZYqUFqdL4HndpooqVdhztOm7/0U6k3cjXmZx4h/L+D+4md9w1XPY78OCSDLvlNvnoxz5OsUIutHax0g8chBBCCCHknZjHU9XE97hLE1WstONo13H7j3Yi7Ua+zuTEO5Q9P/wRuW/kg3LEl48vyZ133ycHfuoQihVyobWL1bx58yrK3Llzt2X+/Pne6G8iv/POO2XAgAHFDBw4sCRhc0IIIcSN+ZxhRz/H6Oca3+cgQuwsWLCgrJjHU9XE97hLE1WstONo13H7j3Yi7Ua+zuTEO5T9DviUPDL6cTnhtG4luf+fo+TQz3+JYoVcaO1i5ftgUm4WL17sjX7CW7RoUfF7jd0f+iSEEEKqjX4O0s81vs9BhNhZsmTJu6K//Fe/Zc/8gl99ogrz81Hm8VQ18T3u0kQVK+042nXc/qOdSLuRrzM58Q7lM4d/UZ6aNFUu6ve7kjw+brIc8/XvUqyQC61drJYuXVpR7A9M9vcT2xk0aJC89dZbwSe/lmK1Zk1pVq9eU4w7J4QQQtyYzxmaVatafkFrU1Oz3Hzzzd7PQSS/0V/qGxb9pb4mWqj0vyN93GSe/a/exUo7jnYdt/9oJ9Ju5OtMJZk0aZKMHz9exo4dK6NHj5aRI0dKY2OjHHXct+X5WfPkT433l2TKjFfk+6ecTrFCLrR2sXr99dffFf2AYm6bX4ynL+09dvQDky833XRT8AFKi5V+Qly97W0jhLREHyzq/0c0Ubd9ZwnJc7RQvfGGPjheKUOGDPF+DiLEjj6OMV+R0pd6v7m5ufjfk/kFwG2hWGnH0a7j9h/tRNqN+vfvL8OGDZPhw4fLAw88IKNGjSp2KO1S2qk6bNq0SdatW1d8A/RLcnPmzJEJEybIt07sLHOXNMs/nnq5JHMWNUmXcy6iWCEX6lmsTKnq1KlT8aW7z8T3AUyjxUq/WtXyL4vNxU+AhJB3oqXpK0cfLQ3nnuu9/atf/rJ423eWkDxHS9XSZS2fryhWJEn0MY2WpsMPP3xbuWqLxUo7jnYdt/9oJ9Ju9PDDDxdL1PTp04s/867fRaSvS7uUdqrQYvWjM86V19e+LZMXbinJ0jVvS89Lr6JYIRfqVaxMqdp///2lT58+VRSrtdLUvGrrJ8LlhBAr+i1NPbp3l9uC/7/6bt8/cmTxtu8sIXnOstffkMVLlga3KVYkWUyxOuigg4r/YGzKlT5makvFSjuOdh23/2gn0m5UcbHq2rNB1mwpyGubpSSrg9kl/a6mWCEX6lGsTKnab7/95Hvf+17xS86VFiv91/aVK5taPhEue50QYkX/v9q3T5/it3P4bj/++OPF276zhOQ5S4JStWjR4uLnIIoVSRK7WJ199tnSu3fvrT8H3vLjCtUWK/Xcc8+VzHyPuzRRxUo7jnYdt/9oJ9JuVHGx6tbQIBsKBWkOXomd9cHsiqspVsiHehQr/eDy2c9+Vo488kjp16+fjBgxouJi9frrb8hrr82X2bNfkZkzXyKEWNEHhqZM+W5rsdLbvrOE5DkzZsyU556fLi/Pnk2xIoliitXBBx9cfGxz9913y3333VcsV7UoVlpw9Hki7JnvcZcmqlhpx9Gu4/Yf7UTajSouVj2Dw1uCi2wMLmZnczDrS7FCTtSjWJmvWJ1xxhly/fXXy7/+9a+Ki5X+y+Lcua/KrFkvBx8EXiSEWJk/f+G2MuW7rcVKb/vOEpLnPP/8C/Lss1OLn1soViRJTLE65phjik/R/+yzz9b0K1a++B53aaKKlXYc7Tpu/9FOpN2o4mLVEBwuBBcpBBcrSTC7mmKFnKhHsdIPKKZcXXfddTJmzJiKi9XSpcuKX6164YWZMnXqNEKIlXnzXpO/9O8vjz32mPf2xIkTi7d9ZwnJc5559jmZNOkZmTlzFsWKJIopVtov9HGN3tYypY+ZKi1Wynz7n33bxPe4SxNVrLTjhPUffdurLlYuihXypF7FSl+acvXII49UXKz0++BnzZodfLCZLpMnTyGEWHnllXnFJ6iYPHmy9/a0adOKt31nCclztFSNGzex+C2BFCuSJKZY6XfimFJV7bMC2t/+V6tvBTTFykWxAmqgnsVKY8qVvrT32PF9ANNosVqwcFHxXxfHj3+6+EmQEPJO9B8cXnppTjFRt31nCclznnxygowZ85RMf2EGxYokij6O0fJkSpXeb4tPt06xAlpRvYtVkvg+gGm0WOm/to8dO04ef/wJ+c9jYwkhhJDq8p+x8uijY2T06Mdl2rTpFCuSKFqk3FRSrJTv2//s2ya+x10aihVQJ61drFas0N9cX36WL1++LfqByRf9QDF58jPFHzKeMuX54g8aE0IIIbXKhAmT5Pbbb/d+DiIkLvp4yS5VSYqV/S1/CxYskHvuueddcxPf4y4NxQqok9YuVmH/guObh8W8Tjf6Lzf6VO2NjY2EEEJIzXPHHXfIqFGjvJ+DSH6jZSlp3FLFtwJSrJBhrV2s9INHtfF9e6BvHyGEENJa8X0uIvmM77+PcmMeT1UT3+MuDcUKqJPWLlaEEEIIISS9UKyAOqFYEUIIIYRkJxQroE4oVoQQQggh2QnFCqgTihUhhBBCSHZCsQLqhGJFCCGEEJKdUKyAOqFYEUIIIYRkJxQroE5qVawIIYQQQkjbCMUKqINaFCtCCCGEENK2QrECUlaLYlX8/4nnS9EaAAAAlNqwYUPxMZgWl5UrV0pzc3NJ9LGWeWln9erVsmbNmuIvGfY97tLo4zKKFVAHtS5WupcQQgghhKQXihXQBtSqWOmeE088Uf7c/y/y7PMvyYIlzYQQQgghpBUzZ95Cuf+BB4qPwUzBolgBdVKLYqXrZ511tjw95UUZM2UOIYQQQghJMS/NmV98LGb6C8UKqINaFCv9V5JiqZr6CiGEEEIIqUO0XOljMooVUCfVFitdu+66/5Gxwf+hCSGEEEJI/TJ8+L3Fx2YUK6AOalGs9GeqnnhuLiGEEEIIqWPM4zaKFVAHtShWuueJ5+cRQgghhJA6hmIF1FGtitWTwf+ZCSGEEEJI/UKxAuqoVsXqqWmvEkIIIYSQOoZiBdRRrYrVuOmvEUIIIYSQOqZuxerc4PDbwUW2BBezo7OrKFbIiVoVq/EvzE+cDh06FJP0NiGEEELqn9ETZsqAW/4pv75heGrR16evl7eh9G0IS92KVY/g8ObgIuuDi9nRWV+KFXIizWKlRenaa68tXif8tuadOeWKEEIIaRv546CR8ui46TJtzuLUoq9PXy9vQ+nbEJbWLVab5P8A1XjCAO35N1wAAAAASUVORK5CYII=;fontColor=#000000;" parent="1" vertex="1">
                    <mxGeometry x="530" y="397.49" width="145.98" height="85.13" as="geometry"/>
                </mxCell>
                <mxCell id="29" style="edgeStyle=orthogonalEdgeStyle;curved=1;rounded=0;orthogonalLoop=1;jettySize=auto;html=1;exitX=0.5;exitY=0;exitDx=0;exitDy=0;exitPerimeter=0;entryX=1;entryY=0.5;entryDx=0;entryDy=0;entryPerimeter=0;fontSize=18;fontColor=#000000;strokeColor=#000000;" parent="1" source="18" target="11" edge="1">
                    <mxGeometry relative="1" as="geometry"/>
                </mxCell>
                <mxCell id="32" value="&lt;i style=&quot;font-size: 12px&quot;&gt;git push&lt;/i&gt;" style="edgeLabel;html=1;align=center;verticalAlign=middle;resizable=0;points=[];fontSize=12;fontColor=#000000;labelBackgroundColor=#ffffff;" parent="29" vertex="1" connectable="0">
                    <mxGeometry x="-0.2837" y="13" relative="1" as="geometry">
                        <mxPoint x="3" y="17" as="offset"/>
                    </mxGeometry>
                </mxCell>
                <mxCell id="30" style="edgeStyle=orthogonalEdgeStyle;curved=1;rounded=0;orthogonalLoop=1;jettySize=auto;html=1;entryX=0;entryY=0.5;entryDx=0;entryDy=0;entryPerimeter=0;fontSize=18;exitX=0;exitY=0.5;exitDx=0;exitDy=0;exitPerimeter=0;fontColor=#000000;strokeColor=#000000;" parent="1" source="11" target="18" edge="1">
                    <mxGeometry relative="1" as="geometry">
                        <mxPoint x="90" y="350" as="sourcePoint"/>
                        <Array as="points">
                            <mxPoint x="120" y="200"/>
                            <mxPoint x="120" y="360"/>
                            <mxPoint x="220" y="360"/>
                            <mxPoint x="220" y="395"/>
                        </Array>
                    </mxGeometry>
                </mxCell>
                <mxCell id="31" value="&lt;i style=&quot;font-size: 12px&quot;&gt;git pull&lt;/i&gt;" style="edgeLabel;html=1;align=center;verticalAlign=middle;resizable=0;points=[];fontSize=12;fontColor=#000000;labelBackgroundColor=#ffffff;" parent="30" vertex="1" connectable="0">
                    <mxGeometry x="0.0732" y="5" relative="1" as="geometry">
                        <mxPoint x="5" y="-23" as="offset"/>
                    </mxGeometry>
                </mxCell>
                <mxCell id="33" style="edgeStyle=orthogonalEdgeStyle;curved=1;rounded=0;orthogonalLoop=1;jettySize=auto;html=1;entryX=0;entryY=0.75;entryDx=0;entryDy=0;fontSize=18;fontColor=#000000;strokeColor=#000000;" parent="1" source="18" target="22" edge="1">
                    <mxGeometry relative="1" as="geometry">
                        <Array as="points">
                            <mxPoint x="393" y="395"/>
                            <mxPoint x="393" y="212"/>
                        </Array>
                    </mxGeometry>
                </mxCell>
                <mxCell id="34" value="sasjs deploy&lt;br style=&quot;font-size: 12px&quot;&gt;--target myViyaLoc" style="edgeLabel;html=1;align=center;verticalAlign=middle;resizable=0;points=[];fontSize=12;fontStyle=2;fontColor=#000000;labelBackgroundColor=#ffffff;" parent="33" vertex="1" connectable="0">
                    <mxGeometry x="0.1537" y="-3" relative="1" as="geometry">
                        <mxPoint x="-6" y="-19.6" as="offset"/>
                    </mxGeometry>
                </mxCell>
                <mxCell id="36" value="sasjs deploy &lt;br style=&quot;font-size: 12px&quot;&gt;--target myMetaFolder" style="edgeStyle=orthogonalEdgeStyle;curved=1;rounded=0;orthogonalLoop=1;jettySize=auto;html=1;entryX=0;entryY=0.75;entryDx=0;entryDy=0;fontSize=12;fontStyle=2;fontColor=#000000;strokeColor=#000000;labelBackgroundColor=#ffffff;" parent="1" source="18" target="23" edge="1">
                    <mxGeometry x="-0.0551" y="-20" relative="1" as="geometry">
                        <Array as="points">
                            <mxPoint x="430" y="395"/>
                            <mxPoint x="430" y="302"/>
                        </Array>
                        <mxPoint as="offset"/>
                    </mxGeometry>
                </mxCell>
                <mxCell id="37" style="edgeStyle=orthogonalEdgeStyle;curved=1;rounded=0;orthogonalLoop=1;jettySize=auto;html=1;exitX=1;exitY=0.5;exitDx=0;exitDy=0;exitPerimeter=0;entryX=0;entryY=0.75;entryDx=0;entryDy=0;fontSize=16;fontColor=#000000;strokeColor=#000000;" parent="1" source="18" target="26" edge="1">
                    <mxGeometry relative="1" as="geometry"/>
                </mxCell>
                <mxCell id="38" value="sasjs deploy&lt;br style=&quot;font-size: 12px&quot;&gt;--target myServerDir" style="edgeLabel;html=1;align=center;verticalAlign=middle;resizable=0;points=[];fontSize=12;fontStyle=2;fontColor=#000000;labelBackgroundColor=#ffffff;" parent="37" vertex="1" connectable="0">
                    <mxGeometry x="0.284" y="5" relative="1" as="geometry">
                        <mxPoint y="-16.3" as="offset"/>
                    </mxGeometry>
                </mxCell>
            </root>
        </mxGraphModel>
    </diagram>
</mxfile>